<?xml version="1.0"?>
<svg xmlns:rdf="http://www.w3.org/1999/02/22-rdf-syntax-ns#" xmlns="http://www.w3.org/2000/svg" xmlns:cc="http://creativecommons.org/ns#" xmlns:xlink="http://www.w3.org/1999/xlink" xmlns:dc="http://purl.org/dc/elements/1.1/" xmlns:svg="http://www.w3.org/2000/svg" id="svg5029" viewBox="0 0 105.29 91.621" version="1.0">
  <defs id="defs5031">
    <filter id="filter4170">
      <feGaussianBlur id="feGaussianBlur4172" stdDeviation="0.44299444"/>
    </filter>
    <radialGradient id="radialGradient2723" xlink:href="#linearGradient15026" gradientUnits="userSpaceOnUse" cy="-18.471" cx="-38.4" gradientTransform="matrix(1.7015 -.10392 .023719 .38834 -23.847 6.6253)" r="16.221"/>
    <radialGradient id="radialGradient2721" xlink:href="#linearGradient15026" gradientUnits="userSpaceOnUse" cy="-18.471" cx="-38.4" gradientTransform="matrix(1.7015 -.10392 .023719 .38834 37.259 62.885)" r="16.221"/>
    <filter id="filter15084" y="-.31831" width="1.2188" x="-.10938" height="1.6366">
      <feGaussianBlur id="feGaussianBlur15086" stdDeviation="1.3732664"/>
    </filter>
    <linearGradient id="linearGradient15026">
      <stop id="stop15028" stop-color="#fff" offset="0"/>
      <stop id="stop15030" stop-color="#503282" stop-opacity="0" offset="1"/>
    </linearGradient>
    <filter id="filter3615">
      <feGaussianBlur id="feGaussianBlur3617" stdDeviation="0.21169687"/>
    </filter>
    <filter id="filter5024" y="-.1323" width="1.3226" x="-.16129" height="1.2646">
      <feGaussianBlur id="feGaussianBlur5026" stdDeviation="0.22149727"/>
    </filter>
    <radialGradient id="radialGradient4348" gradientUnits="userSpaceOnUse" cy="470.57" cx="219.48" gradientTransform="matrix(1 0 0 1.5 0 -235.28)" r="1.4413">
      <stop id="stop3281" stop-color="#ff7f2a" stop-opacity="0" offset="0"/>
      <stop id="stop3283" stop-color="#ff7f2a" offset="1"/>
    </radialGradient>
    <filter id="filter5020" y="-.1713" width="1.255" x="-.12751" height="1.3426">
      <feGaussianBlur id="feGaussianBlur5022" stdDeviation="0.22149726"/>
    </filter>
    <filter id="filter5016" y="-.12997" width="1.3316" x="-.1658" height="1.2599">
      <feGaussianBlur id="feGaussianBlur5018" stdDeviation="0.22149726"/>
    </filter>
    <filter id="filter5012" y="-.1726" width="1.254" x="-.12698" height="1.3452">
      <feGaussianBlur id="feGaussianBlur5014" stdDeviation="0.22149727"/>
    </filter>
    <filter id="filter5008" y="-.13528" width="1.3127" x="-.15633" height="1.2706">
      <feGaussianBlur id="feGaussianBlur5010" stdDeviation="0.22149728"/>
    </filter>
    <filter id="filter5004" y="-.14509" width="1.2885" x="-.14426" height="1.2902">
      <feGaussianBlur id="feGaussianBlur5006" stdDeviation="0.22149726"/>
    </filter>
    <filter id="filter5000" y="-.15041" width="1.2791" x="-.13954" height="1.3008">
      <feGaussianBlur id="feGaussianBlur5002" stdDeviation="0.22149726"/>
    </filter>
    <filter id="filter4996" y="-.17871" width="1.2495" x="-.12473" height="1.3574">
      <feGaussianBlur id="feGaussianBlur4998" stdDeviation="0.22149727"/>
    </filter>
    <filter id="filter4992" y="-.12295" width="1.3688" x="-.18442" height="1.2459">
      <feGaussianBlur id="feGaussianBlur4994" stdDeviation="0.22149727"/>
    </filter>
    <filter id="filter4988" y="-.12598" width="1.378" x="-.18898" height="1.252">
      <feGaussianBlur id="feGaussianBlur4990" stdDeviation="0.22696716"/>
    </filter>
    <filter id="filter4984" y="-.18264" width="1.2469" x="-.12347" height="1.3653">
      <feGaussianBlur id="feGaussianBlur4986" stdDeviation="0.22149726"/>
    </filter>
    <filter id="filter4980" y="-.12689" width="1.3457" x="-.17283" height="1.2538">
      <feGaussianBlur id="feGaussianBlur4982" stdDeviation="0.22149728"/>
    </filter>
    <filter id="filter4976" y="-.14324" width="1.2923" x="-.14615" height="1.2865">
      <feGaussianBlur id="feGaussianBlur4978" stdDeviation="0.22149727"/>
    </filter>
    <filter id="filter4972" y="-.13756" width="1.306" x="-.15301" height="1.2751">
      <feGaussianBlur id="feGaussianBlur4974" stdDeviation="0.22149726"/>
    </filter>
    <filter id="filter4968" y="-.15274" width="1.2755" x="-.13776" height="1.3055">
      <feGaussianBlur id="feGaussianBlur4970" stdDeviation="0.22149727"/>
    </filter>
    <filter id="filter4964" y="-.17929" width="1.2491" x="-.12454" height="1.3586">
      <feGaussianBlur id="feGaussianBlur4966" stdDeviation="0.22149727"/>
    </filter>
    <filter id="filter4960" y="-.18417" width="1.246" x="-.12302" height="1.3683">
      <feGaussianBlur id="feGaussianBlur4962" stdDeviation="0.22149726"/>
    </filter>
    <filter id="filter4956" y="-.12991" width="1.3318" x="-.16592" height="1.2598">
      <feGaussianBlur id="feGaussianBlur4958" stdDeviation="0.22149727"/>
    </filter>
    <filter id="filter4952" y="-.12295" width="1.3688" x="-.18442" height="1.2459">
      <feGaussianBlur id="feGaussianBlur4954" stdDeviation="0.22149727"/>
    </filter>
    <filter id="filter4948" y="-.17836" width="1.2497" x="-.12485" height="1.3567">
      <feGaussianBlur id="feGaussianBlur4950" stdDeviation="0.22149728"/>
    </filter>
    <filter id="filter4944" y="-.18442" width="1.2459" x="-.12295" height="1.3688">
      <feGaussianBlur id="feGaussianBlur4946" stdDeviation="0.22149727"/>
    </filter>
    <filter id="filter4940" y="-.1401" width="1.2994" x="-.14972" height="1.2802">
      <feGaussianBlur id="feGaussianBlur4942" stdDeviation="0.22149727"/>
    </filter>
    <filter id="filter4936" y="-.12468" width="1.3577" x="-.17886" height="1.2494">
      <feGaussianBlur id="feGaussianBlur4938" stdDeviation="0.22149728"/>
    </filter>
    <filter id="filter4932" y="-.14209" width="1.2948" x="-.1474" height="1.2842">
      <feGaussianBlur id="feGaussianBlur4934" stdDeviation="0.22149726"/>
    </filter>
    <filter id="filter4928" y="-.12295" width="1.3688" x="-.18442" height="1.2459">
      <feGaussianBlur id="feGaussianBlur4930" stdDeviation="0.22149727"/>
    </filter>
    <filter id="filter4924" y="-.1323" width="1.3226" x="-.16129" height="1.2646">
      <feGaussianBlur id="feGaussianBlur4926" stdDeviation="0.22149727"/>
    </filter>
    <filter id="filter4920" y="-.12997" width="1.3316" x="-.1658" height="1.2599">
      <feGaussianBlur id="feGaussianBlur4922" stdDeviation="0.22149726"/>
    </filter>
    <filter id="filter4916" y="-.14509" width="1.2885" x="-.14426" height="1.2902">
      <feGaussianBlur id="feGaussianBlur4918" stdDeviation="0.22149726"/>
    </filter>
    <filter id="filter4912" y="-.1323" width="1.3226" x="-.16129" height="1.2646">
      <feGaussianBlur id="feGaussianBlur4914" stdDeviation="0.22149727"/>
    </filter>
    <filter id="filter4908" y="-.1713" width="1.255" x="-.12751" height="1.3426">
      <feGaussianBlur id="feGaussianBlur4910" stdDeviation="0.22149726"/>
    </filter>
    <filter id="filter4904" y="-.12997" width="1.3316" x="-.1658" height="1.2599">
      <feGaussianBlur id="feGaussianBlur4906" stdDeviation="0.22149726"/>
    </filter>
    <filter id="filter4900" y="-.1726" width="1.254" x="-.12698" height="1.3452">
      <feGaussianBlur id="feGaussianBlur4902" stdDeviation="0.22149727"/>
    </filter>
    <filter id="filter4896" y="-.13528" width="1.3127" x="-.15633" height="1.2706">
      <feGaussianBlur id="feGaussianBlur4898" stdDeviation="0.22149728"/>
    </filter>
    <filter id="filter4892" y="-.14509" width="1.2885" x="-.14426" height="1.2902">
      <feGaussianBlur id="feGaussianBlur4894" stdDeviation="0.22149726"/>
    </filter>
    <filter id="filter4888" y="-.15041" width="1.2791" x="-.13954" height="1.3008">
      <feGaussianBlur id="feGaussianBlur4890" stdDeviation="0.22149726"/>
    </filter>
    <filter id="filter4884" y="-.17871" width="1.2495" x="-.12473" height="1.3574">
      <feGaussianBlur id="feGaussianBlur4886" stdDeviation="0.22149727"/>
    </filter>
    <filter id="filter4880" y="-.12295" width="1.3688" x="-.18442" height="1.2459">
      <feGaussianBlur id="feGaussianBlur4882" stdDeviation="0.22149727"/>
    </filter>
    <filter id="filter4876" y="-.12598" width="1.378" x="-.18898" height="1.252">
      <feGaussianBlur id="feGaussianBlur4878" stdDeviation="0.22696716"/>
    </filter>
    <filter id="filter4872" y="-.18264" width="1.2469" x="-.12347" height="1.3653">
      <feGaussianBlur id="feGaussianBlur4874" stdDeviation="0.22149726"/>
    </filter>
    <filter id="filter4868" y="-.12689" width="1.3457" x="-.17283" height="1.2538">
      <feGaussianBlur id="feGaussianBlur4870" stdDeviation="0.22149728"/>
    </filter>
    <filter id="filter4864" y="-.14324" width="1.2923" x="-.14615" height="1.2865">
      <feGaussianBlur id="feGaussianBlur4866" stdDeviation="0.22149727"/>
    </filter>
    <filter id="filter4860" y="-.13756" width="1.306" x="-.15301" height="1.2751">
      <feGaussianBlur id="feGaussianBlur4862" stdDeviation="0.22149726"/>
    </filter>
    <filter id="filter4856" y="-.15274" width="1.2755" x="-.13776" height="1.3055">
      <feGaussianBlur id="feGaussianBlur4858" stdDeviation="0.22149727"/>
    </filter>
    <filter id="filter4852" y="-.17929" width="1.2491" x="-.12454" height="1.3586">
      <feGaussianBlur id="feGaussianBlur4854" stdDeviation="0.22149727"/>
    </filter>
    <filter id="filter4848" y="-.18417" width="1.246" x="-.12302" height="1.3683">
      <feGaussianBlur id="feGaussianBlur4850" stdDeviation="0.22149726"/>
    </filter>
    <filter id="filter4844" y="-.12991" width="1.3318" x="-.16592" height="1.2598">
      <feGaussianBlur id="feGaussianBlur4846" stdDeviation="0.22149727"/>
    </filter>
    <filter id="filter4840" y="-.12295" width="1.3688" x="-.18442" height="1.2459">
      <feGaussianBlur id="feGaussianBlur4842" stdDeviation="0.22149727"/>
    </filter>
    <filter id="filter4836" y="-.17836" width="1.2497" x="-.12485" height="1.3567">
      <feGaussianBlur id="feGaussianBlur4838" stdDeviation="0.22149728"/>
    </filter>
    <filter id="filter4832" y="-.18442" width="1.2459" x="-.12295" height="1.3688">
      <feGaussianBlur id="feGaussianBlur4834" stdDeviation="0.22149727"/>
    </filter>
    <filter id="filter4828" y="-.1401" width="1.2994" x="-.14972" height="1.2802">
      <feGaussianBlur id="feGaussianBlur4830" stdDeviation="0.22149727"/>
    </filter>
    <filter id="filter4824" y="-.12468" width="1.3577" x="-.17886" height="1.2494">
      <feGaussianBlur id="feGaussianBlur4826" stdDeviation="0.22149728"/>
    </filter>
    <filter id="filter4820" y="-.14209" width="1.2948" x="-.1474" height="1.2842">
      <feGaussianBlur id="feGaussianBlur4822" stdDeviation="0.22149726"/>
    </filter>
    <filter id="filter4816" y="-.12295" width="1.3688" x="-.18442" height="1.2459">
      <feGaussianBlur id="feGaussianBlur4818" stdDeviation="0.22149727"/>
    </filter>
    <filter id="filter4812" y="-.1323" width="1.3226" x="-.16129" height="1.2646">
      <feGaussianBlur id="feGaussianBlur4814" stdDeviation="0.22149727"/>
    </filter>
    <filter id="filter4808" y="-.12997" width="1.3316" x="-.1658" height="1.2599">
      <feGaussianBlur id="feGaussianBlur4810" stdDeviation="0.22149726"/>
    </filter>
    <filter id="filter4804" y="-.14509" width="1.2885" x="-.14426" height="1.2902">
      <feGaussianBlur id="feGaussianBlur4806" stdDeviation="0.22149726"/>
    </filter>
  </defs>
  <g id="layer1" transform="translate(-273.07 -432.27)">
    <path id="path4160" filter="url(#filter4170)" d="m309.16 432.27c-0.27 0.02-0.53 0.09-0.82 0.19-1.12 0.4-1.83 1.31-1.56 2.06 0.19 0.52 0.8 0.82 1.53 0.81 0.01 0.47 0.19 0.98 0.41 1.32 0.41 0.52-0.03 1.22-0.63 1.31-0.19 0.02-0.34 0.07-0.46 0.16-0.55-0.82-1.38-1.21-2-0.91-0.72 0.35-0.9 1.52-0.38 2.59 0.52 1.08 1.54 1.66 2.25 1.32 0.55-0.27 0.76-1.03 0.59-1.85 0.36-0.02 0.78-0.23 1.07-0.31 0.86-0.37 1.8-0.34 2.62 0.12 2.47 0.96 4.97 1.94 7.06 3.6 1.91 1.25 3.71 2.83 4.44 5.06 0.68 1.58 0.7 3.35 0.97 5.03 0.18 1.89 0.39 3.86-0.09 5.72-0.69 1.54-1.87 2.79-3 4-1.62 1.25-3.76 1.3-5.72 1.31-1.79 0.16-3.61 0.36-5.38-0.09-2.68-0.54-5.51-0.7-8-1.91-1.18-0.64-2.61-1.33-2.81-2.81-0.24-1.04-0.44-2.1-0.78-3.12-1.61-0.84-2-2.84-2.56-4.44-0.32-0.87-0.52-1.79-0.85-2.66 0.05-0.05 0.06-0.1 0.1-0.15 0.04-0.06 0.09-0.1 0.12-0.16 0.03-0.04 0.05-0.08 0.06-0.13 0.01 0 0-0.02 0-0.03 0.04-0.09 0.08-0.19 0.1-0.28s0.03-0.16 0.03-0.25v-0.03c-0.01-0.1-0.03-0.19-0.06-0.28-0.04-0.09-0.11-0.18-0.16-0.25 0-0.01 0.01-0.03 0-0.03-0.05-0.07-0.11-0.13-0.19-0.19 0 0-0.02 0.01-0.03 0-0.07-0.06-0.16-0.11-0.25-0.16-0.01 0-0.02 0.01-0.03 0-0.5-0.22-1.18-0.23-1.87 0.04-1.12 0.42-1.82 1.38-1.54 2.12 0.04 0.09 0.1 0.17 0.16 0.25s0.11 0.16 0.19 0.22h0.03c0.08 0.05 0.16 0.12 0.25 0.16 0.21 0.09 0.46 0.14 0.72 0.15 0.38 0.02 0.77-0.06 1.19-0.22 0.04-0.01 0.08-0.04 0.12-0.06 0.25 1.3 1.26 2.54 0.72 3.88-0.47 1.04-1.9 0.88-2.88 0.78-0.9-0.14-1.79-0.47-2.28-1.28-0.18-0.18-0.43-0.35-0.72-0.41 0.06-0.61-0.13-1.13-0.56-1.38-0.69-0.39-1.75 0.12-2.34 1.16s-0.5 2.2 0.19 2.59c0.48 0.28 1.13 0.08 1.68-0.4 1.44 0.77 3.01 1.37 4.6 1.78 1.09 0 2.32-0.61 3.31-0.03 0.84 0.61 1.28 1.37 1.91 2.19 0.36 0.84 0.42 1.85 0.5 2.78 0.12 1.34-0.12 3.05-1.5 3.59-0.48 0.1-0.97 0.18-1.22 0.63-1.16 0.91-2.69 1.75-4.19 1.31-0.69 0.33-1.3-0.28-1.69-0.75-0.22-0.24-0.42-0.56-0.62-0.85 0.6-0.78 0.74-1.72 0.25-2.21-0.56-0.57-1.72-0.34-2.57 0.5-0.85 0.83-1.08 1.96-0.53 2.53 0.41 0.41 1.13 0.41 1.82 0.06 0.62 0.56 1.32 1.17 1.09 2.06-0.51 0.46-1.31 0.38-2 0.35-0.53-0.58-1.22-0.82-1.75-0.57-0.72 0.35-0.86 1.49-0.34 2.57 0.52 1.07 1.53 1.66 2.25 1.31 0.49-0.24 0.69-0.85 0.62-1.56 2.73-0.27 5.29-1.39 7.81-2.41 2.05-1.01 3.78-2.81 6.13-3.09 2.92-0.17 5.82 0.52 8.62 1.28 1 0.46 2.31 0.3 3.03 1.25 1.32 1.34 1.18 3.43 1.04 5.18-0.22 2.4-0.53 5.13-2.5 6.75-1.37 1.22-3.29 1.68-5 2.29-4.65 1.46-9.6 1.69-14.41 1.03-1.66-0.12-3.26-0.76-4.5-1.88-1.13-0.98-2.19-1.83-3.44-2.69-1.56-1.09-3.26-2.06-5-2.78 0.14-0.72-0.05-1.35-0.53-1.62-0.69-0.4-1.72 0.12-2.31 1.15-0.59 1.04-0.5 2.2 0.19 2.6 0.53 0.3 1.26 0.05 1.84-0.56 0.1 0.09 0.22 0.16 0.37 0.21 1.98 1.27 4.3 2.07 5.91 3.82 0.68 0.76 1.52 1.87 0.91 2.93-0.41 0.86-1.4 1.18-2.32 1.25-2.07 0.3-4.16 0.08-6.25 0.25-0.34-0.12-0.55 0.04-0.71 0.29-0.18-0.89-0.73-1.54-1.38-1.54-0.79 0-1.44 0.97-1.44 2.16s0.65 2.19 1.44 2.19c0.52 0 0.97-0.44 1.22-1.06 0.1 0.01 0.21-0.01 0.34-0.04 3.22 0.14 6.54 0 9.6-1.09 0.78-0.36 1.68-0.86 2.06-1.56 2.09-0.77 4.52-0.75 6.53 0.25 0.49 0.99-0.27 1.98-0.97 2.62-1.1 1.17-2.45 2.13-3.53 3.32-0.39 0.65-1 1.08-1.31 1.71-0.76-0.63-1.71-0.78-2.22-0.31-0.59 0.54-0.4 1.68 0.41 2.56 0.8 0.89 1.91 1.16 2.5 0.63 0.34-0.31 0.42-0.82 0.28-1.38 0.66-0.4 1.07-1.18 1.68-1.75 2.36-2.61 4.75-5.34 7.91-6.96 3.08-1.43 6.56-1.27 9.75-2.32 2.3-0.7 4.6-1.83 7.06-1.56 1.98 0.08 4.02 0 5.91 0.66 1.06 0.48 1.14 1.94 1.06 3-0.22 1.99-1.03 3.86-1.15 5.87-0.27 3.18-1.22 6.37-3.29 8.85-1.38 1.67-2.95 3.23-4.62 4.65-1.01 0.8-2.49 0.5-3.66 0.19-0.78-0.19-1.57-0.35-2.37-0.38-0.07-0.74-0.45-1.34-1-1.46-0.78-0.18-1.61 0.65-1.88 1.81-0.26 1.16 0.13 2.23 0.91 2.4 0.64 0.15 1.31-0.35 1.69-1.18 0-0.01 0.03 0 0.03 0 1.01-0.07 2.04-0.17 2.94 0.22 0.42 0.37 0.1 0.94-0.19 1.4-0.48-0.15-0.93-0.14-1.25 0.13-0.61 0.51-0.49 1.68 0.28 2.59s1.89 1.23 2.5 0.72c0.6-0.5 0.48-1.6-0.25-2.5 0.64-0.53 1.31-1.29 2.03-1.84 2.36-2.1 4.8-4.17 6.75-6.66 0.54-0.78 1.2-1.77 1.66-2.66 1.29-0.34 2.2 0.82 3 1.63 0.88 0.93 1.84 1.62 2.81 2.37 1.07 1.21 0.52 3 0.75 4.47 0.04 0.17 0.07 0.36 0.12 0.53-0.85 0.19-1.46 0.71-1.46 1.35-0.01 0.69 0.73 1.29 1.71 1.43 0.15 0.02 0.29 0.03 0.44 0.04 1.2 0 2.15-0.65 2.16-1.44 0-0.54-0.44-1-1.1-1.25-0.31-0.95-0.95-1.89-0.71-2.91 0.24-0.68 1.15-0.21 1.62-0.03 0.93 0.48 1.96 0.92 2.88 1.34 0.71 0.52 0.2 1.47-0.04 2.16-0.88-0.02-1.63 0.38-1.78 1-0.04 0.19-0.03 0.37 0.03 0.56 0.07 0.2 0.19 0.39 0.35 0.57 0.32 0.34 0.82 0.64 1.4 0.78 1.16 0.28 2.26-0.14 2.44-0.91 0.16-0.66-0.39-1.38-1.28-1.75 0.51-0.37 0.89-0.93 1.06-1.53 0.8 0.09 1.54-0.17 2.28-0.41 0.06 0.09 0.09 0.19 0.16 0.25 0.08 0.08 0.16 0.14 0.25 0.19 0.17 0.11 0.36 0.19 0.56 0.19 0.8 0 1.44-1 1.44-2.19s-0.64-2.16-1.44-2.16c-0.69 0-1.27 0.74-1.4 1.72-0.01 0.04 0 0.09 0 0.13-0.61 0.23-1.1 0.9-1.78 0.78-2.31-1.17-4.68-2.26-6.88-3.63-1.24-0.86-2.42-2.01-3.59-2.84-0.51-0.24-0.85-0.58-1.03-1.09-0.52-0.88-1.81-1.4-1.91-2.6-0.09-3.23 1.08-6.33 1.72-9.47 0.42-1.44 1.53-2.54 2.5-3.65 1.58-1.63 3.44-3.14 5.75-3.53 1.36-0.21 2.73-1.41 4.12-0.72 3.19 1.11 6.34 2.44 9.72 2.81 2.68 0.3 5.43 0.55 8.1 0.09 0.35 0.24 0.35 1.11 0.53 1.6 0.59 2.7 1.14 5.41 1.47 8.15-0.86 1.12-2.07 2.08-3.13 2.88-1.36 1.26-2.75 2.56-4.5 3.25-0.5 0.19-1.02 0.21-1.53 0.12v-0.03c0.14-0.79-0.09-1.52-0.63-1.78-0.71-0.34-1.7 0.24-2.21 1.31-0.52 1.08-0.38 2.25 0.34 2.6 0.62 0.3 1.48-0.09 2.03-0.91 0.47 0.12 0.9 0.35 1.19 0.69-0.58 0.28-0.96 0.75-0.94 1.25 0.04 0.79 1.03 1.4 2.22 1.34 1.19-0.05 2.13-0.76 2.09-1.56-0.03-0.71-0.82-1.24-1.84-1.31 0.33-0.57 0.61-1.16 1.22-1.5 1.96-1.44 3.91-2.97 5.75-4.53 0.74-0.64 2.04-0.78 2.59 0.12 1.15 1.59 0.63 3.71 0.22 5.47v0.06c-0.39 0.1-0.75 0.26-1.03 0.47-0.1 0.08-0.2 0.17-0.28 0.25-0.33 0.34-0.46 0.74-0.38 1.13 0.17 0.77 1.24 1.22 2.41 0.97 1.17-0.26 1.98-1.1 1.81-1.88-0.11-0.53-0.67-0.9-1.37-1 0.04-0.14 0.08-0.3 0.12-0.44 0.39-1.84 0.65-4.02-0.62-5.59-0.42-0.73-1.39-1.31-1.97-1.97-1.07-1.94-1.26-4.24-1.56-6.41-0.1-0.96 0.22-1.93 0.09-2.9 3.22-0.43 6.24 1.05 9.25 1.94 0.06 0.13 0 0.45 0.03 0.71-0.59-0.12-1.15 0-1.44 0.38-0.48 0.63-0.1 1.75 0.85 2.47s2.11 0.79 2.59 0.15c0.48-0.63 0.11-1.71-0.84-2.43-0.05-0.04-0.08-0.07-0.13-0.1 0.24-0.07 0.48-0.2 0.6-0.37 0.3-0.39-0.08-0.89 0.5-1 0.22-0.17 0.45-0.42 0.59-0.72 0.7 0.7 1.6 0.95 2.16 0.53 0.63-0.48 0.59-1.64-0.13-2.59-0.72-0.96-1.83-1.36-2.47-0.88-0.51 0.39-0.57 1.22-0.19 2.03-0.22 0.07-0.46 0.15-0.62 0.25-0.69 0.36-1.54 0.34-2.16-0.12-1.91-0.91-4.09-0.99-6.06-1.69-0.49-0.23-1-0.63-0.25-0.94 2.55-2.42 4.9-5.06 7.47-7.47 0.38-0.36 0.7-0.75 1.03-1.12 0.8 0.72 1.81 0.91 2.34 0.41 0.58-0.55 0.39-1.7-0.43-2.57-0.82-0.86-1.96-1.11-2.53-0.56-0.36 0.34-0.43 0.91-0.22 1.5-2.45 2.5-4.62 5.27-7.22 7.63-1.39 1.51-3.09 2.92-5.22 3.12-3.28 0.46-6.54-0.33-9.78-0.75-2.6-0.46-5.17-1.37-7.25-3.03-1-0.95-1.8-2.2-1.91-3.63-0.2-1.4 0.4-2.75 0.28-4.15 0.02-0.87 0.07-1.88 0.85-2.41 1.5-1.88 3.91-2.64 5.84-4 0.89-0.65 1.85-1.54 2.75-2.31 1.08-0.92 2.05-2.05 2.97-3.09 0.75-0.21 1.43 0.44 2.03 0.81 1.27 0.79 2.32 1.96 3.81 2.31 2.11 0.81 4.42 1.2 6.63 0.63 0.49-0.13 0.98-0.31 1.47-0.5 0.42 1.03 1.31 1.65 2.03 1.4 0.75-0.26 1.02-1.4 0.62-2.53-0.39-1.12-1.34-1.83-2.09-1.56-0.49 0.17-0.75 0.73-0.78 1.4-0.98 0.14-1.87 0.62-2.85 0.79-0.51-0.76 0.04-1.74-0.09-2.6 0.98-0.02 1.79-0.5 1.88-1.19 0.09-0.78-0.79-1.57-1.97-1.71-1.19-0.15-2.25 0.39-2.35 1.18-0.08 0.64 0.5 1.24 1.35 1.53-0.33 0.77-0.06 2.05-1.03 2.32-1.07 0.22-2.13-0.29-3-0.88-1.3-0.89-2.65-1.71-4.04-2.4-1.07-0.72-0.73-2.26-0.65-3.38 0.09-1.29 0.41-2.89 1.75-3.37 0.11 1.03 0.69 1.81 1.4 1.81 0.8 0 1.44-0.96 1.44-2.16 0-1.19-0.64-2.15-1.44-2.15-0.73 0-1.32 0.83-1.4 1.9-0.14-0.14-0.32-0.25-0.5-0.22-0.41-0.12-1.31 0.75-0.94-0.06 0.02-0.04 0.02-0.08 0.03-0.12 0.69-0.24 1.16-0.75 1.16-1.32 0-0.79-0.93-1.43-2.06-1.43-0.57 0-1.07 0.17-1.44 0.43-0.19 0.13-0.37 0.27-0.47 0.44s-0.16 0.36-0.16 0.56c0 0.76 0.85 1.38 1.91 1.44-0.08 0.24-0.13 0.49-0.22 0.69-0.75 2.36-0.14 5.09-1.69 7.19-1.55 2.18-3.55 4.09-5.87 5.46-2.95 1.86-6.02 3.66-9.38 4.66-1.55 0.25-3.14-0.87-3.37-2.44-0.37-1.1-1.56-1.75-1.97-2.87-0.43-2.91-0.89-5.8-1.13-8.72-0.35-1.87-0.99-3.7-1.31-5.56 0.26-1.52 1.38-2.82 2.69-3.53 0.72-0.45 1.37 0.16 1.84 0.65 0.55 0.61 1.41 0.76 1.85 1.5 0.16 0.23 0.16 0.62 0.25 0.91-0.91 0.36-1.5 1.08-1.35 1.75 0.18 0.77 1.28 1.18 2.44 0.9 1.16-0.27 1.96-1.13 1.78-1.9-0.14-0.6-0.84-0.99-1.69-1 0.07-0.14 0.14-0.28 0.29-0.35 0.48-0.6 1.41-0.79 1.93-1.34 0.92 0.72 2.04 0.82 2.53 0.22 0.51-0.62 0.18-1.71-0.75-2.47-0.92-0.76-2.08-0.86-2.59-0.25-0.13 0.15-0.19 0.33-0.22 0.53-0.02 0.2 0 0.43 0.06 0.66 0.02 0.06 0.04 0.12 0.07 0.19-0.71 0.52-1.53 1.01-2.41 0.62-0.74-0.31-1.18-1-1.69-1.5-0.9-0.61-1.77-1.36-2.28-2.31-0.35-0.61 0.25-1.06 0.81-1.06 0.75-0.15 1.55-0.3 2.22-0.66 0.67 0.79 1.6 1.12 2.19 0.72 0.66-0.45 0.67-1.61 0-2.6-0.58-0.86-1.5-1.32-2.16-1.12-0.09 0.03-0.16 0.07-0.25 0.12-0.08 0.06-0.15 0.15-0.21 0.22-0.2 0.25-0.3 0.58-0.29 0.97-1.09 0.3-1.94 1.35-3.09 1.41 0.55-0.77 0.63-1.62 0.16-2.1-0.56-0.56-1.68-0.36-2.53 0.47-0.32 0.32-0.55 0.68-0.69 1.03-0.05 0.12-0.1 0.23-0.13 0.35-0.09 0.46 0.01 0.9 0.28 1.19 0.43 0.43 1.19 0.37 1.91-0.04 0.28 1.05 1.13 2.05 0.66 3.13-0.89 1.16-1.97 2.24-3.19 3.06-1.71 0.36-3.15-0.93-4.47-1.81-2.33-1.5-5.08-2.24-7.31-3.91-0.46-0.41-0.96-0.79-1.13-1.43-0.04-0.12-0.08-0.26-0.12-0.38 0.88-0.46 1.39-1.25 1.15-1.91-0.2-0.56-0.88-0.86-1.68-0.81z"/>
    <path id="text2617" d="m292.76 513.91c-0.42 0-0.75 0.33-0.75 0.75 0 0.44 0.33 0.76 0.75 0.76 0.41 0 0.76-0.34 0.76-0.76 0-0.4-0.35-0.75-0.76-0.75m-0.28 3.1l-2.07 0.45v0.37l1.13 0.21-0.82 4.17c-0.06 0.31-0.09 0.56-0.09 0.73 0 0.61 0.3 0.92 0.9 0.92 0.53 0 1.2-0.17 1.97-0.49v-0.43c-0.43 0.14-0.77 0.21-1.03 0.21-0.44 0-0.67-0.19-0.67-0.55 0-0.08 0.01-0.2 0.04-0.35l1.01-5.24h-0.37m4.02 0l-2.07 0.47v0.35l1.15 0.21-1.16 5.72h1.19l0.86-4.73c0.86-0.78 1.6-1.15 2.08-1.15 0.53 0 0.75 0.27 0.75 0.88 0 0.19-0.03 0.49-0.12 0.9l-0.61 2.59c-0.07 0.31-0.11 0.57-0.11 0.76 0 0.56 0.34 0.84 1.02 0.84 0.4 0 0.96-0.14 1.68-0.42v-0.4c-0.32 0.09-0.57 0.13-0.77 0.13-0.46 0-0.72-0.24-0.72-0.69 0-0.21 0.07-0.51 0.15-0.92l0.48-2.17c0.11-0.5 0.19-0.9 0.19-1.25 0-0.68-0.45-1.12-1.17-1.12-0.75 0-1.61 0.47-2.72 1.35l0.25-1.35h-0.35m7.6-1.35l-0.7 1.4-1.02 0.44v0.42l0.87-0.07-0.76 3.8c-0.08 0.39-0.11 0.71-0.11 0.94 0 0.85 0.38 1.27 1.17 1.27 0.49 0 1.22-0.21 2.16-0.62v-0.44c-0.56 0.18-1.01 0.28-1.33 0.28-0.56 0-0.85-0.31-0.85-0.87 0-0.16 0.04-0.37 0.08-0.62l0.73-3.74h2.13v-0.6h-2.02l0.29-1.59h-0.64m3.88 4.52c0.4-1.7 1.2-2.58 2.01-2.58 0.41 0 0.73 0.32 0.73 0.76 0 0.88-0.99 1.72-2.74 1.82m-0.07 0.47c2.49-0.16 3.82-1.06 3.82-2.25 0-0.84-0.56-1.39-1.44-1.39-0.69 0-1.6 0.41-2.31 1.15-0.79 0.83-1.25 2-1.25 3.18 0 1.62 0.8 2.55 2.12 2.55 0.92 0 1.84-0.42 2.71-1.26v-0.66c-0.81 0.76-1.59 1.15-2.24 1.15-0.89 0-1.45-0.69-1.45-1.82 0-0.23 0.01-0.45 0.04-0.65m6.94-3.64l-2.07 0.47v0.35l1.14 0.21-1.16 5.72h1.18l0.57-3.29c0.23-1.29 0.67-2.04 2.05-2.57l0.36 0.75h0.1c0.57 0 0.94-0.38 0.94-0.91 0-0.42-0.31-0.73-0.79-0.73-0.7 0-1.59 0.65-2.49 1.92l0.45-1.92h-0.28m5.63 0l-2.07 0.47v0.35l1.15 0.21-1.16 5.72h1.19l0.86-4.73c0.86-0.78 1.6-1.15 2.08-1.15 0.53 0 0.75 0.27 0.75 0.88 0 0.19-0.03 0.49-0.12 0.9l-0.61 2.59c-0.07 0.31-0.11 0.57-0.11 0.76 0 0.56 0.34 0.84 1.02 0.84 0.4 0 0.96-0.14 1.68-0.42v-0.4c-0.32 0.09-0.57 0.13-0.77 0.13-0.46 0-0.72-0.24-0.72-0.69 0-0.21 0.07-0.51 0.15-0.92l0.48-2.17c0.11-0.5 0.19-0.9 0.19-1.25 0-0.68-0.45-1.12-1.17-1.12-0.75 0-1.61 0.47-2.72 1.35l0.25-1.35h-0.35m6.8 3.17c0.41-1.7 1.21-2.58 2.02-2.58 0.4 0 0.73 0.32 0.73 0.76 0 0.88-1 1.72-2.75 1.82m-0.07 0.47c2.49-0.16 3.82-1.06 3.82-2.25 0-0.84-0.56-1.39-1.44-1.39-0.68 0-1.59 0.41-2.31 1.15-0.78 0.83-1.24 2-1.24 3.18 0 1.62 0.79 2.55 2.11 2.55 0.92 0 1.85-0.42 2.72-1.26v-0.66c-0.82 0.76-1.6 1.15-2.24 1.15-0.9 0-1.46-0.69-1.46-1.82 0-0.23 0.01-0.45 0.04-0.65m7.08-3.65l-2.19 0.46v0.37l1.16 0.21-0.81 3.68c-0.07 0.32-0.12 0.6-0.12 0.84 0 0.82 0.52 1.31 1.36 1.31 0.76 0 1.6-0.37 2.54-1.16-0.02 0.1-0.02 0.18-0.02 0.27 0 0.61 0.27 0.89 0.84 0.89 0.44 0 1.02-0.15 1.79-0.43v-0.39c-0.33 0.1-0.6 0.15-0.78 0.15-0.45 0-0.73-0.25-0.73-0.54 0-0.3 0.07-0.61 0.14-0.96l1-4.56h-1.14l-1.05 5.05c-0.78 0.62-1.5 0.89-1.99 0.89-0.5 0-0.81-0.28-0.81-0.77 0-0.21 0.06-0.56 0.16-1.04l0.88-4.07-0.23-0.2m7.6 0.01l-2.07 0.47v0.35l1.15 0.21-1.16 5.72h1.17l0.58-3.29c0.22-1.29 0.67-2.04 2.04-2.57l0.36 0.75h0.1c0.58 0 0.94-0.38 0.94-0.91 0-0.42-0.31-0.73-0.78-0.73-0.7 0-1.6 0.65-2.5 1.92l0.45-1.92h-0.28m7.01-0.01c-0.95 0-1.81 0.41-2.48 1.16-0.7 0.8-1.12 1.93-1.12 3.07 0 1.62 0.94 2.66 2.38 2.66 0.97 0 1.81-0.38 2.46-1.14 0.73-0.84 1.14-1.9 1.14-3.01 0-1.69-0.93-2.74-2.38-2.74m-0.18 0.55c0.85 0 1.37 0.72 1.37 2.11 0 2.13-1.05 3.65-2.24 3.65-0.84 0-1.36-0.72-1.36-2.07 0-2.17 1.02-3.69 2.23-3.69m5.83-0.54l-2.07 0.47v0.35l1.15 0.21-1.16 5.72h1.19l0.87-4.73c0.85-0.78 1.59-1.15 2.07-1.15 0.53 0 0.75 0.27 0.75 0.88 0 0.19-0.02 0.49-0.12 0.9l-0.6 2.59c-0.07 0.31-0.12 0.57-0.12 0.76 0 0.56 0.34 0.84 1.03 0.84 0.39 0 0.95-0.14 1.68-0.42v-0.4c-0.33 0.09-0.58 0.13-0.77 0.13-0.47 0-0.73-0.24-0.73-0.69 0-0.21 0.07-0.51 0.15-0.92l0.48-2.17c0.11-0.5 0.19-0.9 0.19-1.25 0-0.68-0.44-1.12-1.17-1.12-0.74 0-1.61 0.47-2.72 1.35l0.25-1.35h-0.35"/>
    <path id="path3609" filter="url(#filter3615)" fill="none" d="m315.72 439.38c-0.01 2.56 2.07 0.23 3.65 0.71 2.52 0.97 4.74 1.81 6.41 2.9 3.14 2.2 5.07 3.12 6.32 7.39 0.41 2.53 0.95 6.02 0.59 8.66-0.11 1.17-1.77 3.16-2.59 4.06-1.21 1.43-3.29 1.84-5.16 1.82-1.78-0.06-3.76 0.46-5.51 0.11-2.11-0.44-6.91-0.98-8.77-2.04-3.33-1.81-2.37-1.55-3.66-5.95-2.16-0.81-2.75-6.08-3.69-7.73-0.59-0.29-1.24 0.42-1.02 0.95 0.06 1.54 1.71 3.5 0.5 4.71-0.76 0.74-3.87 0.35-4.41-0.55-0.39-0.49-1.04-1.09-1.75-0.76-0.76 0.28-1.29 1.36-0.63 1.96 1.22 0.71 3.11 1.44 4.45 1.87 0.92 0.23 2.35-0.44 3.28-0.15s1.78 1.74 2.35 2.5c0.53 2.33 1.04 6-1.77 6.2-1.1 1.12-3.09 2.31-4.67 1.8-1.8 0.7-2.28-3.59-3.88-1.82-0.23-0.27-0.92-0.04-0.58 0.3 0.72 0.57 2.57 2.01 2.11 2.89-0.18 0.4-1.85 0.4-2.36 0.26-0.52 0.15-0.24 2.14 0.27 2.04 3.39-0.11 5.3-1.12 7.72-2.03 2.94-0.97 4.45-3.11 7.1-3.52 2.52-0.28 7.11 0.74 9.64 1.58 0.98 0.06 1.98 0.52 2.43 1.37 0.9 1.32 0.72 2.95 0.65 4.44-0.21 2.1-0.39 4.33-1.71 6.12-1.24 1.6-3.34 2.25-5.26 2.89-4.26 1.42-8.87 1.83-13.36 1.35-1.33-0.13-2.7-0.23-3.94-0.72-1.86-0.91-3.16-2.51-4.88-3.6-1.79-1.32-3.74-2.46-5.85-3.29-0.23-0.25-0.77-0.51-1.03-0.18-0.1 0.51-0.04 1.76 0.34 1.98 2.51 1.7 5.98 2.71 7.23 5.43 0.56 0.86-0.2 2.23-1.32 2.47-1.88 0.5-3.86 0.27-5.79 0.38-0.62-0.01-1.26 0.11-1.86 0-0.45 0.13-1.19 2.31-0.65 2.18 4.43 0.36 11.06-0.25 12.27-2.59 2.64-1 5.27-0.41 6.4 0.22 0.8 1.28-1.08 2.69-4.35 5.62-0.67 1.22-2.08 1.94-1.45 3.08 0.18 0.39 0.55 0.82 1.03 0.54 0.68-0.35 1-1.07 1.53-1.57 2.31-2.63 4.71-5.31 7.89-7.07 2.89-1.48 6.23-1.35 9.33-2.26 2.05-0.51 4.08-1.55 6.19-1.78 1.42 0.02 7.38-0.07 7.95 1.17 1.12 1.83-0.19 4.93-0.5 6.59-0.64 5.32-0.67 8.6-7.54 14.65-2.13 2.07-3.68 0.25-6.76 0.29-0.38 0.11-1.09-0.15-1.24 0.22 0.02 0.49-0.14 1.56 0.26 1.56 4.98-0.36 4.32 0.25 3.22 2.03-0.55 1.21 0.04 0.95 0.53 1.11 1.3-0.2 1.94-1.41 2.89-2.12 2.65-2.35 7.37-6.25 8.81-9.66 1.85-0.41 2.34 1.68 5.73 3.96 1.37 1.68-0.11 4.23 1.35 5.85 0.56 0.29 2.19 0.58 1.28-1.12-0.18-0.7-1.06-2.22-0.41-2.78 0.68-0.32 2.58 0.98 3.77 1.4 1.75 0.62-0.22 2.41 0.44 2.64 0.33 0.89 1.95-0.24 2.29-1.55 0.96 0.13 1.87-0.34 2.84-0.59-0.07-3.71-1.83-1.05-2.73-1.07-2.04-0.98-4.05-2.02-6.02-3.12-1.98-1.09-3.3-2.64-5.22-3.82-0.67-1.86-2.5-1.61-2.21-4.14 0.22-2.95 1.12-5.41 1.82-8.79 0.97-1.87 2.41-3.51 4.11-4.84 1.19-0.96 2.6-1.74 4.19-1.96 1.21-0.21 2.44-1.25 3.57-0.8 2.21 0.75 5.48 2.11 7.8 2.51 3.04 0.68 8.22 1 10.4 0.5 0.51 1.62 1.84 8.91 1.84 9.6-1.61 2.03-2.53 2.13-3.77 3.53-3.46 2.89-4.46 3.18-6.48 2.31-0.84 2.77 0.99 0.64 2.18 2.97 1.74-0.23 1.3-1.48 2.23-2.1 1.41-0.94 4.63-3.55 4.92-3.74 2.41-2.46 3.35-1.51 3.99-0.24 0.72 1.88-0.1 3.8-0.41 6.02 0.5 0.27 1.44 0.22 1.82-2.34 0.73-3.97-0.7-5.27-2.6-6.84-1.07-1.59-1.4-4.38-1.64-6.41-0.14-1.11 0.17-1.81 0.04-2.92 2.81-0.49 7.05 1.33 9.12 1.95-0.53 1.97 2.36 1.38 1.9-0.05 0.66-0.1 1.43-1.29 0.95-1.85-0.69-0.82-1.81 1.15-3.31 0.07-2.99-1.38-5.83-1.12-6.8-2.2 1.61-1.32 3.88-3.92 4.88-4.82 1.68-1.9 3.83-3.42 5.19-5.56 0.26-0.71-1.04-1.27-1.43-0.59-3.42 3.43-4.79 5.44-7.76 8.19-1.28 1.43-3.15 2.98-5.21 3.2-2.76 0.46-6.21-0.19-8.97-0.58-2.06-0.27-4.08-0.85-5.93-1.75-1.22-0.65-2.45-1.42-3.19-2.57-0.92-1.38-1.1-3.13-0.7-4.7 0.32-1.25-0.25-3.34 0.85-4.1 1.44-1.86 3.97-2.69 5.91-4.02 2.4-2.09 3.37-2.63 5.69-5.43 0.9-0.44 3.95 2.52 4.83 2.78 1.56 0.51 3.1 1.18 4.77 1.22 1.66 0.11 3.33-0.27 4.81-0.94 0.55 0.17 0.42-1.38-0.18-1.34-1.16-0.03-2.46 0.73-3.36 0.82-0.48-0.57 0.53-3.13-0.47-3.21-1.89-0.14 0 3.42-2.8 2.75-0.94 0.11-3.77-2.28-4.68-2.57-1.18-0.75-2.02-0.59-1.97-2.62 0.11-3.43 0.76-4.26 1.83-4.68 0.54-0.29-0.08-1.45-1.45-0.7 0.3-1.3-0.3-1.01-0.92-0.92-1.2 2.65-0.71 4.36-1.36 6.83-0.39 1.48-1.85 3.09-2.97 4.25-1.51 1.62-3.51 2.74-5.41 3.93-2.36 1.4-4.82 2.71-7.47 3.55-1.53 0.33-3.15-0.8-3.4-2.22-0.19-1.05-1.85-2.11-2.03-3.16-0.34-2.68-0.78-4.94-0.98-7.64-0.08-1.49-0.77-3.62-1.41-6.34 0.14-1.41 1.53-3.13 2.89-3.63 0.82-0.33 1.35 0.84 2.42 1.43 1.92 0.93 0.22 2.46 2.3 1.98 0.25-1.9 3.92-1.66 2.33-3.65-0.82-1.04-2.16 3.05-4.86-0.71-0.77-0.45-2.65-2-2.4-2.78 0.13-0.67 3.01-0.29 4.11-1.99-1.81-3.02-3.93 1.62-5.79 0.19-1.13 1.08 1.34 3.27 0.34 4.44-0.75 1.06-1.88 2.08-2.95 2.88-1.07 0.33-2.29-0.26-3.34-1-2.92-2.28-6.52-2.94-8.87-5.07-0.86-0.49-0.58-2.64-2.04-1.92-0.55 0.51-0.32 1.75 0.23 2.45 0.15 0.69-0.19 0.85-1.46 1.27z"/>
    <path id="path3663" fill="#ffd42a" d="m308.41 432.27c-0.27 0.02-0.53 0.09-0.81 0.19-1.13 0.4-1.83 1.31-1.56 2.06 0.18 0.52 0.8 0.82 1.53 0.81 0 0.47 0.19 0.98 0.4 1.32 0.42 0.52-0.02 1.22-0.62 1.31-0.2 0.02-0.35 0.07-0.47 0.16-0.55-0.82-1.38-1.21-2-0.91-0.72 0.35-0.9 1.52-0.37 2.59 0.52 1.08 1.53 1.66 2.25 1.32 0.55-0.27 0.75-1.03 0.59-1.85 0.35-0.02 0.77-0.23 1.06-0.31 0.86-0.37 1.8-0.34 2.63 0.12 2.46 0.96 4.97 1.94 7.06 3.6 1.9 1.25 3.7 2.83 4.44 5.06 0.68 1.58 0.69 3.35 0.97 5.03 0.18 1.89 0.38 3.86-0.1 5.72-0.68 1.54-1.87 2.79-3 4-1.62 1.25-3.75 1.3-5.72 1.31-1.79 0.16-3.6 0.36-5.37-0.09-2.68-0.54-5.52-0.7-8-1.91-1.19-0.64-2.62-1.33-2.81-2.81-0.25-1.04-0.45-2.1-0.79-3.12-1.61-0.84-1.99-2.84-2.56-4.44-0.31-0.87-0.51-1.79-0.84-2.66 0.04-0.05 0.05-0.1 0.09-0.15 0.04-0.06 0.09-0.1 0.13-0.16 0.02-0.04 0.04-0.08 0.06-0.13 0 0-0.01-0.02 0-0.03 0.04-0.09 0.07-0.19 0.09-0.28s0.04-0.16 0.03-0.25v-0.03c0-0.1-0.02-0.19-0.06-0.28-0.03-0.09-0.1-0.18-0.15-0.25-0.01-0.01 0-0.03 0-0.03-0.06-0.07-0.12-0.13-0.19-0.19-0.01 0-0.03 0.01-0.03 0-0.08-0.06-0.16-0.11-0.25-0.16-0.01 0-0.03 0.01-0.03 0-0.5-0.22-1.18-0.23-1.88 0.04-1.11 0.42-1.81 1.38-1.53 2.12 0.03 0.09 0.09 0.17 0.16 0.25 0.06 0.08 0.1 0.16 0.18 0.22h0.03c0.08 0.05 0.16 0.12 0.25 0.16 0.21 0.09 0.46 0.14 0.72 0.15 0.38 0.02 0.77-0.06 1.19-0.22 0.04-0.01 0.08-0.04 0.13-0.06 0.24 1.3 1.25 2.54 0.71 3.88-0.47 1.04-1.9 0.88-2.87 0.78-0.9-0.14-1.8-0.47-2.28-1.28-0.19-0.18-0.44-0.35-0.72-0.41 0.05-0.61-0.14-1.13-0.56-1.38-0.69-0.39-1.76 0.12-2.35 1.16s-0.5 2.2 0.19 2.59c0.48 0.28 1.13 0.08 1.69-0.4 1.44 0.77 3 1.37 4.59 1.78 1.09 0 2.33-0.61 3.31-0.03 0.84 0.61 1.28 1.37 1.91 2.19 0.36 0.84 0.43 1.85 0.5 2.78 0.12 1.34-0.11 3.05-1.5 3.59-0.48 0.1-0.96 0.18-1.22 0.63-1.15 0.91-2.69 1.75-4.19 1.31-0.68 0.33-1.3-0.28-1.68-0.75-0.23-0.24-0.42-0.56-0.63-0.85 0.61-0.78 0.74-1.72 0.25-2.21-0.56-0.57-1.71-0.34-2.56 0.5-0.85 0.83-1.09 1.96-0.53 2.53 0.4 0.41 1.12 0.41 1.81 0.06 0.62 0.56 1.33 1.17 1.09 2.06-0.51 0.46-1.3 0.38-2 0.35-0.53-0.58-1.22-0.82-1.75-0.57-0.71 0.35-0.86 1.49-0.34 2.57 0.52 1.07 1.53 1.66 2.25 1.31 0.49-0.24 0.7-0.85 0.63-1.56 2.73-0.27 5.29-1.39 7.81-2.41 2.04-1.01 3.78-2.81 6.12-3.09 2.93-0.17 5.82 0.52 8.63 1.28 1 0.46 2.31 0.3 3.03 1.25 1.32 1.34 1.17 3.43 1.03 5.18-0.22 2.4-0.53 5.13-2.5 6.75-1.37 1.22-3.29 1.68-5 2.29-4.65 1.46-9.6 1.69-14.41 1.03-1.66-0.12-3.25-0.76-4.5-1.88-1.13-0.98-2.19-1.83-3.43-2.69-1.56-1.09-3.27-2.06-5-2.78 0.13-0.72-0.05-1.35-0.53-1.62-0.7-0.4-1.73 0.12-2.32 1.15-0.59 1.04-0.5 2.2 0.19 2.6 0.54 0.3 1.26 0.05 1.84-0.56 0.1 0.09 0.23 0.16 0.38 0.21 1.97 1.27 4.29 2.07 5.91 3.82 0.67 0.76 1.52 1.87 0.9 2.93-0.4 0.86-1.4 1.18-2.31 1.25-2.08 0.3-4.16 0.08-6.25 0.25-0.34-0.12-0.56 0.04-0.72 0.29-0.18-0.89-0.72-1.54-1.37-1.54-0.8 0-1.44 0.97-1.44 2.16s0.64 2.19 1.44 2.19c0.52 0 0.96-0.44 1.21-1.06 0.1 0.01 0.21-0.01 0.35-0.04 3.21 0.14 6.53 0 9.59-1.09 0.78-0.36 1.68-0.86 2.06-1.56 2.1-0.77 4.53-0.75 6.54 0.25 0.48 0.99-0.28 1.98-0.97 2.62-1.11 1.17-2.46 2.13-3.53 3.32-0.4 0.65-1.01 1.08-1.32 1.71-0.76-0.63-1.7-0.78-2.22-0.31-0.58 0.54-0.39 1.68 0.41 2.56 0.8 0.89 1.91 1.16 2.5 0.63 0.34-0.31 0.43-0.82 0.28-1.38 0.66-0.4 1.08-1.18 1.69-1.75 2.35-2.61 4.75-5.34 7.91-6.96 3.07-1.43 6.56-1.27 9.75-2.32 2.29-0.7 4.59-1.83 7.06-1.56 1.97 0.08 4.02 0 5.9 0.66 1.06 0.48 1.15 1.94 1.07 3-0.23 1.99-1.04 3.86-1.16 5.87-0.26 3.18-1.21 6.37-3.28 8.85-1.39 1.67-2.96 3.23-4.63 4.65-1.01 0.8-2.48 0.5-3.65 0.19-0.78-0.19-1.58-0.35-2.38-0.38-0.07-0.74-0.45-1.34-1-1.46-0.77-0.18-1.61 0.65-1.87 1.81-0.27 1.16 0.13 2.23 0.9 2.4 0.64 0.15 1.32-0.35 1.69-1.18 0-0.01 0.03 0 0.03 0 1.01-0.07 2.04-0.17 2.94 0.22 0.42 0.37 0.11 0.94-0.19 1.4-0.47-0.15-0.93-0.14-1.25 0.13-0.61 0.51-0.48 1.68 0.28 2.59 0.77 0.91 1.89 1.23 2.5 0.72 0.6-0.5 0.48-1.6-0.25-2.5 0.65-0.53 1.31-1.29 2.04-1.84 2.35-2.1 4.8-4.17 6.75-6.66 0.53-0.78 1.19-1.77 1.65-2.66 1.3-0.34 2.2 0.82 3 1.63 0.88 0.93 1.84 1.62 2.81 2.37 1.07 1.21 0.52 3 0.75 4.47 0.05 0.17 0.08 0.36 0.13 0.53-0.86 0.19-1.47 0.71-1.47 1.35 0 0.69 0.73 1.29 1.72 1.43 0.14 0.02 0.29 0.03 0.44 0.04 1.19 0 2.15-0.65 2.15-1.44 0.01-0.54-0.44-1-1.09-1.25-0.32-0.95-0.96-1.89-0.72-2.91 0.24-0.68 1.15-0.21 1.63-0.03 0.92 0.48 1.96 0.92 2.87 1.34 0.72 0.52 0.2 1.47-0.03 2.16-0.89-0.02-1.63 0.38-1.78 1-0.05 0.19-0.04 0.37 0.03 0.56 0.06 0.2 0.18 0.39 0.34 0.57 0.32 0.34 0.83 0.64 1.41 0.78 1.16 0.28 2.25-0.14 2.44-0.91 0.16-0.66-0.4-1.38-1.28-1.75 0.51-0.37 0.88-0.93 1.06-1.53 0.79 0.09 1.53-0.17 2.28-0.41 0.06 0.09 0.09 0.19 0.16 0.25 0.07 0.08 0.16 0.14 0.25 0.19 0.17 0.11 0.36 0.19 0.56 0.19 0.79 0 1.44-1 1.44-2.19s-0.65-2.16-1.44-2.16c-0.7 0-1.27 0.74-1.41 1.72 0 0.04 0.01 0.09 0 0.13-0.61 0.23-1.1 0.9-1.78 0.78-2.31-1.17-4.68-2.26-6.87-3.63-1.25-0.86-2.42-2.01-3.6-2.84-0.5-0.24-0.84-0.58-1.03-1.09-0.51-0.88-1.81-1.4-1.91-2.6-0.09-3.23 1.08-6.33 1.72-9.47 0.43-1.44 1.54-2.54 2.5-3.65 1.58-1.63 3.45-3.14 5.75-3.53 1.37-0.21 2.73-1.41 4.13-0.72 3.19 1.11 6.33 2.44 9.72 2.81 2.67 0.3 5.42 0.55 8.09 0.09 0.35 0.24 0.35 1.11 0.53 1.6 0.59 2.7 1.15 5.41 1.47 8.15-0.85 1.12-2.06 2.08-3.12 2.88-1.37 1.26-2.75 2.56-4.5 3.25-0.5 0.19-1.02 0.21-1.54 0.12 0 0 0.01-0.03 0-0.03 0.14-0.79-0.08-1.52-0.62-1.78-0.72-0.34-1.7 0.24-2.22 1.31-0.52 1.08-0.37 2.25 0.34 2.6 0.63 0.3 1.49-0.09 2.04-0.91 0.47 0.12 0.9 0.35 1.18 0.69-0.57 0.28-0.96 0.75-0.93 1.25 0.03 0.79 1.02 1.4 2.21 1.34 1.2-0.05 2.13-0.76 2.1-1.56-0.04-0.71-0.83-1.24-1.85-1.31 0.33-0.57 0.61-1.16 1.22-1.5 1.97-1.44 3.91-2.97 5.75-4.53 0.74-0.64 2.04-0.78 2.6 0.12 1.14 1.59 0.63 3.71 0.22 5.47v0.06c-0.4 0.1-0.76 0.26-1.04 0.47-0.1 0.08-0.2 0.17-0.28 0.25-0.32 0.34-0.46 0.74-0.37 1.13 0.17 0.77 1.24 1.22 2.4 0.97 1.17-0.26 1.99-1.1 1.82-1.88-0.12-0.53-0.68-0.9-1.38-1 0.04-0.14 0.08-0.3 0.13-0.44 0.39-1.84 0.64-4.02-0.63-5.59-0.42-0.73-1.38-1.31-1.97-1.97-1.07-1.94-1.26-4.24-1.56-6.41-0.1-0.96 0.22-1.93 0.09-2.9 3.22-0.43 6.24 1.05 9.25 1.94 0.06 0.13 0 0.45 0.04 0.71-0.6-0.12-1.15 0-1.44 0.38-0.48 0.63-0.11 1.75 0.84 2.47s2.11 0.79 2.6 0.15c0.48-0.63 0.1-1.71-0.85-2.43-0.04-0.04-0.08-0.07-0.12-0.1 0.24-0.07 0.47-0.2 0.59-0.37 0.3-0.39-0.07-0.89 0.5-1 0.22-0.17 0.46-0.42 0.59-0.72 0.7 0.7 1.6 0.95 2.16 0.53 0.64-0.48 0.59-1.64-0.12-2.59-0.72-0.96-1.84-1.36-2.47-0.88-0.52 0.39-0.57 1.22-0.19 2.03-0.23 0.07-0.46 0.15-0.63 0.25-0.68 0.36-1.54 0.34-2.15-0.12-1.92-0.91-4.1-0.99-6.06-1.69-0.5-0.23-1-0.63-0.25-0.94 2.55-2.42 4.89-5.06 7.46-7.47 0.38-0.36 0.71-0.75 1.04-1.12 0.79 0.72 1.8 0.91 2.34 0.41 0.58-0.55 0.38-1.7-0.44-2.57-0.82-0.86-1.95-1.11-2.53-0.56-0.36 0.34-0.43 0.91-0.22 1.5-2.45 2.5-4.62 5.27-7.22 7.63-1.39 1.51-3.09 2.92-5.22 3.12-3.27 0.46-6.54-0.33-9.78-0.75-2.6-0.46-5.17-1.37-7.25-3.03-0.99-0.95-1.8-2.2-1.9-3.63-0.2-1.4 0.4-2.75 0.28-4.15 0.01-0.87 0.06-1.88 0.84-2.41 1.51-1.88 3.91-2.64 5.85-4 0.88-0.65 1.85-1.54 2.75-2.31 1.08-0.92 2.05-2.05 2.96-3.09 0.76-0.21 1.43 0.44 2.04 0.81 1.27 0.79 2.31 1.96 3.81 2.31 2.1 0.81 4.41 1.2 6.62 0.63 0.49-0.13 0.99-0.31 1.47-0.5 0.43 1.03 1.32 1.65 2.03 1.4 0.75-0.26 1.02-1.4 0.63-2.53-0.4-1.12-1.35-1.83-2.1-1.56-0.49 0.17-0.75 0.73-0.78 1.4-0.98 0.14-1.87 0.62-2.84 0.79-0.52-0.76 0.04-1.74-0.09-2.6 0.97-0.02 1.78-0.5 1.87-1.19 0.1-0.78-0.78-1.57-1.97-1.71-1.18-0.15-2.24 0.39-2.34 1.18-0.08 0.64 0.5 1.24 1.34 1.53-0.33 0.77-0.06 2.05-1.03 2.32-1.07 0.22-2.12-0.29-3-0.88-1.29-0.89-2.64-1.71-4.03-2.4-1.07-0.72-0.73-2.26-0.66-3.38 0.1-1.29 0.42-2.89 1.75-3.37 0.11 1.03 0.69 1.81 1.41 1.81 0.79 0 1.44-0.96 1.44-2.16 0-1.19-0.65-2.15-1.44-2.15-0.74 0-1.32 0.83-1.41 1.9-0.13-0.14-0.32-0.25-0.5-0.22-0.41-0.12-1.3 0.75-0.93-0.06l0.03-0.12c0.68-0.24 1.15-0.75 1.15-1.32 0-0.79-0.92-1.43-2.06-1.43-0.57 0-1.06 0.17-1.44 0.43-0.18 0.13-0.36 0.27-0.47 0.44-0.1 0.17-0.15 0.36-0.15 0.56 0 0.76 0.84 1.38 1.9 1.44-0.07 0.24-0.13 0.49-0.21 0.69-0.76 2.36-0.15 5.09-1.69 7.19-1.55 2.18-3.56 4.09-5.88 5.46-2.95 1.86-6.02 3.66-9.37 4.66-1.56 0.25-3.14-0.87-3.38-2.44-0.37-1.1-1.56-1.75-1.97-2.87-0.42-2.91-0.89-5.8-1.12-8.72-0.36-1.87-0.99-3.7-1.31-5.56 0.26-1.52 1.37-2.82 2.68-3.53 0.72-0.45 1.37 0.16 1.85 0.65 0.55 0.61 1.41 0.76 1.84 1.5 0.16 0.23 0.16 0.62 0.25 0.91-0.9 0.36-1.5 1.08-1.34 1.75 0.18 0.77 1.27 1.18 2.44 0.9 1.16-0.27 1.96-1.13 1.78-1.9-0.14-0.6-0.84-0.99-1.69-1 0.06-0.14 0.13-0.28 0.28-0.35 0.48-0.6 1.42-0.79 1.94-1.34 0.91 0.72 2.03 0.82 2.53 0.22 0.5-0.62 0.17-1.71-0.75-2.47s-2.09-0.86-2.59-0.25c-0.13 0.15-0.2 0.33-0.22 0.53-0.03 0.2-0.01 0.43 0.06 0.66 0.02 0.06 0.04 0.12 0.06 0.19-0.71 0.52-1.52 1.01-2.4 0.62-0.75-0.31-1.18-1-1.69-1.5-0.9-0.61-1.77-1.36-2.28-2.31-0.35-0.61 0.25-1.06 0.81-1.06 0.74-0.15 1.54-0.3 2.22-0.66 0.67 0.79 1.59 1.12 2.19 0.72 0.65-0.45 0.66-1.61 0-2.6-0.59-0.86-1.5-1.32-2.16-1.12-0.1 0.03-0.17 0.07-0.25 0.12-0.08 0.06-0.16 0.15-0.22 0.22-0.2 0.25-0.3 0.58-0.28 0.97-1.09 0.3-1.94 1.35-3.09 1.41 0.54-0.77 0.62-1.62 0.15-2.1-0.56-0.56-1.68-0.36-2.53 0.47-0.32 0.32-0.55 0.68-0.69 1.03-0.04 0.12-0.1 0.23-0.12 0.35-0.1 0.46 0 0.9 0.28 1.19 0.42 0.43 1.19 0.37 1.91-0.04 0.27 1.05 1.13 2.05 0.65 3.13-0.88 1.16-1.97 2.24-3.19 3.06-1.71 0.36-3.14-0.93-4.46-1.81-2.33-1.5-5.09-2.24-7.32-3.91-0.46-0.41-0.95-0.79-1.12-1.43-0.04-0.12-0.08-0.26-0.13-0.38 0.88-0.46 1.39-1.25 1.16-1.91-0.2-0.56-0.88-0.86-1.69-0.81z"/>
    <path id="path4695" opacity=".77778" d="m328.82 471.43c0 2.93-3 6.14-6.48 6.14-3.49 0-6.32-2.37-6.32-5.3s3-6.14 6.48-6.14c1.75 0 3.33 0.59 4.47 1.55s1.85 2.29 1.85 3.75z" fill-rule="evenodd" stroke="#532e83" stroke-width=".57448" fill="#503282"/>
    <path id="path4697" opacity=".77061" d="m-75.609 3.1476c0 2.2099-8.504 6.532-16.646 6.532-8.145 0-13.485-7.6935-13.485-9.9034 0-2.21 4.5 4.4249 12.642 4.4249s17.489-3.2635 17.489-1.0535z" fill-rule="evenodd" transform="matrix(.26530 0 0 .23312 345.8 475.12)" filter="url(#filter15084)" fill="url(#radialGradient2723)"/>
    <path id="path4699" opacity=".77061" d="m-14.503 59.408c0 2.209-8.504 6.532-16.646 6.532s-13.485-7.694-13.485-9.904 4.5 4.425 12.642 4.425 17.489-3.263 17.489-1.053z" fill-rule="evenodd" transform="matrix(.18636 -.16592 .18883 .16375 321.88 461.31)" filter="url(#filter15084)" fill="url(#radialGradient2721)"/>
    <path id="path4701" opacity=".77061" d="m-75.609 3.1476c0 2.2099-8.504 6.532-16.646 6.532-8.145 0-13.485-7.6935-13.485-9.9034 0-2.21 4.5 4.4249 12.642 4.4249s17.489-3.2635 17.489-1.0535z" fill-rule="evenodd" transform="matrix(.26530 0 0 .23312 345.8 475.12)" filter="url(#filter15084)" fill="url(#radialGradient2723)"/>
    <path id="path4703" opacity=".77061" d="m-75.609 3.1476c0 2.2099-8.504 6.532-16.646 6.532-8.145 0-13.485-7.6935-13.485-9.9034 0-2.21 4.5 4.4249 12.642 4.4249s17.489-3.2635 17.489-1.0535z" fill-rule="evenodd" transform="matrix(.26530 0 0 .23312 345.8 475.12)" filter="url(#filter15084)" fill="url(#radialGradient2723)"/>
    <path id="path4705" opacity=".806" d="m329.23 471.48c0 3.24-3.19 6.8-6.9 6.8s-6.72-2.63-6.72-5.88c0-3.24 3.19-6.8 6.9-6.8 1.85 0 3.54 0.66 4.75 1.72 1.22 1.06 1.97 2.53 1.97 4.16z" fill-rule="evenodd" fill-opacity=".20635" fill="#ffd5d5"/>
    <path id="path3746" filter="url(#filter3615)" fill="none" d="m315.72 439.38c-0.01 2.56 2.07 0.23 3.65 0.71 2.52 0.97 4.74 1.81 6.41 2.9 3.14 2.2 5.07 3.12 6.32 7.39 0.41 2.53 0.95 6.02 0.59 8.66-0.11 1.17-1.77 3.16-2.59 4.06-1.21 1.43-3.29 1.84-5.16 1.82-1.78-0.06-3.76 0.46-5.51 0.11-2.11-0.44-6.91-0.98-8.77-2.04-3.33-1.81-2.37-1.55-3.66-5.95-2.16-0.81-2.75-6.08-3.69-7.73-0.59-0.29-1.24 0.42-1.02 0.95 0.06 1.54 1.71 3.5 0.5 4.71-0.76 0.74-3.87 0.35-4.41-0.55-0.39-0.49-1.04-1.09-1.75-0.76-0.76 0.28-1.29 1.36-0.63 1.96 1.22 0.71 3.11 1.44 4.45 1.87 0.92 0.23 2.35-0.44 3.28-0.15s1.78 1.74 2.35 2.5c0.53 2.33 1.04 6-1.77 6.2-1.1 1.12-3.09 2.31-4.67 1.8-1.8 0.7-2.28-3.59-3.88-1.82-0.23-0.27-0.92-0.04-0.58 0.3 0.72 0.57 2.57 2.01 2.11 2.89-0.18 0.4-1.85 0.4-2.36 0.26-0.52 0.15-0.24 2.14 0.27 2.04 3.39-0.11 5.3-1.12 7.72-2.03 2.94-0.97 4.45-3.11 7.1-3.52 2.52-0.28 7.11 0.74 9.64 1.58 0.98 0.06 1.98 0.52 2.43 1.37 0.9 1.32 0.72 2.95 0.65 4.44-0.21 2.1-0.39 4.33-1.71 6.12-1.24 1.6-3.34 2.25-5.26 2.89-4.26 1.42-8.87 1.83-13.36 1.35-1.33-0.13-2.7-0.23-3.94-0.72-1.86-0.91-3.16-2.51-4.88-3.6-1.79-1.32-3.74-2.46-5.85-3.29-0.23-0.25-0.77-0.51-1.03-0.18-0.1 0.51-0.04 1.76 0.34 1.98 2.51 1.7 5.98 2.71 7.23 5.43 0.56 0.86-0.2 2.23-1.32 2.47-1.88 0.5-3.86 0.27-5.79 0.38-0.62-0.01-1.26 0.11-1.86 0-0.45 0.13-1.19 2.31-0.65 2.18 4.43 0.36 11.06-0.25 12.27-2.59 2.64-1 5.27-0.41 6.4 0.22 0.8 1.28-1.08 2.69-4.35 5.62-0.67 1.22-2.08 1.94-1.45 3.08 0.18 0.39 0.55 0.82 1.03 0.54 0.68-0.35 1-1.07 1.53-1.57 2.31-2.63 4.71-5.31 7.89-7.07 2.89-1.48 6.23-1.35 9.33-2.26 2.05-0.51 4.08-1.55 6.19-1.78 1.42 0.02 7.38-0.07 7.95 1.17 1.12 1.83-0.19 4.93-0.5 6.59-0.64 5.32-0.67 8.6-7.54 14.65-2.13 2.07-3.68 0.25-6.76 0.29-0.38 0.11-1.09-0.15-1.24 0.22 0.02 0.49-0.14 1.56 0.26 1.56 4.98-0.36 4.32 0.25 3.22 2.03-0.55 1.21 0.04 0.95 0.53 1.11 1.3-0.2 1.94-1.41 2.89-2.12 2.65-2.35 7.37-6.25 8.81-9.66 1.85-0.41 2.34 1.68 5.73 3.96 1.37 1.68-0.11 4.23 1.35 5.85 0.56 0.29 2.19 0.58 1.28-1.12-0.18-0.7-1.06-2.22-0.41-2.78 0.68-0.32 2.58 0.98 3.77 1.4 1.75 0.62-0.22 2.41 0.44 2.64 0.33 0.89 1.95-0.24 2.29-1.55 0.96 0.13 1.87-0.34 2.84-0.59-0.07-3.71-1.83-1.05-2.73-1.07-2.04-0.98-4.05-2.02-6.02-3.12-1.98-1.09-3.3-2.64-5.22-3.82-0.67-1.86-2.5-1.61-2.21-4.14 0.22-2.95 1.12-5.41 1.82-8.79 0.97-1.87 2.41-3.51 4.11-4.84 1.19-0.96 2.6-1.74 4.19-1.96 1.21-0.21 2.44-1.25 3.57-0.8 2.21 0.75 5.48 2.11 7.8 2.51 3.04 0.68 8.22 1 10.4 0.5 0.51 1.62 1.84 8.91 1.84 9.6-1.61 2.03-2.53 2.13-3.77 3.53-3.46 2.89-4.46 3.18-6.48 2.31-0.84 2.77 0.99 0.64 2.18 2.97 1.74-0.23 1.3-1.48 2.23-2.1 1.41-0.94 4.63-3.55 4.92-3.74 2.41-2.46 3.35-1.51 3.99-0.24 0.72 1.88-0.1 3.8-0.41 6.02 0.5 0.27 1.44 0.22 1.82-2.34 0.73-3.97-0.7-5.27-2.6-6.84-1.07-1.59-1.4-4.38-1.64-6.41-0.14-1.11 0.17-1.81 0.04-2.92 2.81-0.49 7.05 1.33 9.12 1.95-0.53 1.97 2.36 1.38 1.9-0.05 0.66-0.1 1.43-1.29 0.95-1.85-0.69-0.82-1.81 1.15-3.31 0.07-2.99-1.38-5.83-1.12-6.8-2.2 1.61-1.32 3.88-3.92 4.88-4.82 1.68-1.9 3.83-3.42 5.19-5.56 0.26-0.71-1.04-1.27-1.43-0.59-3.42 3.43-4.79 5.44-7.76 8.19-1.28 1.43-3.15 2.98-5.21 3.2-2.76 0.46-6.21-0.19-8.97-0.58-2.06-0.27-4.08-0.85-5.93-1.75-1.22-0.65-2.45-1.42-3.19-2.57-0.92-1.38-1.1-3.13-0.7-4.7 0.32-1.25-0.25-3.34 0.85-4.1 1.44-1.86 3.97-2.69 5.91-4.02 2.4-2.09 3.37-2.63 5.69-5.43 0.9-0.44 3.95 2.52 4.83 2.78 1.56 0.51 3.1 1.18 4.77 1.22 1.66 0.11 3.33-0.27 4.81-0.94 0.55 0.17 0.42-1.38-0.18-1.34-1.16-0.03-2.46 0.73-3.36 0.82-0.48-0.57 0.53-3.13-0.47-3.21-1.89-0.14 0 3.42-2.8 2.75-0.94 0.11-3.77-2.28-4.68-2.57-1.18-0.75-2.02-0.59-1.97-2.62 0.11-3.43 0.76-4.26 1.83-4.68 0.54-0.29-0.08-1.45-1.45-0.7 0.3-1.3-0.3-1.01-0.92-0.92-1.2 2.65-0.71 4.36-1.36 6.83-0.39 1.48-1.85 3.09-2.97 4.25-1.51 1.62-3.51 2.74-5.41 3.93-2.36 1.4-4.82 2.71-7.47 3.55-1.53 0.33-3.15-0.8-3.4-2.22-0.19-1.05-1.85-2.11-2.03-3.16-0.34-2.68-0.78-4.94-0.98-7.64-0.08-1.49-0.77-3.62-1.41-6.34 0.14-1.41 1.53-3.13 2.89-3.63 0.82-0.33 1.35 0.84 2.42 1.43 1.92 0.93 0.22 2.46 2.3 1.98 0.25-1.9 3.92-1.66 2.33-3.65-0.82-1.04-2.16 3.05-4.86-0.71-0.77-0.45-2.65-2-2.4-2.78 0.13-0.67 3.01-0.29 4.11-1.99-1.81-3.02-3.93 1.62-5.79 0.19-1.13 1.08 1.34 3.27 0.34 4.44-0.75 1.06-1.88 2.08-2.95 2.88-1.07 0.33-2.29-0.26-3.34-1-2.92-2.28-6.52-2.94-8.87-5.07-0.86-0.49-0.58-2.64-2.04-1.92-0.55 0.51-0.32 1.75 0.23 2.45 0.15 0.69-0.19 0.85-1.46 1.27z"/>
    <path id="path3806" opacity=".5" d="m220.92 470.57a1.4413 2.1619 0 1 1 -2.88 0 1.4413 2.1619 0 1 1 2.88 0z" transform="matrix(.86824 .49614 -.49614 .86824 329.85 -64.379)" filter="url(#filter5024)" fill="url(#radialGradient4348)"/>
    <path id="path3808" opacity=".5" d="m220.92 470.57a1.4413 2.1619 0 1 1 -2.88 0 1.4413 2.1619 0 1 1 2.88 0z" transform="matrix(.35651 .93429 -.93429 .35651 654.53 75.524)" filter="url(#filter5020)" fill="url(#radialGradient4348)"/>
    <path id="path3810" opacity=".5" d="m220.92 470.57a1.4413 2.1619 0 1 1 -2.88 0 1.4413 2.1619 0 1 1 2.88 0z" transform="matrix(.90004 -.43581 .43581 .90004 -96.314 111.41)" filter="url(#filter5016)" fill="url(#radialGradient4348)"/>
    <path id="path3812" opacity=".5" d="m220.92 470.57a1.4413 2.1619 0 1 1 -2.88 0 1.4413 2.1619 0 1 1 2.88 0z" transform="matrix(.33634 .94174 -.94174 .33634 677.9 68.968)" filter="url(#filter5012)" fill="url(#radialGradient4348)"/>
    <path id="path3814" opacity=".5" d="m220.92 470.57a1.4413 2.1619 0 1 1 -2.88 0 1.4413 2.1619 0 1 1 2.88 0z" transform="matrix(.82844 -.56007 .56007 .82844 -114.57 167.84)" filter="url(#filter5008)" fill="url(#radialGradient4348)"/>
    <path id="path3816" opacity=".5" d="m220.92 470.57a1.4413 2.1619 0 1 1 -2.88 0 1.4413 2.1619 0 1 1 2.88 0z" transform="matrix(.70185 .71233 -.71233 .70185 505.78 -51.648)" filter="url(#filter5004)" fill="url(#radialGradient4348)"/>
    <path id="path3818" opacity=".5" d="m220.92 470.57a1.4413 2.1619 0 1 1 -2.88 0 1.4413 2.1619 0 1 1 2.88 0z" transform="matrix(.63474 -.77273 .77273 .63474 -168.01 311.64)" filter="url(#filter5000)" fill="url(#radialGradient4348)"/>
    <path id="path3820" opacity=".5" d="m220.92 470.57a1.4413 2.1619 0 1 1 -2.88 0 1.4413 2.1619 0 1 1 2.88 0z" transform="matrix(-.22723 -.97384 .97384 -.22723 -76.959 765.72)" filter="url(#filter4996)" fill="url(#radialGradient4348)"/>
    <path id="path3822" opacity=".5" d="m220.92 470.57a1.4413 2.1619 0 1 1 -2.88 0 1.4413 2.1619 0 1 1 2.88 0z" transform="translate(133.36 -24.177)" filter="url(#filter4992)" fill="url(#radialGradient4348)"/>
    <path id="path3825" opacity=".5" d="m220.92 470.57a1.4413 2.1619 0 1 1 -2.88 0 1.4413 2.1619 0 1 1 2.88 0z" transform="matrix(1.4286 0 0 .66667 35.585 130.72)" filter="url(#filter4988)" fill="url(#radialGradient4348)"/>
    <path id="path3827" opacity=".5" d="m220.92 470.57a1.4413 2.1619 0 1 1 -2.88 0 1.4413 2.1619 0 1 1 2.88 0z" transform="matrix(.12403 -.99228 .99228 .12403 -134.94 612.6)" filter="url(#filter4984)" fill="url(#radialGradient4348)"/>
    <path id="path3829" opacity=".5" d="m220.92 470.57a1.4413 2.1619 0 1 1 -2.88 0 1.4413 2.1619 0 1 1 2.88 0z" transform="matrix(.94299 -.33282 .33282 .94299 .37219 86.404)" filter="url(#filter4980)" fill="url(#radialGradient4348)"/>
    <path id="path3831" opacity=".5" d="m220.92 470.57a1.4413 2.1619 0 1 1 -2.88 0 1.4413 2.1619 0 1 1 2.88 0z" transform="matrix(.72531 -.68843 .68843 .72531 -114.04 276.98)" filter="url(#filter4976)" fill="url(#radialGradient4348)"/>
    <path id="path3833" opacity=".5" d="m220.92 470.57a1.4413 2.1619 0 1 1 -2.88 0 1.4413 2.1619 0 1 1 2.88 0z" transform="matrix(.79843 -.60209 .60209 .79843 -88.226 235.56)" filter="url(#filter4972)" fill="url(#radialGradient4348)"/>
    <path id="path3835" opacity=".5" d="m220.92 470.57a1.4413 2.1619 0 1 1 -2.88 0 1.4413 2.1619 0 1 1 2.88 0z" transform="matrix(.60552 -.79583 .79583 .60552 -140.35 373.39)" filter="url(#filter4968)" fill="url(#radialGradient4348)"/>
    <path id="path3837" opacity=".5" d="m220.92 470.57a1.4413 2.1619 0 1 1 -2.88 0 1.4413 2.1619 0 1 1 2.88 0z" transform="matrix(-.21458 -.97671 .97671 -.21458 -51.847 813.41)" filter="url(#filter4964)" fill="url(#radialGradient4348)"/>
    <path id="path3839" opacity=".5" d="m220.92 470.57a1.4413 2.1619 0 1 1 -2.88 0 1.4413 2.1619 0 1 1 2.88 0z" transform="matrix(-.046004 -.99894 .99894 -.046004 -109.81 739.38)" filter="url(#filter4960)" fill="url(#radialGradient4348)"/>
    <path id="path3841" opacity=".5" d="m220.92 470.57a1.4413 2.1619 0 1 1 -2.88 0 1.4413 2.1619 0 1 1 2.88 0z" transform="matrix(.90084 .43414 -.43414 .90084 353.23 -23.596)" filter="url(#filter4956)" fill="url(#radialGradient4348)"/>
    <path id="path3843" opacity=".5" d="m220.92 470.57a1.4413 2.1619 0 1 1 -2.88 0 1.4413 2.1619 0 1 1 2.88 0z" transform="translate(120.59 33.061)" filter="url(#filter4952)" fill="url(#radialGradient4348)"/>
    <path id="path3845" opacity=".5" d="m220.92 470.57a1.4413 2.1619 0 1 1 -2.88 0 1.4413 2.1619 0 1 1 2.88 0z" transform="matrix(.23436 -.97215 .97215 .23436 -173.97 611.45)" filter="url(#filter4948)" fill="url(#radialGradient4348)"/>
    <path id="path3847" opacity=".5" d="m220.92 470.57a1.4413 2.1619 0 1 1 -2.88 0 1.4413 2.1619 0 1 1 2.88 0z" transform="matrix(.0060974 -.99998 .99998 .0060974 -142.12 724.15)" filter="url(#filter4944)" fill="url(#radialGradient4348)"/>
    <path id="path3849" opacity=".5" d="m220.92 470.57a1.4413 2.1619 0 1 1 -2.88 0 1.4413 2.1619 0 1 1 2.88 0z" transform="matrix(.76549 -.64345 .64345 .76549 -159.96 290.2)" filter="url(#filter4940)" fill="url(#radialGradient4348)"/>
    <path id="path3851" opacity=".5" d="m220.92 470.57a1.4413 2.1619 0 1 1 -2.88 0 1.4413 2.1619 0 1 1 2.88 0z" transform="matrix(.97458 .22404 -.22404 .97458 198.24 -2.9149)" filter="url(#filter4936)" fill="url(#radialGradient4348)"/>
    <path id="path3853" opacity=".5" d="m220.92 470.57a1.4413 2.1619 0 1 1 -2.88 0 1.4413 2.1619 0 1 1 2.88 0z" transform="matrix(.73994 -.67267 .67267 .73994 -190.75 293.19)" filter="url(#filter4932)" fill="url(#radialGradient4348)"/>
    <path id="path3855" opacity=".5" d="m220.92 470.57a1.4413 2.1619 0 1 1 -2.88 0 1.4413 2.1619 0 1 1 2.88 0z" transform="translate(55.528 15.56)" filter="url(#filter4928)" fill="url(#radialGradient4348)"/>
    <path id="path3857" opacity=".5" d="m220.92 470.57a1.4413 2.1619 0 1 1 -2.88 0 1.4413 2.1619 0 1 1 2.88 0z" transform="matrix(.86824 .49614 -.49614 .86824 320.59 -42.04)" filter="url(#filter4924)" fill="url(#radialGradient4348)"/>
    <path id="path3859" opacity=".5" d="m220.92 470.57a1.4413 2.1619 0 1 1 -2.88 0 1.4413 2.1619 0 1 1 2.88 0z" transform="matrix(.90004 -.43581 .43581 .90004 -116.7 141.98)" filter="url(#filter4920)" fill="url(#radialGradient4348)"/>
    <path id="path3861" opacity=".5" d="m220.92 470.57a1.4413 2.1619 0 1 1 -2.88 0 1.4413 2.1619 0 1 1 2.88 0z" transform="matrix(.70185 .71233 -.71233 .70185 468.52 -22.102)" filter="url(#filter4916)" fill="url(#radialGradient4348)"/>
    <path id="path3865" opacity=".5" d="m220.92 470.57a1.4413 2.1619 0 1 1 -2.88 0 1.4413 2.1619 0 1 1 2.88 0z" transform="matrix(.86824 .49614 -.49614 .86824 329.85 -64.379)" filter="url(#filter4912)" fill="url(#radialGradient4348)"/>
    <path id="path3867" opacity=".5" d="m220.92 470.57a1.4413 2.1619 0 1 1 -2.88 0 1.4413 2.1619 0 1 1 2.88 0z" transform="matrix(.35651 .93429 -.93429 .35651 654.53 75.524)" filter="url(#filter4908)" fill="url(#radialGradient4348)"/>
    <path id="path3869" opacity=".5" d="m220.92 470.57a1.4413 2.1619 0 1 1 -2.88 0 1.4413 2.1619 0 1 1 2.88 0z" transform="matrix(.90004 -.43581 .43581 .90004 -96.314 111.41)" filter="url(#filter4904)" fill="url(#radialGradient4348)"/>
    <path id="path3871" opacity=".5" d="m220.92 470.57a1.4413 2.1619 0 1 1 -2.88 0 1.4413 2.1619 0 1 1 2.88 0z" transform="matrix(.33634 .94174 -.94174 .33634 677.9 68.968)" filter="url(#filter4900)" fill="url(#radialGradient4348)"/>
    <path id="path3873" opacity=".5" d="m220.92 470.57a1.4413 2.1619 0 1 1 -2.88 0 1.4413 2.1619 0 1 1 2.88 0z" transform="matrix(.82844 -.56007 .56007 .82844 -114.57 167.84)" filter="url(#filter4896)" fill="url(#radialGradient4348)"/>
    <path id="path3875" opacity=".5" d="m220.92 470.57a1.4413 2.1619 0 1 1 -2.88 0 1.4413 2.1619 0 1 1 2.88 0z" transform="matrix(.70185 .71233 -.71233 .70185 505.78 -51.648)" filter="url(#filter4892)" fill="url(#radialGradient4348)"/>
    <path id="path3877" opacity=".5" d="m220.92 470.57a1.4413 2.1619 0 1 1 -2.88 0 1.4413 2.1619 0 1 1 2.88 0z" transform="matrix(.63474 -.77273 .77273 .63474 -168.01 311.64)" filter="url(#filter4888)" fill="url(#radialGradient4348)"/>
    <path id="path3879" opacity=".5" d="m220.92 470.57a1.4413 2.1619 0 1 1 -2.88 0 1.4413 2.1619 0 1 1 2.88 0z" transform="matrix(-.22723 -.97384 .97384 -.22723 -76.959 765.72)" filter="url(#filter4884)" fill="url(#radialGradient4348)"/>
    <path id="path3881" opacity=".5" d="m220.92 470.57a1.4413 2.1619 0 1 1 -2.88 0 1.4413 2.1619 0 1 1 2.88 0z" transform="translate(133.36 -24.177)" filter="url(#filter4880)" fill="url(#radialGradient4348)"/>
    <path id="path3883" opacity=".5" d="m220.92 470.57a1.4413 2.1619 0 1 1 -2.88 0 1.4413 2.1619 0 1 1 2.88 0z" transform="matrix(1.4286 0 0 .66667 35.585 130.72)" filter="url(#filter4876)" fill="url(#radialGradient4348)"/>
    <path id="path3885" opacity=".5" d="m220.92 470.57a1.4413 2.1619 0 1 1 -2.88 0 1.4413 2.1619 0 1 1 2.88 0z" transform="matrix(.12403 -.99228 .99228 .12403 -134.94 612.6)" filter="url(#filter4872)" fill="url(#radialGradient4348)"/>
    <path id="path3887" opacity=".5" d="m220.92 470.57a1.4413 2.1619 0 1 1 -2.88 0 1.4413 2.1619 0 1 1 2.88 0z" transform="matrix(.94299 -.33282 .33282 .94299 .37219 86.404)" filter="url(#filter4868)" fill="url(#radialGradient4348)"/>
    <path id="path3889" opacity=".5" d="m220.92 470.57a1.4413 2.1619 0 1 1 -2.88 0 1.4413 2.1619 0 1 1 2.88 0z" transform="matrix(.72531 -.68843 .68843 .72531 -114.04 276.98)" filter="url(#filter4864)" fill="url(#radialGradient4348)"/>
    <path id="path3891" opacity=".5" d="m220.92 470.57a1.4413 2.1619 0 1 1 -2.88 0 1.4413 2.1619 0 1 1 2.88 0z" transform="matrix(.79843 -.60209 .60209 .79843 -88.226 235.56)" filter="url(#filter4860)" fill="url(#radialGradient4348)"/>
    <path id="path3893" opacity=".5" d="m220.92 470.57a1.4413 2.1619 0 1 1 -2.88 0 1.4413 2.1619 0 1 1 2.88 0z" transform="matrix(.60552 -.79583 .79583 .60552 -140.35 373.39)" filter="url(#filter4856)" fill="url(#radialGradient4348)"/>
    <path id="path3895" opacity=".5" d="m220.92 470.57a1.4413 2.1619 0 1 1 -2.88 0 1.4413 2.1619 0 1 1 2.88 0z" transform="matrix(-.21458 -.97671 .97671 -.21458 -51.847 813.41)" filter="url(#filter4852)" fill="url(#radialGradient4348)"/>
    <path id="path3897" opacity=".5" d="m220.92 470.57a1.4413 2.1619 0 1 1 -2.88 0 1.4413 2.1619 0 1 1 2.88 0z" transform="matrix(-.046004 -.99894 .99894 -.046004 -109.81 739.38)" filter="url(#filter4848)" fill="url(#radialGradient4348)"/>
    <path id="path3899" opacity=".5" d="m220.92 470.57a1.4413 2.1619 0 1 1 -2.88 0 1.4413 2.1619 0 1 1 2.88 0z" transform="matrix(.90084 .43414 -.43414 .90084 353.23 -23.596)" filter="url(#filter4844)" fill="url(#radialGradient4348)"/>
    <path id="path3901" opacity=".5" d="m220.92 470.57a1.4413 2.1619 0 1 1 -2.88 0 1.4413 2.1619 0 1 1 2.88 0z" transform="translate(120.59 33.061)" filter="url(#filter4840)" fill="url(#radialGradient4348)"/>
    <path id="path3903" opacity=".5" d="m220.92 470.57a1.4413 2.1619 0 1 1 -2.88 0 1.4413 2.1619 0 1 1 2.88 0z" transform="matrix(.23436 -.97215 .97215 .23436 -173.97 611.45)" filter="url(#filter4836)" fill="url(#radialGradient4348)"/>
    <path id="path3905" opacity=".5" d="m220.92 470.57a1.4413 2.1619 0 1 1 -2.88 0 1.4413 2.1619 0 1 1 2.88 0z" transform="matrix(.0060974 -.99998 .99998 .0060974 -142.12 724.15)" filter="url(#filter4832)" fill="url(#radialGradient4348)"/>
    <path id="path3907" opacity=".5" d="m220.92 470.57a1.4413 2.1619 0 1 1 -2.88 0 1.4413 2.1619 0 1 1 2.88 0z" transform="matrix(.76549 -.64345 .64345 .76549 -159.96 290.2)" filter="url(#filter4828)" fill="url(#radialGradient4348)"/>
    <path id="path3909" opacity=".5" d="m220.92 470.57a1.4413 2.1619 0 1 1 -2.88 0 1.4413 2.1619 0 1 1 2.88 0z" transform="matrix(.97458 .22404 -.22404 .97458 198.24 -2.9149)" filter="url(#filter4824)" fill="url(#radialGradient4348)"/>
    <path id="path3911" opacity=".5" d="m220.92 470.57a1.4413 2.1619 0 1 1 -2.88 0 1.4413 2.1619 0 1 1 2.88 0z" transform="matrix(.73994 -.67267 .67267 .73994 -190.75 293.19)" filter="url(#filter4820)" fill="url(#radialGradient4348)"/>
    <path id="path3913" opacity=".5" d="m220.92 470.57a1.4413 2.1619 0 1 1 -2.88 0 1.4413 2.1619 0 1 1 2.88 0z" transform="translate(55.528 15.56)" filter="url(#filter4816)" fill="url(#radialGradient4348)"/>
    <path id="path3915" opacity=".5" d="m220.92 470.57a1.4413 2.1619 0 1 1 -2.88 0 1.4413 2.1619 0 1 1 2.88 0z" transform="matrix(.86824 .49614 -.49614 .86824 320.59 -42.04)" filter="url(#filter4812)" fill="url(#radialGradient4348)"/>
    <path id="path3917" opacity=".5" d="m220.92 470.57a1.4413 2.1619 0 1 1 -2.88 0 1.4413 2.1619 0 1 1 2.88 0z" transform="matrix(.90004 -.43581 .43581 .90004 -116.7 141.98)" filter="url(#filter4808)" fill="url(#radialGradient4348)"/>
    <path id="path3919" opacity=".5" d="m220.92 470.57a1.4413 2.1619 0 1 1 -2.88 0 1.4413 2.1619 0 1 1 2.88 0z" transform="matrix(.70185 .71233 -.71233 .70185 468.52 -22.102)" filter="url(#filter4804)" fill="url(#radialGradient4348)"/>
  </g>
  <metadata>
    <rdf:RDF>
      <cc:Work>
        <dc:format>image/svg+xml</dc:format>
        <dc:type rdf:resource="http://purl.org/dc/dcmitype/StillImage"/>
        <cc:license rdf:resource="http://creativecommons.org/licenses/publicdomain/"/>
        <dc:publisher>
          <cc:Agent rdf:about="http://openclipart.org/">
            <dc:title>Openclipart</dc:title>
          </cc:Agent>
        </dc:publisher>
        <dc:title>neuron-</dc:title>
        <dc:date>2008-02-09T08:37:00</dc:date>
        <dc:description>scheme of an internuron</dc:description>
        <dc:source>http://openclipart.org/detail/13286/neuron-interneuron-by-keikannui</dc:source>
        <dc:creator>
          <cc:Agent>
            <dc:title>keikannui</dc:title>
          </cc:Agent>
        </dc:creator>
        <dc:subject>
          <rdf:Bag>
            <rdf:li>anatomy</rdf:li>
            <rdf:li>biology</rdf:li>
            <rdf:li>cell</rdf:li>
            <rdf:li>clip art</rdf:li>
            <rdf:li>clipart</rdf:li>
            <rdf:li>image</rdf:li>
            <rdf:li>media</rdf:li>
            <rdf:li>medical</rdf:li>
            <rdf:li>medicine</rdf:li>
            <rdf:li>neuron</rdf:li>
            <rdf:li>physiology</rdf:li>
            <rdf:li>png</rdf:li>
            <rdf:li>public domain</rdf:li>
            <rdf:li>science</rdf:li>
            <rdf:li>svg</rdf:li>
          </rdf:Bag>
        </dc:subject>
      </cc:Work>
      <cc:License rdf:about="http://creativecommons.org/licenses/publicdomain/">
        <cc:permits rdf:resource="http://creativecommons.org/ns#Reproduction"/>
        <cc:permits rdf:resource="http://creativecommons.org/ns#Distribution"/>
        <cc:permits rdf:resource="http://creativecommons.org/ns#DerivativeWorks"/>
      </cc:License>
    </rdf:RDF>
  </metadata>
</svg>
