<svg width="105.29" height="91.621" xmlns="http://www.w3.org/2000/svg" xmlns:xlink="http://www.w3.org/1999/xlink" version="1.0">
 <defs id="defs5031">
  <filter id="filter4170">
   <feGaussianBlur stdDeviation="0.44299" id="feGaussianBlur4172"/>
  </filter>
  <filter height="1.6366" x="-0.10938" width="1.2188" y="-0.31831" id="filter15084">
   <feGaussianBlur stdDeviation="1.37327" id="feGaussianBlur15086"/>
  </filter>
  <filter id="filter3615">
   <feGaussianBlur stdDeviation="0.2117" id="feGaussianBlur3617"/>
  </filter>
  <filter height="1.2646" x="-0.16129" width="1.3226" y="-0.1323" id="filter5024">
   <feGaussianBlur stdDeviation="0.2215" id="feGaussianBlur5026"/>
  </filter>
  <filter height="1.3426" x="-0.12751" width="1.255" y="-0.1713" id="filter5020">
   <feGaussianBlur stdDeviation="0.2215" id="feGaussianBlur5022"/>
  </filter>
  <filter height="1.2599" x="-0.1658" width="1.3316" y="-0.12997" id="filter5016">
   <feGaussianBlur stdDeviation="0.2215" id="feGaussianBlur5018"/>
  </filter>
  <filter height="1.3452" x="-0.12698" width="1.254" y="-0.1726" id="filter5012">
   <feGaussianBlur stdDeviation="0.2215" id="feGaussianBlur5014"/>
  </filter>
  <filter height="1.2706" x="-0.15633" width="1.3127" y="-0.13528" id="filter5008">
   <feGaussianBlur stdDeviation="0.2215" id="feGaussianBlur5010"/>
  </filter>
  <filter height="1.2902" x="-0.14426" width="1.2885" y="-0.14509" id="filter5004">
   <feGaussianBlur stdDeviation="0.2215" id="feGaussianBlur5006"/>
  </filter>
  <filter height="1.3008" x="-0.13954" width="1.2791" y="-0.15041" id="filter5000">
   <feGaussianBlur stdDeviation="0.2215" id="feGaussianBlur5002"/>
  </filter>
  <filter height="1.3574" x="-0.12473" width="1.2495" y="-0.17871" id="filter4996">
   <feGaussianBlur stdDeviation="0.2215" id="feGaussianBlur4998"/>
  </filter>
  <filter height="1.2459" x="-0.18442" width="1.3688" y="-0.12295" id="filter4992">
   <feGaussianBlur stdDeviation="0.2215" id="feGaussianBlur4994"/>
  </filter>
  <filter height="1.252" x="-0.18898" width="1.378" y="-0.12598" id="filter4988">
   <feGaussianBlur stdDeviation="0.22697" id="feGaussianBlur4990"/>
  </filter>
  <filter height="1.3653" x="-0.12347" width="1.2469" y="-0.18264" id="filter4984">
   <feGaussianBlur stdDeviation="0.2215" id="feGaussianBlur4986"/>
  </filter>
  <filter height="1.2538" x="-0.17283" width="1.3457" y="-0.12689" id="filter4980">
   <feGaussianBlur stdDeviation="0.2215" id="feGaussianBlur4982"/>
  </filter>
  <filter height="1.2865" x="-0.14615" width="1.2923" y="-0.14324" id="filter4976">
   <feGaussianBlur stdDeviation="0.2215" id="feGaussianBlur4978"/>
  </filter>
  <filter height="1.2751" x="-0.15301" width="1.306" y="-0.13756" id="filter4972">
   <feGaussianBlur stdDeviation="0.2215" id="feGaussianBlur4974"/>
  </filter>
  <filter height="1.3055" x="-0.13776" width="1.2755" y="-0.15274" id="filter4968">
   <feGaussianBlur stdDeviation="0.2215" id="feGaussianBlur4970"/>
  </filter>
  <filter height="1.3586" x="-0.12454" width="1.2491" y="-0.17929" id="filter4964">
   <feGaussianBlur stdDeviation="0.2215" id="feGaussianBlur4966"/>
  </filter>
  <filter height="1.3683" x="-0.12302" width="1.246" y="-0.18417" id="filter4960">
   <feGaussianBlur stdDeviation="0.2215" id="feGaussianBlur4962"/>
  </filter>
  <filter height="1.2598" x="-0.16592" width="1.3318" y="-0.12991" id="filter4956">
   <feGaussianBlur stdDeviation="0.2215" id="feGaussianBlur4958"/>
  </filter>
  <filter height="1.2459" x="-0.18442" width="1.3688" y="-0.12295" id="filter4952">
   <feGaussianBlur stdDeviation="0.2215" id="feGaussianBlur4954"/>
  </filter>
  <filter height="1.3567" x="-0.12485" width="1.2497" y="-0.17836" id="filter4948">
   <feGaussianBlur stdDeviation="0.2215" id="feGaussianBlur4950"/>
  </filter>
  <filter height="1.3688" x="-0.12295" width="1.2459" y="-0.18442" id="filter4944">
   <feGaussianBlur stdDeviation="0.2215" id="feGaussianBlur4946"/>
  </filter>
  <filter height="1.2802" x="-0.14972" width="1.2994" y="-0.1401" id="filter4940">
   <feGaussianBlur stdDeviation="0.2215" id="feGaussianBlur4942"/>
  </filter>
  <filter height="1.2494" x="-0.17886" width="1.3577" y="-0.12468" id="filter4936">
   <feGaussianBlur stdDeviation="0.2215" id="feGaussianBlur4938"/>
  </filter>
  <filter height="1.2842" x="-0.1474" width="1.2948" y="-0.14209" id="filter4932">
   <feGaussianBlur stdDeviation="0.2215" id="feGaussianBlur4934"/>
  </filter>
  <filter height="1.2459" x="-0.18442" width="1.3688" y="-0.12295" id="filter4928">
   <feGaussianBlur stdDeviation="0.2215" id="feGaussianBlur4930"/>
  </filter>
  <filter height="1.2646" x="-0.16129" width="1.3226" y="-0.1323" id="filter4924">
   <feGaussianBlur stdDeviation="0.2215" id="feGaussianBlur4926"/>
  </filter>
  <filter height="1.2599" x="-0.1658" width="1.3316" y="-0.12997" id="filter4920">
   <feGaussianBlur stdDeviation="0.2215" id="feGaussianBlur4922"/>
  </filter>
  <filter height="1.2902" x="-0.14426" width="1.2885" y="-0.14509" id="filter4916">
   <feGaussianBlur stdDeviation="0.2215" id="feGaussianBlur4918"/>
  </filter>
  <filter height="1.2646" x="-0.16129" width="1.3226" y="-0.1323" id="filter4912">
   <feGaussianBlur stdDeviation="0.2215" id="feGaussianBlur4914"/>
  </filter>
  <filter height="1.3426" x="-0.12751" width="1.255" y="-0.1713" id="filter4908">
   <feGaussianBlur stdDeviation="0.2215" id="feGaussianBlur4910"/>
  </filter>
  <filter height="1.2599" x="-0.1658" width="1.3316" y="-0.12997" id="filter4904">
   <feGaussianBlur stdDeviation="0.2215" id="feGaussianBlur4906"/>
  </filter>
  <filter height="1.3452" x="-0.12698" width="1.254" y="-0.1726" id="filter4900">
   <feGaussianBlur stdDeviation="0.2215" id="feGaussianBlur4902"/>
  </filter>
  <filter height="1.2706" x="-0.15633" width="1.3127" y="-0.13528" id="filter4896">
   <feGaussianBlur stdDeviation="0.2215" id="feGaussianBlur4898"/>
  </filter>
  <filter height="1.2902" x="-0.14426" width="1.2885" y="-0.14509" id="filter4892">
   <feGaussianBlur stdDeviation="0.2215" id="feGaussianBlur4894"/>
  </filter>
  <filter height="1.3008" x="-0.13954" width="1.2791" y="-0.15041" id="filter4888">
   <feGaussianBlur stdDeviation="0.2215" id="feGaussianBlur4890"/>
  </filter>
  <filter height="1.3574" x="-0.12473" width="1.2495" y="-0.17871" id="filter4884">
   <feGaussianBlur stdDeviation="0.2215" id="feGaussianBlur4886"/>
  </filter>
  <filter height="1.2459" x="-0.18442" width="1.3688" y="-0.12295" id="filter4880">
   <feGaussianBlur stdDeviation="0.2215" id="feGaussianBlur4882"/>
  </filter>
  <filter height="1.252" x="-0.18898" width="1.378" y="-0.12598" id="filter4876">
   <feGaussianBlur stdDeviation="0.22697" id="feGaussianBlur4878"/>
  </filter>
  <filter height="1.3653" x="-0.12347" width="1.2469" y="-0.18264" id="filter4872">
   <feGaussianBlur stdDeviation="0.2215" id="feGaussianBlur4874"/>
  </filter>
  <filter height="1.2538" x="-0.17283" width="1.3457" y="-0.12689" id="filter4868">
   <feGaussianBlur stdDeviation="0.2215" id="feGaussianBlur4870"/>
  </filter>
  <filter height="1.2865" x="-0.14615" width="1.2923" y="-0.14324" id="filter4864">
   <feGaussianBlur stdDeviation="0.2215" id="feGaussianBlur4866"/>
  </filter>
  <filter height="1.2751" x="-0.15301" width="1.306" y="-0.13756" id="filter4860">
   <feGaussianBlur stdDeviation="0.2215" id="feGaussianBlur4862"/>
  </filter>
  <filter height="1.3055" x="-0.13776" width="1.2755" y="-0.15274" id="filter4856">
   <feGaussianBlur stdDeviation="0.2215" id="feGaussianBlur4858"/>
  </filter>
  <filter height="1.3586" x="-0.12454" width="1.2491" y="-0.17929" id="filter4852">
   <feGaussianBlur stdDeviation="0.2215" id="feGaussianBlur4854"/>
  </filter>
  <filter height="1.3683" x="-0.12302" width="1.246" y="-0.18417" id="filter4848">
   <feGaussianBlur stdDeviation="0.2215" id="feGaussianBlur4850"/>
  </filter>
  <filter height="1.2598" x="-0.16592" width="1.3318" y="-0.12991" id="filter4844">
   <feGaussianBlur stdDeviation="0.2215" id="feGaussianBlur4846"/>
  </filter>
  <filter height="1.2459" x="-0.18442" width="1.3688" y="-0.12295" id="filter4840">
   <feGaussianBlur stdDeviation="0.2215" id="feGaussianBlur4842"/>
  </filter>
  <filter height="1.3567" x="-0.12485" width="1.2497" y="-0.17836" id="filter4836">
   <feGaussianBlur stdDeviation="0.2215" id="feGaussianBlur4838"/>
  </filter>
  <filter height="1.3688" x="-0.12295" width="1.2459" y="-0.18442" id="filter4832">
   <feGaussianBlur stdDeviation="0.2215" id="feGaussianBlur4834"/>
  </filter>
  <filter height="1.2802" x="-0.14972" width="1.2994" y="-0.1401" id="filter4828">
   <feGaussianBlur stdDeviation="0.2215" id="feGaussianBlur4830"/>
  </filter>
  <filter height="1.2494" x="-0.17886" width="1.3577" y="-0.12468" id="filter4824">
   <feGaussianBlur stdDeviation="0.2215" id="feGaussianBlur4826"/>
  </filter>
  <filter height="1.2842" x="-0.1474" width="1.2948" y="-0.14209" id="filter4820">
   <feGaussianBlur stdDeviation="0.2215" id="feGaussianBlur4822"/>
  </filter>
  <filter height="1.2459" x="-0.18442" width="1.3688" y="-0.12295" id="filter4816">
   <feGaussianBlur stdDeviation="0.2215" id="feGaussianBlur4818"/>
  </filter>
  <filter height="1.2646" x="-0.16129" width="1.3226" y="-0.1323" id="filter4812">
   <feGaussianBlur stdDeviation="0.2215" id="feGaussianBlur4814"/>
  </filter>
  <filter height="1.2599" x="-0.1658" width="1.3316" y="-0.12997" id="filter4808">
   <feGaussianBlur stdDeviation="0.2215" id="feGaussianBlur4810"/>
  </filter>
  <filter height="1.2902" x="-0.14426" width="1.2885" y="-0.14509" id="filter4804">
   <feGaussianBlur stdDeviation="0.2215" id="feGaussianBlur4806"/>
  </filter>
  <radialGradient r="16.221" gradientTransform="matrix(0.0006751680490787726,-0.000025488861865596846,0.000009411882744249193,0.0000952496484387666,527.6909375564004,935.8590698242188)" cx="-38.4" cy="-18.471" gradientUnits="userSpaceOnUse" xlink:href="#linearGradient15026" id="radialGradient2723"/>
  <radialGradient r="16.221" gradientTransform="matrix(-0.0011340779313521177,-0.11330763250589371,0.026888610150727743,-0.0036073520313948393,355.7516589078453,524.6839599609375)" cx="-38.4" cy="-18.471" gradientUnits="userSpaceOnUse" xlink:href="#linearGradient15026" id="radialGradient2721"/>
  <linearGradient id="linearGradient15026">
   <stop offset="0" stop-color="#fff" id="stop15028"/>
   <stop offset="1" stop-opacity="0" stop-color="#503282" id="stop15030"/>
  </linearGradient>
  <radialGradient r="1.4413" gradientTransform="matrix(-8.040933447392717,72.98751068115234,-1.7667806404734279,-1538.4666748046875,15212.269870487393,-572230.125)" cx="219.48" cy="470.57" gradientUnits="userSpaceOnUse" id="radialGradient4348">
   <stop offset="0" stop-opacity="0" stop-color="#ff7f2a" id="stop3281"/>
   <stop offset="1" stop-color="#ff7f2a" id="stop3283"/>
  </radialGradient>
  <radialGradient y2="1" y1="1" x2="1" x1="1" r="1.4413" gradientTransform="matrix(0.5934892840261909,0.5244477391242981,-0.13633812151286406,2.6365108489990234,-1056.3012114890723,1635.2781982421875)" cx="219.48" cy="470.57" gradientUnits="userSpaceOnUse" id="svg_1">
   <stop offset="0" stop-opacity="0" stop-color="#ff7f2a" id="stop3281"/>
   <stop offset="1" stop-color="#ff7f2a" id="stop3283"/>
  </radialGradient>
  <radialGradient y2="1" y1="1" x2="1" x1="1" r="1.4413" gradientTransform="matrix(0.33694576214730887,-0.7520512342453003,2.363373328256671,-0.4188311696052551,1620.250790001942,1724.23828125)" cx="219.48" cy="470.57" gradientUnits="userSpaceOnUse" id="svg_2">
   <stop offset="0" stop-opacity="0" stop-color="#ff7f2a" id="stop3281"/>
   <stop offset="1" stop-color="#ff7f2a" id="stop3283"/>
  </radialGradient>
  <radialGradient y2="1" y1="1" x2="1" x1="1" r="1.4413" gradientTransform="matrix(0.309948171931822,-0.681520402431488,1.7370678675624163,1.2084299325942993,905.4034605071078,3029.486572265625)" cx="219.48" cy="470.57" gradientUnits="userSpaceOnUse" id="svg_3">
   <stop offset="0" stop-opacity="0" stop-color="#ff7f2a" id="stop3281"/>
   <stop offset="1" stop-color="#ff7f2a" id="stop3283"/>
  </radialGradient>
  <radialGradient y2="1" y1="1" x2="1" x1="1" r="1.4413" gradientTransform="matrix(-0.5843877295185678,0.40709277987480164,-0.9220641326025429,-2.024366617202759,533.0928330295586,-2002.764404296875)" cx="219.48" cy="470.57" gradientUnits="userSpaceOnUse" id="svg_4">
   <stop offset="0" stop-opacity="0" stop-color="#ff7f2a" id="stop3281"/>
   <stop offset="1" stop-color="#ff7f2a" id="stop3283"/>
  </radialGradient>
  <radialGradient y2="1" y1="1" x2="1" x1="1" r="1.4413" gradientTransform="matrix(0.48579946233498106,0.5423539876937866,-1.5943266032867314,1.4279601573944092,-1941.5808251880796,792.2353515625)" cx="219.48" cy="470.57" gradientUnits="userSpaceOnUse" id="svg_5">
   <stop offset="0" stop-opacity="0" stop-color="#ff7f2a" id="stop3281"/>
   <stop offset="1" stop-color="#ff7f2a" id="stop3283"/>
  </radialGradient>
  <radialGradient y2="1" y1="1" x2="1" x1="1" r="1.4413" gradientTransform="matrix(0.3005145588228828,1.0234096050262451,-1.2748837396258068,0.597347617149353,-1571.8712271719694,-719.5303955078125)" cx="219.48" cy="470.57" gradientUnits="userSpaceOnUse" id="svg_6">
   <stop offset="0" stop-opacity="0" stop-color="#ff7f2a" id="stop3281"/>
   <stop offset="1" stop-color="#ff7f2a" id="stop3283"/>
  </radialGradient>
 </defs>
 <metadata>image/svg+xmlOpenclipartneuron-2008-02-09T08:37:00scheme of an internuronhttp://openclipart.org/detail/13286/neuron-interneuron-by-keikannuikeikannuianatomybiologycellclip artclipartimagemediamedicalmedicineneuronphysiologypngpublic domainsciencesvg</metadata>
 <g>
  <title>Layer 1</title>
  <g stroke="null" id="layer1">
   <path stroke="null" d="m37.67954,0.00083c-0.28189,0.02304 -0.55334,0.10367 -0.85612,0.21885c-1.16933,0.46074 -1.9106,1.50891 -1.62871,2.37279c0.19837,0.59896 0.83524,0.94451 1.59739,0.93299c0.01044,0.54136 0.19837,1.1288 0.42806,1.52043c0.42806,0.59896 -0.03132,1.40524 -0.65775,1.50891c-0.19837,0.02304 -0.35497,0.08063 -0.48026,0.18429c-0.57422,-0.94451 -1.44078,-1.39372 -2.08809,-1.04817c-0.75171,0.40314 -0.93964,1.75079 -0.39674,2.98326c0.5429,1.24398 1.60783,1.91205 2.3491,1.52043c0.57422,-0.311 0.79347,-1.18639 0.61599,-2.1309c0.37586,-0.02304 0.81435,-0.26492 1.11713,-0.35707c0.89788,-0.42618 1.87928,-0.39162 2.7354,0.13822c2.57879,1.10576 5.1889,2.23456 7.37095,4.14662c1.99412,1.4398 3.8734,3.2597 4.63556,5.8283c0.70995,1.8199 0.73083,3.85866 1.01272,5.79374c0.18793,2.17697 0.40718,4.44609 -0.09396,6.58851c-0.72039,1.77383 -1.95236,3.21363 -3.13213,4.60735c-1.69135,1.4398 -3.92561,1.49739 -5.97193,1.50891c-1.86884,0.18429 -3.769,0.41466 -5.61696,-0.10367c-2.79804,-0.62199 -5.75268,-0.80629 -8.35235,-2.20001c-1.23197,-0.73718 -2.72495,-1.53194 -2.93376,-3.23666c-0.25057,-1.19791 -0.45938,-2.41886 -0.81435,-3.59373c-1.68091,-0.96754 -2.08809,-3.27122 -2.67275,-5.11416c-0.33409,-1.0021 -0.5429,-2.06179 -0.88744,-3.06389c0.0522,-0.05759 0.06264,-0.11518 0.1044,-0.17278c0.04176,-0.06911 0.09396,-0.11518 0.12529,-0.18429c0.03132,-0.04607 0.0522,-0.09215 0.06264,-0.14974c0.01044,0 0,-0.02304 0,-0.03456c0.04176,-0.10367 0.08352,-0.21885 0.1044,-0.32251s0.03132,-0.18429 0.03132,-0.28796l0,-0.03456c-0.01044,-0.11518 -0.03132,-0.21885 -0.06264,-0.32251c-0.04176,-0.10367 -0.11484,-0.20733 -0.16705,-0.28796c0,-0.01152 0.01044,-0.03456 0,-0.03456c-0.0522,-0.08063 -0.11484,-0.14974 -0.19837,-0.21885c0,0 -0.02088,0.01152 -0.03132,0c-0.07308,-0.06911 -0.16705,-0.1267 -0.26101,-0.18429c-0.01044,0 -0.02088,0.01152 -0.03132,0c-0.52202,-0.2534 -1.23197,-0.26492 -1.95236,0.04607c-1.16933,0.48377 -1.90016,1.58954 -1.60783,2.4419c0.04176,0.10367 0.1044,0.19581 0.16705,0.28796s0.11484,0.18429 0.19837,0.2534l0.03132,0c0.08352,0.05759 0.16705,0.13822 0.26101,0.18429c0.21925,0.10367 0.48026,0.16126 0.75171,0.17278c0.39674,0.02304 0.80391,-0.06911 1.24241,-0.2534c0.04176,-0.01152 0.08352,-0.04607 0.12529,-0.06911c0.26101,1.49739 1.3155,2.92567 0.75171,4.46913c-0.4907,1.19791 -1.98368,1.01362 -3.00685,0.89843c-0.93964,-0.16126 -1.86884,-0.54136 -2.38042,-1.47435c-0.18793,-0.20733 -0.44894,-0.40314 -0.75171,-0.47225c0.06264,-0.70262 -0.13573,-1.30158 -0.58466,-1.58954c-0.72039,-0.44922 -1.82708,0.13822 -2.44306,1.33613s-0.52202,2.53404 0.19837,2.98326c0.50114,0.32251 1.17977,0.09215 1.75399,-0.46074c1.50342,0.88691 3.14257,1.57802 4.8026,2.05027c1.13801,0 2.42218,-0.70262 3.45579,-0.03456c0.877,0.70262 1.33638,1.57802 1.99412,2.52252c0.37586,0.96754 0.4385,2.1309 0.52202,3.20211c0.12529,1.54346 -0.12529,3.5131 -1.56607,4.1351c-0.50114,0.11518 -1.01272,0.20733 -1.27373,0.72566c-1.21109,1.04817 -2.80848,2.01572 -4.37454,1.50891c-0.72039,0.38011 -1.35726,-0.32251 -1.76443,-0.86388c-0.22969,-0.27644 -0.4385,-0.64503 -0.64731,-0.97906c0.62643,-0.89843 0.77259,-1.98116 0.26101,-2.54556c-0.58466,-0.65655 -1.79576,-0.39162 -2.68319,0.57592c-0.88744,0.95603 -1.12757,2.2576 -0.55334,2.91415c0.42806,0.47225 1.17977,0.47225 1.90016,0.06911c0.64731,0.64503 1.37814,1.34765 1.13801,2.37279c-0.53246,0.52985 -1.3677,0.4377 -2.08809,0.40314c-0.55334,-0.66807 -1.27373,-0.94451 -1.82708,-0.65655c-0.75171,0.40314 -0.89788,1.71624 -0.35497,2.96022c0.5429,1.23247 1.59739,1.91205 2.3491,1.50891c0.51158,-0.27644 0.72039,-0.97906 0.64731,-1.79687c2.85024,-0.311 5.52299,-1.60105 8.15398,-2.77593c2.14029,-1.16336 3.94649,-3.23666 6.39999,-3.55918c3.04861,-0.19581 6.07634,0.59896 8.99966,1.47435c1.04404,0.52985 2.41174,0.34555 3.16345,1.4398c1.37814,1.54346 1.23197,3.9508 1.08581,5.96652c-0.22969,2.76441 -0.55334,5.90893 -2.61011,7.7749c-1.43034,1.40524 -3.4349,1.93509 -5.22022,2.63771c-4.8548,1.68168 -10.02282,1.94661 -15.04467,1.18639c-1.73311,-0.13822 -3.40358,-0.8754 -4.6982,-2.16545c-1.17977,-1.1288 -2.28646,-2.10786 -3.59151,-3.09844c-1.62871,-1.2555 -3.40358,-2.37279 -5.22022,-3.20211c0.14617,-0.82932 -0.0522,-1.55498 -0.55334,-1.86598c-0.72039,-0.46074 -1.79576,0.13822 -2.41174,1.32461c-0.61599,1.19791 -0.52202,2.53404 0.19837,2.99478c0.55334,0.34555 1.3155,0.05759 1.92104,-0.64503c0.1044,0.10367 0.22969,0.18429 0.3863,0.24189c2.06721,1.46283 4.48939,2.3843 6.1703,4.40002c0.70995,0.8754 1.58695,2.15394 0.95008,3.37488c-0.42806,0.99058 -1.46166,1.35917 -2.42218,1.4398c-2.16117,0.34555 -4.34322,0.09215 -6.52528,0.28796c-0.35497,-0.13822 -0.57422,0.04607 -0.74127,0.33403c-0.18793,-1.02514 -0.76215,-1.77383 -1.44078,-1.77383c-0.82479,0 -1.50342,1.11728 -1.50342,2.48797s0.67863,2.52252 1.50342,2.52252c0.5429,0 1.01272,-0.50681 1.27373,-1.22095c0.1044,0.01152 0.21925,-0.01152 0.35497,-0.04607c3.36182,0.16126 6.82805,0 10.02282,-1.2555c0.81435,-0.41466 1.75399,-0.99058 2.15073,-1.79687c2.18205,-0.88691 4.71908,-0.86388 6.81761,0.28796c0.51158,1.14032 -0.28189,2.28064 -1.01272,3.01781c-1.14845,1.34765 -2.55791,2.45341 -3.68548,3.8241c-0.40718,0.74869 -1.04404,1.24398 -1.3677,1.96964c-0.79347,-0.72566 -1.78532,-0.89843 -2.31778,-0.35707c-0.61599,0.62199 -0.41762,1.93509 0.42806,2.9487c0.83524,1.02514 1.99412,1.33613 2.61011,0.72566c0.35497,-0.35707 0.4385,-0.94451 0.29233,-1.58954c0.68907,-0.46074 1.11713,-1.35917 1.75399,-2.01572c2.46394,-3.0063 4.95921,-6.15081 8.25839,-8.01679c3.21566,-1.64713 6.84893,-1.46283 10.17943,-2.67226c2.4013,-0.80629 4.8026,-2.10786 7.37095,-1.79687c2.06721,0.09215 4.19706,0 6.1703,0.76021c1.10669,0.55288 1.19021,2.23456 1.10669,3.45551c-0.22969,2.29216 -1.07537,4.44609 -1.20065,6.76129c-0.28189,3.66284 -1.27373,7.33721 -3.4349,10.19376c-1.44078,1.92357 -3.07993,3.72044 -4.82348,5.35604c-1.05448,0.92147 -2.59967,0.57592 -3.8212,0.21885c-0.81435,-0.21885 -1.63915,-0.40314 -2.47438,-0.4377c-0.07308,-0.85236 -0.46982,-1.54346 -1.04404,-1.68168c-0.81435,-0.20733 -1.68091,0.74869 -1.9628,2.08483c-0.27145,1.33613 0.13573,2.5686 0.95008,2.76441c0.66819,0.17278 1.3677,-0.40314 1.76443,-1.35917c0,-0.01152 0.03132,0 0.03132,0c1.05448,-0.08063 2.12985,-0.19581 3.06949,0.2534c0.4385,0.42618 0.1044,1.08273 -0.19837,1.61257c-0.50114,-0.17278 -0.97096,-0.16126 -1.30506,0.14974c-0.63687,0.58744 -0.51158,1.93509 0.29233,2.98326s1.97324,1.41676 2.61011,0.82932c0.62643,-0.57592 0.50114,-1.84294 -0.26101,-2.87959c0.66819,-0.61047 1.3677,-1.48587 2.11941,-2.11938c2.46394,-2.41886 5.01141,-4.80316 7.0473,-7.67124c0.56378,-0.89843 1.25285,-2.03875 1.73311,-3.06389c1.34682,-0.39162 2.2969,0.94451 3.13213,1.8775c0.91876,1.07121 1.92104,1.86598 2.93376,2.72986c1.11713,1.39372 0.5429,3.45551 0.78303,5.14871c0.04176,0.19581 0.07308,0.41466 0.12529,0.61047c-0.88744,0.21885 -1.5243,0.8178 -1.5243,1.55498c-0.01044,0.79477 0.76215,1.48587 1.78532,1.64713c0.15661,0.02304 0.30277,0.03456 0.45938,0.04607c1.25285,0 2.24469,-0.74869 2.25514,-1.65865c0,-0.62199 -0.45938,-1.15184 -1.14845,-1.4398c-0.32365,-1.09425 -0.99184,-2.17697 -0.74127,-3.35185c0.25057,-0.78325 1.20065,-0.24189 1.69135,-0.03456c0.97096,0.55288 2.04633,1.05969 3.00685,1.54346c0.74127,0.59896 0.20881,1.6932 -0.04176,2.48797c-0.91876,-0.02304 -1.70179,0.4377 -1.8584,1.15184c-0.04176,0.21885 -0.03132,0.42618 0.03132,0.64503c0.07308,0.23037 0.19837,0.44922 0.36542,0.65655c0.33409,0.39162 0.85612,0.73718 1.46166,0.89843c1.21109,0.32251 2.35954,-0.16126 2.54747,-1.04817c0.16705,-0.76021 -0.40718,-1.58954 -1.33638,-2.01572c0.53246,-0.42618 0.9292,-1.07121 1.10669,-1.76231c0.83524,0.10367 1.60783,-0.19581 2.38042,-0.47225c0.06264,0.10367 0.09396,0.21885 0.16705,0.28796c0.08352,0.09215 0.16705,0.16126 0.26101,0.21885c0.17749,0.1267 0.37586,0.21885 0.58466,0.21885c0.83524,0 1.50342,-1.15184 1.50342,-2.52252s-0.66819,-2.48797 -1.50342,-2.48797c-0.72039,0 -1.32594,0.85236 -1.46166,1.98116c-0.01044,0.04607 0,0.10367 0,0.14974c-0.63687,0.26492 -1.14845,1.03665 -1.8584,0.89843c-2.41174,-1.34765 -4.88613,-2.60315 -7.18302,-4.18117c-1.29461,-0.99058 -2.52659,-2.31519 -3.74812,-3.27122c-0.53246,-0.27644 -0.88744,-0.66807 -1.07537,-1.2555c-0.5429,-1.01362 -1.88972,-1.61257 -1.99412,-2.99478c-0.09396,-3.72044 1.12757,-7.29113 1.79576,-10.9079c0.4385,-1.65865 1.59739,-2.92567 2.61011,-4.20421c1.64959,-1.8775 3.59151,-3.61677 6.00325,-4.06599c1.4199,-0.24189 2.85024,-1.62409 4.30146,-0.82932c3.3305,1.27854 6.61924,2.81048 10.14811,3.23666c2.79804,0.34555 5.66916,0.63351 8.45676,0.10367c0.36542,0.27644 0.36542,1.27854 0.55334,1.84294c0.61599,3.10996 1.19021,6.23144 1.53474,9.38748c-0.89788,1.29006 -2.16117,2.39582 -3.26786,3.31729c-1.4199,1.45132 -2.87112,2.9487 -4.6982,3.74347c-0.52202,0.21885 -1.06492,0.24189 -1.59739,0.13822l0,-0.03456c0.14617,-0.90995 -0.09396,-1.75079 -0.65775,-2.05027c-0.74127,-0.39162 -1.77487,0.27644 -2.30734,1.50891c-0.5429,1.24398 -0.39674,2.59163 0.35497,2.99478c0.64731,0.34555 1.54519,-0.10367 2.11941,-1.04817c0.4907,0.13822 0.93964,0.40314 1.24241,0.79477c-0.60555,0.32251 -1.00228,0.86388 -0.9814,1.4398c0.04176,0.90995 1.07537,1.61257 2.31778,1.54346c1.24241,-0.05759 2.22381,-0.8754 2.18205,-1.79687c-0.03132,-0.8178 -0.85612,-1.42828 -1.92104,-1.50891c0.34453,-0.65655 0.63687,-1.33613 1.27373,-1.72776c2.04633,-1.65865 4.08221,-3.42096 6.00325,-5.21782c0.77259,-0.73718 2.12985,-0.89843 2.70407,0.13822c1.20065,1.83142 0.65775,4.27332 0.22969,6.30055l0,0.06911c-0.40718,0.11518 -0.78303,0.29948 -1.07537,0.54136c-0.1044,0.09215 -0.20881,0.19581 -0.29233,0.28796c-0.34453,0.39162 -0.48026,0.85236 -0.39674,1.30158c0.17749,0.88691 1.29461,1.40524 2.51615,1.11728c1.22153,-0.29948 2.06721,-1.26702 1.88972,-2.16545c-0.11484,-0.61047 -0.69951,-1.03665 -1.43034,-1.15184c0.04176,-0.16126 0.08352,-0.34555 0.12529,-0.50681c0.40718,-2.11938 0.67863,-4.63039 -0.64731,-6.43877c-0.4385,-0.84084 -1.45122,-1.50891 -2.05677,-2.26912c-1.11713,-2.23456 -1.3155,-4.88379 -1.62871,-7.38328c-0.1044,-1.10576 0.22969,-2.22305 0.09396,-3.34033c3.36182,-0.49529 6.51483,1.20943 9.65741,2.23456c0.06264,0.14974 0,0.51833 0.03132,0.8178c-0.61599,-0.13822 -1.20065,0 -1.50342,0.4377c-0.50114,0.72566 -0.1044,2.01572 0.88744,2.84504s2.20293,0.90995 2.70407,0.17278c0.50114,-0.72566 0.11484,-1.96964 -0.877,-2.79897c-0.0522,-0.04607 -0.08352,-0.08063 -0.13573,-0.11518c0.25057,-0.08063 0.50114,-0.23037 0.62643,-0.42618c0.31321,-0.44922 -0.08352,-1.02514 0.52202,-1.15184c0.22969,-0.19581 0.46982,-0.48377 0.61599,-0.82932c0.73083,0.80629 1.67047,1.09425 2.25514,0.61047c0.65775,-0.55288 0.61599,-1.88901 -0.13573,-2.98326c-0.75171,-1.10576 -1.9106,-1.5665 -2.57879,-1.01362c-0.53246,0.44922 -0.59511,1.40524 -0.19837,2.33823c-0.22969,0.08063 -0.48026,0.17278 -0.64731,0.28796c-0.72039,0.41466 -1.60783,0.39162 -2.25514,-0.13822c-1.99412,-1.04817 -4.27014,-1.14032 -6.32691,-1.94661c-0.51158,-0.26492 -1.04404,-0.72566 -0.26101,-1.08273c2.66231,-2.78745 5.11582,-5.8283 7.79901,-8.60423c0.39674,-0.41466 0.73083,-0.86388 1.07537,-1.29006c0.83524,0.82932 1.88972,1.04817 2.44306,0.47225c0.60555,-0.63351 0.40718,-1.95812 -0.44894,-2.96022c-0.85612,-0.99058 -2.04633,-1.27854 -2.64143,-0.64503c-0.37586,0.39162 -0.44894,1.04817 -0.22969,1.72776c-2.55791,2.87959 -4.82348,6.07018 -7.538,8.78852c-1.45122,1.73927 -3.2261,3.36337 -5.44991,3.59373c-3.42446,0.52985 -6.82805,-0.38011 -10.21075,-0.86388c-2.71451,-0.52985 -5.39771,-1.57802 -7.56932,-3.49007c-1.04404,-1.09425 -1.87928,-2.53404 -1.99412,-4.18117c-0.20881,-1.61257 0.41762,-3.16755 0.29233,-4.78013c0.02088,-1.0021 0.07308,-2.16545 0.88744,-2.77593c1.56607,-2.16545 4.08221,-3.04085 6.09722,-4.60735c0.9292,-0.74869 1.93148,-1.77383 2.87112,-2.66074c1.12757,-1.05969 2.14029,-2.36127 3.10081,-3.55918c0.78303,-0.24189 1.49298,0.50681 2.11941,0.93299c1.32594,0.90995 2.42218,2.2576 3.97781,2.66074c2.20293,0.93299 4.61467,1.38221 6.92201,0.72566c0.51158,-0.14974 1.02316,-0.35707 1.53474,-0.57592c0.4385,1.18639 1.3677,1.90053 2.11941,1.61257c0.78303,-0.29948 1.06492,-1.61257 0.64731,-2.91415c-0.40718,-1.29006 -1.39902,-2.10786 -2.18205,-1.79687c-0.51158,0.19581 -0.78303,0.84084 -0.81435,1.61257c-1.02316,0.16126 -1.95236,0.71414 -2.97553,0.90995c-0.53246,-0.8754 0.04176,-2.0042 -0.09396,-2.99478c1.02316,-0.02304 1.86884,-0.57592 1.9628,-1.37069c0.09396,-0.89843 -0.82479,-1.80839 -2.05677,-1.96964c-1.24241,-0.17278 -2.3491,0.44922 -2.4535,1.35917c-0.08352,0.73718 0.52202,1.42828 1.40946,1.76231c-0.34453,0.88691 -0.06264,2.36127 -1.07537,2.67226c-1.11713,0.2534 -2.22381,-0.33403 -3.13213,-1.01362c-1.35726,-1.02514 -2.76672,-1.96964 -4.21794,-2.76441c-1.11713,-0.82932 -0.76215,-2.60315 -0.67863,-3.89321c0.09396,-1.48587 0.42806,-3.32881 1.82708,-3.88169c0.11484,1.18639 0.72039,2.08483 1.46166,2.08483c0.83524,0 1.50342,-1.10576 1.50342,-2.48797c0,-1.37069 -0.66819,-2.47645 -1.50342,-2.47645c-0.76215,0 -1.37814,0.95603 -1.46166,2.18849c-0.14617,-0.16126 -0.33409,-0.28796 -0.52202,-0.2534c-0.42806,-0.13822 -1.3677,0.86388 -0.9814,-0.06911c0.02088,-0.04607 0.02088,-0.09215 0.03132,-0.13822c0.72039,-0.27644 1.21109,-0.86388 1.21109,-1.52043c0,-0.90995 -0.97096,-1.64713 -2.15073,-1.64713c-0.59511,0 -1.11713,0.19581 -1.50342,0.49529c-0.19837,0.14974 -0.3863,0.311 -0.4907,0.50681s-0.16705,0.41466 -0.16705,0.64503c0,0.8754 0.88744,1.58954 1.99412,1.65865c-0.08352,0.27644 -0.13573,0.5644 -0.22969,0.79477c-0.78303,2.71834 -0.14617,5.86285 -1.76443,8.28171c-1.61827,2.51101 -3.70636,4.71102 -6.12854,6.28903c-3.07993,2.14242 -6.28514,4.21573 -9.79313,5.36756c-1.61827,0.28796 -3.2783,-1.0021 -3.51843,-2.81048c-0.3863,-1.26702 -1.62871,-2.01572 -2.05677,-3.30577c-0.44894,-3.35185 -0.9292,-6.68066 -1.17977,-10.04402c-0.36542,-2.15394 -1.0336,-4.2618 -1.3677,-6.40422c0.27145,-1.75079 1.44078,-3.24818 2.80848,-4.06599c0.75171,-0.51833 1.43034,0.18429 1.92104,0.74869c0.57422,0.70262 1.4721,0.8754 1.93148,1.72776c0.16705,0.26492 0.16705,0.71414 0.26101,1.04817c-0.95008,0.41466 -1.56607,1.24398 -1.40946,2.01572c0.18793,0.88691 1.33638,1.35917 2.54747,1.03665c1.21109,-0.311 2.04633,-1.30158 1.8584,-2.18849c-0.14617,-0.6911 -0.877,-1.14032 -1.76443,-1.15184c0.07308,-0.16126 0.14617,-0.32251 0.30277,-0.40314c0.50114,-0.6911 1.4721,-0.90995 2.015,-1.54346c0.96052,0.82932 2.12985,0.94451 2.64143,0.2534c0.53246,-0.71414 0.18793,-1.96964 -0.78303,-2.84504c-0.96052,-0.8754 -2.17161,-0.99058 -2.70407,-0.28796c-0.13573,0.17278 -0.19837,0.38011 -0.22969,0.61047c-0.02088,0.23037 0,0.49529 0.06264,0.76021c0.02088,0.06911 0.04176,0.13822 0.07308,0.21885c-0.74127,0.59896 -1.59739,1.16336 -2.51615,0.71414c-0.77259,-0.35707 -1.23197,-1.15184 -1.76443,-1.72776c-0.93964,-0.70262 -1.84796,-1.5665 -2.38042,-2.66074c-0.36542,-0.70262 0.26101,-1.22095 0.84568,-1.22095c0.78303,-0.17278 1.61827,-0.34555 2.31778,-0.76021c0.69951,0.90995 1.67047,1.29006 2.28646,0.82932c0.68907,-0.51833 0.69951,-1.85446 0,-2.99478c-0.60555,-0.99058 -1.56607,-1.52043 -2.25514,-1.29006c-0.09396,0.03456 -0.16705,0.08063 -0.26101,0.13822c-0.08352,0.06911 -0.15661,0.17278 -0.21925,0.2534c-0.20881,0.28796 -0.31321,0.66807 -0.30277,1.11728c-1.13801,0.34555 -2.02545,1.55498 -3.2261,1.62409c0.57422,-0.88691 0.65775,-1.86598 0.16705,-2.41886c-0.58466,-0.64503 -1.75399,-0.41466 -2.64143,0.54136c-0.33409,0.36859 -0.57422,0.78325 -0.72039,1.18639c-0.0522,0.13822 -0.1044,0.26492 -0.13573,0.40314c-0.09396,0.52985 0.01044,1.03665 0.29233,1.37069c0.44894,0.49529 1.24241,0.42618 1.99412,-0.04607c0.29233,1.20943 1.17977,2.36127 0.68907,3.60525c-0.9292,1.33613 -2.05677,2.58012 -3.3305,3.52462c-1.78532,0.41466 -3.28874,-1.07121 -4.66688,-2.08483c-2.43262,-1.72776 -5.30374,-2.58012 -7.63196,-4.50368c-0.48026,-0.47225 -1.00228,-0.90995 -1.17977,-1.64713c-0.04176,-0.13822 -0.08352,-0.29948 -0.12529,-0.4377c0.91876,-0.52985 1.45122,-1.4398 1.20065,-2.20001c-0.20881,-0.64503 -0.91876,-0.99058 -1.75399,-0.93299z" filter="url(#filter4170)" id="path4160"/>
   <path stroke="null" d="m20.55722,94.03685c-0.4385,0 -0.78303,0.38011 -0.78303,0.86388c0,0.50681 0.34453,0.8754 0.78303,0.8754c0.42806,0 0.79347,-0.39162 0.79347,-0.8754c0,-0.46074 -0.36542,-0.86388 -0.79347,-0.86388m-0.29233,3.5707l-2.16117,0.51833l0,0.42618l1.17977,0.24189l-0.85612,4.80316c-0.06264,0.35707 -0.09396,0.64503 -0.09396,0.84084c0,0.70262 0.31321,1.05969 0.93964,1.05969c0.55334,0 1.25285,-0.19581 2.05677,-0.5644l0,-0.49529c-0.44894,0.16126 -0.80391,0.24189 -1.07537,0.24189c-0.45938,0 -0.69951,-0.21885 -0.69951,-0.63351c0,-0.09215 0.01044,-0.23037 0.04176,-0.40314l1.05448,-6.03563l-0.3863,0m4.19706,0l-2.16117,0.54136l0,0.40314l1.20065,0.24189l-1.21109,6.58851l1.24241,0l0.89788,-5.44819c0.89788,-0.89843 1.67047,-1.32461 2.17161,-1.32461c0.55334,0 0.78303,0.311 0.78303,1.01362c0,0.21885 -0.03132,0.5644 -0.12529,1.03665l-0.63687,2.98326c-0.07308,0.35707 -0.11484,0.65655 -0.11484,0.8754c0,0.64503 0.35497,0.96754 1.06492,0.96754c0.41762,0 1.00228,-0.16126 1.75399,-0.48377l0,-0.46074c-0.33409,0.10367 -0.59511,0.14974 -0.80391,0.14974c-0.48026,0 -0.75171,-0.27644 -0.75171,-0.79477c0,-0.24189 0.07308,-0.58744 0.15661,-1.05969l0.50114,-2.49949c0.11484,-0.57592 0.19837,-1.03665 0.19837,-1.4398c0,-0.78325 -0.46982,-1.29006 -1.22153,-1.29006c-0.78303,0 -1.68091,0.54136 -2.8398,1.55498l0.26101,-1.55498l-0.36542,0m7.93473,-1.55498l-0.73083,1.61257l-1.06492,0.50681l0,0.48377l0.90832,-0.08063l-0.79347,4.37698c-0.08352,0.44922 -0.11484,0.8178 -0.11484,1.08273c0,0.97906 0.39674,1.46283 1.22153,1.46283c0.51158,0 1.27373,-0.24189 2.25514,-0.71414l0,-0.50681c-0.58466,0.20733 -1.05448,0.32251 -1.38858,0.32251c-0.58466,0 -0.88744,-0.35707 -0.88744,-1.0021c0,-0.18429 0.04176,-0.42618 0.08352,-0.71414l0.76215,-4.30787l2.22381,0l0,-0.6911l-2.10897,0l0.30277,-1.83142l-0.66819,0m4.05089,5.20631c0.41762,-1.95812 1.25285,-2.97174 2.09853,-2.97174c0.42806,0 0.76215,0.36859 0.76215,0.8754c0,1.01362 -1.0336,1.98116 -2.86068,2.09634m-0.07308,0.54136c2.59967,-0.18429 3.98825,-1.22095 3.98825,-2.59163c0,-0.96754 -0.58466,-1.60105 -1.50342,-1.60105c-0.72039,0 -1.67047,0.47225 -2.41174,1.32461c-0.82479,0.95603 -1.30506,2.30368 -1.30506,3.66284c0,1.86598 0.83524,2.93719 2.21337,2.93719c0.96052,0 1.92104,-0.48377 2.82936,-1.45132l0,-0.76021c-0.84568,0.8754 -1.66003,1.32461 -2.33866,1.32461c-0.9292,0 -1.51386,-0.79477 -1.51386,-2.09634c0,-0.26492 0.01044,-0.51833 0.04176,-0.74869m7.24567,-4.19269l-2.16117,0.54136l0,0.40314l1.19021,0.24189l-1.21109,6.58851l1.23197,0l0.59511,-3.78955c0.24013,-1.48587 0.69951,-2.34975 2.14029,-2.96022l0.37586,0.86388l0.1044,0c0.59511,0 0.9814,-0.4377 0.9814,-1.04817c0,-0.48377 -0.32365,-0.84084 -0.82479,-0.84084c-0.73083,0 -1.66003,0.74869 -2.59967,2.21153l0.46982,-2.21153l-0.29233,0m5.87797,0l-2.16117,0.54136l0,0.40314l1.20065,0.24189l-1.21109,6.58851l1.24241,0l0.89788,-5.44819c0.89788,-0.89843 1.67047,-1.32461 2.17161,-1.32461c0.55334,0 0.78303,0.311 0.78303,1.01362c0,0.21885 -0.03132,0.5644 -0.12529,1.03665l-0.63687,2.98326c-0.07308,0.35707 -0.11484,0.65655 -0.11484,0.8754c0,0.64503 0.35497,0.96754 1.06492,0.96754c0.41762,0 1.00228,-0.16126 1.75399,-0.48377l0,-0.46074c-0.33409,0.10367 -0.59511,0.14974 -0.80391,0.14974c-0.48026,0 -0.75171,-0.27644 -0.75171,-0.79477c0,-0.24189 0.07308,-0.58744 0.15661,-1.05969l0.50114,-2.49949c0.11484,-0.57592 0.19837,-1.03665 0.19837,-1.4398c0,-0.78325 -0.46982,-1.29006 -1.22153,-1.29006c-0.78303,0 -1.68091,0.54136 -2.8398,1.55498l0.26101,-1.55498l-0.36542,0m7.0995,3.65133c0.42806,-1.95812 1.26329,-2.97174 2.10897,-2.97174c0.41762,0 0.76215,0.36859 0.76215,0.8754c0,1.01362 -1.04404,1.98116 -2.87112,2.09634m-0.07308,0.54136c2.59967,-0.18429 3.98825,-1.22095 3.98825,-2.59163c0,-0.96754 -0.58466,-1.60105 -1.50342,-1.60105c-0.70995,0 -1.66003,0.47225 -2.41174,1.32461c-0.81435,0.95603 -1.29461,2.30368 -1.29461,3.66284c0,1.86598 0.82479,2.93719 2.20293,2.93719c0.96052,0 1.93148,-0.48377 2.8398,-1.45132l0,-0.76021c-0.85612,0.8754 -1.67047,1.32461 -2.33866,1.32461c-0.93964,0 -1.5243,-0.79477 -1.5243,-2.09634c0,-0.26492 0.01044,-0.51833 0.04176,-0.74869m7.39183,-4.20421l-2.28646,0.52985l0,0.42618l1.21109,0.24189l-0.84568,4.23876c-0.07308,0.36859 -0.12529,0.6911 -0.12529,0.96754c0,0.94451 0.5429,1.50891 1.4199,1.50891c0.79347,0 1.67047,-0.42618 2.65187,-1.33613c-0.02088,0.11518 -0.02088,0.20733 -0.02088,0.311c0,0.70262 0.28189,1.02514 0.877,1.02514c0.45938,0 1.06492,-0.17278 1.86884,-0.49529l0,-0.44922c-0.34453,0.11518 -0.62643,0.17278 -0.81435,0.17278c-0.46982,0 -0.76215,-0.28796 -0.76215,-0.62199c0,-0.34555 0.07308,-0.70262 0.14617,-1.10576l1.04404,-5.25238l-1.19021,0l-1.09625,5.81678c-0.81435,0.71414 -1.56607,1.02514 -2.07765,1.02514c-0.52202,0 -0.84568,-0.32251 -0.84568,-0.88691c0,-0.24189 0.06264,-0.64503 0.16705,-1.19791l0.91876,-4.68798l-0.24013,-0.23037m7.93473,0.01152l-2.16117,0.54136l0,0.40314l1.20065,0.24189l-1.21109,6.58851l1.22153,0l0.60555,-3.78955c0.22969,-1.48587 0.69951,-2.34975 2.12985,-2.96022l0.37586,0.86388l0.1044,0c0.60555,0 0.9814,-0.4377 0.9814,-1.04817c0,-0.48377 -0.32365,-0.84084 -0.81435,-0.84084c-0.73083,0 -1.67047,0.74869 -2.61011,2.21153l0.46982,-2.21153l-0.29233,0m7.31875,-0.01152c-0.99184,0 -1.88972,0.47225 -2.58923,1.33613c-0.73083,0.92147 -1.16933,2.22305 -1.16933,3.53614c0,1.86598 0.9814,3.06389 2.48482,3.06389c1.01272,0 1.88972,-0.4377 2.56835,-1.31309c0.76215,-0.96754 1.19021,-2.18849 1.19021,-3.46703c0,-1.94661 -0.97096,-3.15603 -2.48482,-3.15603m-0.18793,0.63351c0.88744,0 1.43034,0.82932 1.43034,2.43038c0,2.45341 -1.09625,4.20421 -2.33866,4.20421c-0.877,0 -1.4199,-0.82932 -1.4199,-2.3843c0,-2.49949 1.06492,-4.25028 2.32822,-4.25028m6.08678,-0.62199l-2.16117,0.54136l0,0.40314l1.20065,0.24189l-1.21109,6.58851l1.24241,0l0.90832,-5.44819c0.88744,-0.89843 1.66003,-1.32461 2.16117,-1.32461c0.55334,0 0.78303,0.311 0.78303,1.01362c0,0.21885 -0.02088,0.5644 -0.12529,1.03665l-0.62643,2.98326c-0.07308,0.35707 -0.12529,0.65655 -0.12529,0.8754c0,0.64503 0.35497,0.96754 1.07537,0.96754c0.40718,0 0.99184,-0.16126 1.75399,-0.48377l0,-0.46074c-0.34453,0.10367 -0.60555,0.14974 -0.80391,0.14974c-0.4907,0 -0.76215,-0.27644 -0.76215,-0.79477c0,-0.24189 0.07308,-0.58744 0.15661,-1.05969l0.50114,-2.49949c0.11484,-0.57592 0.19837,-1.03665 0.19837,-1.4398c0,-0.78325 -0.45938,-1.29006 -1.22153,-1.29006c-0.77259,0 -1.68091,0.54136 -2.8398,1.55498l0.26101,-1.55498l-0.36542,0" id="text2617"/>
   <path stroke="null" d="m44.52847,8.19039c-0.01044,2.9487 2.16117,0.26492 3.81076,0.8178c2.63099,1.11728 4.94877,2.08483 6.69232,3.34033c3.2783,2.53404 5.2933,3.59373 6.59836,8.51208c0.42806,2.91415 0.99184,6.93406 0.61599,9.97491c-0.11484,1.34765 -1.84796,3.63981 -2.70407,4.67646c-1.26329,1.64713 -3.4349,2.11938 -5.38727,2.09634c-1.8584,-0.06911 -3.92561,0.52985 -5.75268,0.1267c-2.20293,-0.50681 -7.21434,-1.1288 -9.15627,-2.34975c-3.47667,-2.08483 -2.47438,-1.78535 -3.8212,-6.85343c-2.25514,-0.93299 -2.87112,-7.00317 -3.85252,-8.9037c-0.61599,-0.33403 -1.29461,0.48377 -1.06492,1.09425c0.06264,1.77383 1.78532,4.03143 0.52202,5.42516c-0.79347,0.85236 -4.04045,0.40314 -4.60423,-0.63351c-0.40718,-0.5644 -1.08581,-1.2555 -1.82708,-0.8754c-0.79347,0.32251 -1.34682,1.5665 -0.65775,2.2576c1.27373,0.8178 3.24698,1.65865 4.646,2.15394c0.96052,0.26492 2.4535,-0.50681 3.42446,-0.17278s1.8584,2.0042 2.4535,2.87959c0.55334,2.68378 1.08581,6.91103 -1.84796,7.14139c-1.14845,1.29006 -3.2261,2.66074 -4.87569,2.07331c-1.87928,0.80629 -2.38042,-4.1351 -4.05089,-2.09634c-0.24013,-0.311 -0.96052,-0.04607 -0.60555,0.34555c0.75171,0.65655 2.68319,2.31519 2.20293,3.32881c-0.18793,0.46074 -1.93148,0.46074 -2.46394,0.29948c-0.5429,0.17278 -0.25057,2.46493 0.28189,2.34975c3.53931,-0.1267 5.53343,-1.29006 8.06002,-2.33823c3.06949,-1.11728 4.646,-3.58221 7.41271,-4.05447c2.63099,-0.32251 7.42315,0.85236 10.06458,1.8199c1.02316,0.06911 2.06721,0.59896 2.53703,1.57802c0.93964,1.52043 0.75171,3.39792 0.67863,5.11416c-0.21925,2.41886 -0.40718,4.98746 -1.78532,7.04925c-1.29461,1.84294 -3.48711,2.59163 -5.49167,3.32881c-4.44763,1.63561 -9.26067,2.10786 -13.94843,1.55498c-1.38858,-0.14974 -2.81892,-0.26492 -4.11353,-0.82932c-1.94192,-1.04817 -3.29918,-2.89111 -5.09493,-4.14662c-1.86884,-1.52043 -3.90472,-2.83352 -6.10766,-3.78955c-0.24013,-0.28796 -0.80391,-0.58744 -1.07537,-0.20733c-0.1044,0.58744 -0.04176,2.02723 0.35497,2.28064c2.62055,1.95812 6.24338,3.12148 7.54844,6.25448c0.58466,0.99058 -0.20881,2.5686 -1.37814,2.84504c-1.9628,0.57592 -4.03001,0.311 -6.04501,0.4377c-0.64731,-0.01152 -1.3155,0.1267 -1.94192,0c-0.46982,0.14974 -1.24241,2.66074 -0.67863,2.51101c4.62511,0.41466 11.54713,-0.28796 12.81042,-2.98326c2.75628,-1.15184 5.50211,-0.47225 6.68188,0.2534c0.83524,1.47435 -1.12757,3.09844 -4.54159,6.47333c-0.69951,1.40524 -2.17161,2.23456 -1.51386,3.54766c0.18793,0.44922 0.57422,0.94451 1.07537,0.62199c0.70995,-0.40314 1.04404,-1.23247 1.59739,-1.80839c2.41174,-3.02933 4.91745,-6.11626 8.23751,-8.14349c3.01729,-1.70472 6.50439,-1.55498 9.74093,-2.60315c2.14029,-0.58744 4.2597,-1.78535 6.46263,-2.05027c1.48254,0.02304 7.70504,-0.08063 8.30015,1.34765c1.16933,2.10786 -0.19837,5.67856 -0.52202,7.59061c-0.66819,6.12778 -0.69951,9.9058 -7.87209,16.87442c-2.22381,2.3843 -3.84208,0.28796 -7.05774,0.33403c-0.39674,0.1267 -1.13801,-0.17278 -1.29461,0.2534c0.02088,0.5644 -0.14617,1.79687 0.27145,1.79687c5.19934,-0.41466 4.51027,0.28796 3.36182,2.33823c-0.57422,1.39372 0.04176,1.09425 0.55334,1.27854c1.35726,-0.23037 2.02545,-1.62409 3.01729,-2.4419c2.76672,-2.70682 7.6946,-7.19898 9.19803,-11.12675c1.93148,-0.47225 2.44306,1.93509 5.98237,4.56128c1.43034,1.93509 -0.11484,4.87227 1.40946,6.73825c0.58466,0.33403 2.28646,0.66807 1.33638,-1.29006c-0.18793,-0.80629 -1.10669,-2.55708 -0.42806,-3.20211c0.70995,-0.36859 2.69363,1.1288 3.93605,1.61257c1.82708,0.71414 -0.22969,2.77593 0.45938,3.04085c0.34453,1.02514 2.03589,-0.27644 2.39086,-1.78535c1.00228,0.14974 1.95236,-0.39162 2.96509,-0.67958c-0.07308,-4.27332 -1.9106,-1.20943 -2.85024,-1.23247c-2.12985,-1.1288 -4.22838,-2.32671 -6.28514,-3.59373c-2.06721,-1.2555 -3.44535,-3.04085 -5.44991,-4.40002c-0.69951,-2.14242 -2.61011,-1.85446 -2.30734,-4.76861c0.22969,-3.39792 1.16933,-6.23144 1.90016,-10.12465c1.01272,-2.15394 2.51615,-4.04295 4.29102,-5.57489c1.24241,-1.10576 2.71451,-2.0042 4.37454,-2.2576c1.26329,-0.24189 2.54747,-1.4398 3.72724,-0.92147c2.30734,0.86388 5.72136,2.43038 8.14354,2.89111c3.17389,0.78325 8.58204,1.15184 10.85806,0.57592c0.53246,1.86598 1.92104,10.26287 1.92104,11.05764c-1.68091,2.33823 -2.64143,2.45341 -3.93605,4.06599c-3.61239,3.32881 -4.65644,3.66284 -6.76541,2.66074c-0.877,3.19059 1.0336,0.73718 2.27602,3.42096c1.81664,-0.26492 1.35726,-1.70472 2.32822,-2.41886c1.4721,-1.08273 4.83392,-4.08902 5.1367,-4.30787c2.51615,-2.83352 3.49755,-1.73927 4.16574,-0.27644c0.75171,2.16545 -0.1044,4.37698 -0.42806,6.93406c0.52202,0.311 1.50342,0.2534 1.90016,-2.6953c0.76215,-4.5728 -0.73083,-6.07018 -2.71451,-7.87857c-1.11713,-1.83142 -1.46166,-5.04505 -1.71223,-7.38328c-0.14617,-1.27854 0.17749,-2.08483 0.04176,-3.36337c2.93376,-0.5644 7.36051,1.53194 9.52168,2.24608c-0.55334,2.26912 2.46394,1.58954 1.98368,-0.05759c0.68907,-0.11518 1.49298,-1.48587 0.99184,-2.1309c-0.72039,-0.94451 -1.88972,1.32461 -3.45579,0.08063c-3.12169,-1.58954 -6.08678,-1.29006 -7.0995,-2.53404c1.68091,-1.52043 4.05089,-4.5152 5.09493,-5.55186c1.75399,-2.18849 3.99869,-3.93928 5.41859,-6.40422c0.27145,-0.8178 -1.08581,-1.46283 -1.49298,-0.67958c-3.57063,3.9508 -5.00097,6.266 -8.10178,9.43355c-1.33638,1.64713 -3.28874,3.43248 -5.43947,3.68588c-2.88156,0.52985 -6.48351,-0.21885 -9.36507,-0.66807c-2.15073,-0.311 -4.2597,-0.97906 -6.19118,-2.01572c-1.27373,-0.74869 -2.55791,-1.63561 -3.3305,-2.96022c-0.96052,-1.58954 -1.14845,-3.60525 -0.73083,-5.41364c0.33409,-1.4398 -0.26101,-3.84714 0.88744,-4.72253c1.50342,-2.14242 4.14485,-3.09844 6.1703,-4.63039c2.50571,-2.40734 3.51843,-3.02933 5.94061,-6.25448c0.93964,-0.50681 4.12397,2.90263 5.04273,3.20211c1.62871,0.58744 3.23654,1.35917 4.98009,1.40524c1.73311,0.1267 3.47667,-0.311 5.02185,-1.08273c0.57422,0.19581 0.4385,-1.58954 -0.18793,-1.54346c-1.21109,-0.03456 -2.56835,0.84084 -3.50799,0.94451c-0.50114,-0.65655 0.55334,-3.60525 -0.4907,-3.6974c-1.97324,-0.16126 0,3.93928 -2.92332,3.16755c-0.9814,0.1267 -3.93605,-2.62619 -4.88613,-2.96022c-1.23197,-0.86388 -2.10897,-0.67958 -2.05677,-3.01781c0.11484,-3.9508 0.79347,-4.90683 1.9106,-5.3906c0.56378,-0.33403 -0.08352,-1.67016 -1.51386,-0.80629c0.31321,-1.49739 -0.31321,-1.16336 -0.96052,-1.05969c-1.25285,3.05237 -0.74127,5.02201 -1.4199,7.86705c-0.40718,1.70472 -1.93148,3.55918 -3.10081,4.89531c-1.57651,1.86598 -3.66459,3.15603 -5.64828,4.52672c-2.46394,1.61257 -5.03229,3.12148 -7.79901,4.08902c-1.59739,0.38011 -3.28874,-0.92147 -3.54975,-2.55708c-0.19837,-1.20943 -1.93148,-2.43038 -2.11941,-3.63981c-0.35497,-3.08692 -0.81435,-5.69008 -1.02316,-8.80004c-0.08352,-1.71624 -0.80391,-4.16965 -1.4721,-7.30265c0.14617,-1.62409 1.59739,-3.60525 3.01729,-4.18117c0.85612,-0.38011 1.40946,0.96754 2.52659,1.64713c2.00456,1.07121 0.22969,2.83352 2.4013,2.28064c0.26101,-2.18849 4.09265,-1.91205 2.43262,-4.20421c-0.85612,-1.19791 -2.25514,3.5131 -5.07405,-0.8178c-0.80391,-0.51833 -2.76672,-2.30368 -2.50571,-3.20211c0.13573,-0.77173 3.14257,-0.33403 4.29102,-2.29216c-1.88972,-3.47855 -4.10309,1.86598 -6.04501,0.21885c-1.17977,1.24398 1.39902,3.76651 0.35497,5.11416c-0.78303,1.22095 -1.9628,2.39582 -3.07993,3.31729c-1.11713,0.38011 -2.39086,-0.29948 -3.48711,-1.15184c-3.04861,-2.62619 -6.80717,-3.3864 -9.26067,-5.83982c-0.89788,-0.5644 -0.60555,-3.04085 -2.12985,-2.21153c-0.57422,0.58744 -0.33409,2.01572 0.24013,2.822c0.15661,0.79477 -0.19837,0.97906 -1.5243,1.46283z" fill="none" filter="url(#filter3615)" id="path3609"/>
   <path stroke="null" d="m36.89651,0.00083c-0.28189,0.02304 -0.55334,0.10367 -0.84568,0.21885c-1.17977,0.46074 -1.9106,1.50891 -1.62871,2.37279c0.18793,0.59896 0.83524,0.94451 1.59739,0.93299c0,0.54136 0.19837,1.1288 0.41762,1.52043c0.4385,0.59896 -0.02088,1.40524 -0.64731,1.50891c-0.20881,0.02304 -0.36542,0.08063 -0.4907,0.18429c-0.57422,-0.94451 -1.44078,-1.39372 -2.08809,-1.04817c-0.75171,0.40314 -0.93964,1.75079 -0.3863,2.98326c0.5429,1.24398 1.59739,1.91205 2.3491,1.52043c0.57422,-0.311 0.78303,-1.18639 0.61599,-2.1309c0.36542,-0.02304 0.80391,-0.26492 1.10669,-0.35707c0.89788,-0.42618 1.87928,-0.39162 2.74584,0.13822c2.56835,1.10576 5.1889,2.23456 7.37095,4.14662c1.98368,1.4398 3.86296,3.2597 4.63556,5.8283c0.70995,1.8199 0.72039,3.85866 1.01272,5.79374c0.18793,2.17697 0.39674,4.44609 -0.1044,6.58851c-0.70995,1.77383 -1.95236,3.21363 -3.13213,4.60735c-1.69135,1.4398 -3.91517,1.49739 -5.97193,1.50891c-1.86884,0.18429 -3.75856,0.41466 -5.60652,-0.10367c-2.79804,-0.62199 -5.76312,-0.80629 -8.35235,-2.20001c-1.24241,-0.73718 -2.7354,-1.53194 -2.93376,-3.23666c-0.26101,-1.19791 -0.46982,-2.41886 -0.82479,-3.59373c-1.68091,-0.96754 -2.07765,-3.27122 -2.67275,-5.11416c-0.32365,-1.0021 -0.53246,-2.06179 -0.877,-3.06389c0.04176,-0.05759 0.0522,-0.11518 0.09396,-0.17278c0.04176,-0.06911 0.09396,-0.11518 0.13573,-0.18429c0.02088,-0.04607 0.04176,-0.09215 0.06264,-0.14974c0,0 -0.01044,-0.02304 0,-0.03456c0.04176,-0.10367 0.07308,-0.21885 0.09396,-0.32251s0.04176,-0.18429 0.03132,-0.28796l0,-0.03456c0,-0.11518 -0.02088,-0.21885 -0.06264,-0.32251c-0.03132,-0.10367 -0.1044,-0.20733 -0.15661,-0.28796c-0.01044,-0.01152 0,-0.03456 0,-0.03456c-0.06264,-0.08063 -0.12529,-0.14974 -0.19837,-0.21885c-0.01044,0 -0.03132,0.01152 -0.03132,0c-0.08352,-0.06911 -0.16705,-0.1267 -0.26101,-0.18429c-0.01044,0 -0.03132,0.01152 -0.03132,0c-0.52202,-0.2534 -1.23197,-0.26492 -1.9628,0.04607c-1.15889,0.48377 -1.88972,1.58954 -1.59739,2.4419c0.03132,0.10367 0.09396,0.19581 0.16705,0.28796c0.06264,0.09215 0.1044,0.18429 0.18793,0.2534l0.03132,0c0.08352,0.05759 0.16705,0.13822 0.26101,0.18429c0.21925,0.10367 0.48026,0.16126 0.75171,0.17278c0.39674,0.02304 0.80391,-0.06911 1.24241,-0.2534c0.04176,-0.01152 0.08352,-0.04607 0.13573,-0.06911c0.25057,1.49739 1.30506,2.92567 0.74127,4.46913c-0.4907,1.19791 -1.98368,1.01362 -2.99641,0.89843c-0.93964,-0.16126 -1.87928,-0.54136 -2.38042,-1.47435c-0.19837,-0.20733 -0.45938,-0.40314 -0.75171,-0.47225c0.0522,-0.70262 -0.14617,-1.30158 -0.58466,-1.58954c-0.72039,-0.44922 -1.83752,0.13822 -2.4535,1.33613s-0.52202,2.53404 0.19837,2.98326c0.50114,0.32251 1.17977,0.09215 1.76443,-0.46074c1.50342,0.88691 3.13213,1.57802 4.79216,2.05027c1.13801,0 2.43262,-0.70262 3.45579,-0.03456c0.877,0.70262 1.33638,1.57802 1.99412,2.52252c0.37586,0.96754 0.44894,2.1309 0.52202,3.20211c0.12529,1.54346 -0.11484,3.5131 -1.56607,4.1351c-0.50114,0.11518 -1.00228,0.20733 -1.27373,0.72566c-1.20065,1.04817 -2.80848,2.01572 -4.37454,1.50891c-0.70995,0.38011 -1.35726,-0.32251 -1.75399,-0.86388c-0.24013,-0.27644 -0.4385,-0.64503 -0.65775,-0.97906c0.63687,-0.89843 0.77259,-1.98116 0.26101,-2.54556c-0.58466,-0.65655 -1.78532,-0.39162 -2.67275,0.57592c-0.88744,0.95603 -1.13801,2.2576 -0.55334,2.91415c0.41762,0.47225 1.16933,0.47225 1.88972,0.06911c0.64731,0.64503 1.38858,1.34765 1.13801,2.37279c-0.53246,0.52985 -1.35726,0.4377 -2.08809,0.40314c-0.55334,-0.66807 -1.27373,-0.94451 -1.82708,-0.65655c-0.74127,0.40314 -0.89788,1.71624 -0.35497,2.96022c0.5429,1.23247 1.59739,1.91205 2.3491,1.50891c0.51158,-0.27644 0.73083,-0.97906 0.65775,-1.79687c2.85024,-0.311 5.52299,-1.60105 8.15398,-2.77593c2.12985,-1.16336 3.94649,-3.23666 6.38955,-3.55918c3.05905,-0.19581 6.07634,0.59896 9.0101,1.47435c1.04404,0.52985 2.41174,0.34555 3.16345,1.4398c1.37814,1.54346 1.22153,3.9508 1.07537,5.96652c-0.22969,2.76441 -0.55334,5.90893 -2.61011,7.7749c-1.43034,1.40524 -3.4349,1.93509 -5.22022,2.63771c-4.8548,1.68168 -10.02282,1.94661 -15.04467,1.18639c-1.73311,-0.13822 -3.39314,-0.8754 -4.6982,-2.16545c-1.17977,-1.1288 -2.28646,-2.10786 -3.58107,-3.09844c-1.62871,-1.2555 -3.41402,-2.37279 -5.22022,-3.20211c0.13573,-0.82932 -0.0522,-1.55498 -0.55334,-1.86598c-0.73083,-0.46074 -1.8062,0.13822 -2.42218,1.32461c-0.61599,1.19791 -0.52202,2.53404 0.19837,2.99478c0.56378,0.34555 1.3155,0.05759 1.92104,-0.64503c0.1044,0.10367 0.24013,0.18429 0.39674,0.24189c2.05677,1.46283 4.47895,2.3843 6.1703,4.40002c0.69951,0.8754 1.58695,2.15394 0.93964,3.37488c-0.41762,0.99058 -1.46166,1.35917 -2.41174,1.4398c-2.17161,0.34555 -4.34322,0.09215 -6.52528,0.28796c-0.35497,-0.13822 -0.58466,0.04607 -0.75171,0.33403c-0.18793,-1.02514 -0.75171,-1.77383 -1.43034,-1.77383c-0.83524,0 -1.50342,1.11728 -1.50342,2.48797s0.66819,2.52252 1.50342,2.52252c0.5429,0 1.00228,-0.50681 1.26329,-1.22095c0.1044,0.01152 0.21925,-0.01152 0.36542,-0.04607c3.35138,0.16126 6.81761,0 10.01238,-1.2555c0.81435,-0.41466 1.75399,-0.99058 2.15073,-1.79687c2.19249,-0.88691 4.72952,-0.86388 6.82805,0.28796c0.50114,1.14032 -0.29233,2.28064 -1.01272,3.01781c-1.15889,1.34765 -2.56835,2.45341 -3.68548,3.8241c-0.41762,0.74869 -1.05448,1.24398 -1.37814,1.96964c-0.79347,-0.72566 -1.77487,-0.89843 -2.31778,-0.35707c-0.60555,0.62199 -0.40718,1.93509 0.42806,2.9487c0.83524,1.02514 1.99412,1.33613 2.61011,0.72566c0.35497,-0.35707 0.44894,-0.94451 0.29233,-1.58954c0.68907,-0.46074 1.12757,-1.35917 1.76443,-2.01572c2.4535,-3.0063 4.95921,-6.15081 8.25839,-8.01679c3.20522,-1.64713 6.84893,-1.46283 10.17943,-2.67226c2.39086,-0.80629 4.79216,-2.10786 7.37095,-1.79687c2.05677,0.09215 4.19706,0 6.15986,0.76021c1.10669,0.55288 1.20065,2.23456 1.11713,3.45551c-0.24013,2.29216 -1.08581,4.44609 -1.21109,6.76129c-0.27145,3.66284 -1.26329,7.33721 -3.42446,10.19376c-1.45122,1.92357 -3.09037,3.72044 -4.83392,5.35604c-1.05448,0.92147 -2.58923,0.57592 -3.81076,0.21885c-0.81435,-0.21885 -1.64959,-0.40314 -2.48482,-0.4377c-0.07308,-0.85236 -0.46982,-1.54346 -1.04404,-1.68168c-0.80391,-0.20733 -1.68091,0.74869 -1.95236,2.08483c-0.28189,1.33613 0.13573,2.5686 0.93964,2.76441c0.66819,0.17278 1.37814,-0.40314 1.76443,-1.35917c0,-0.01152 0.03132,0 0.03132,0c1.05448,-0.08063 2.12985,-0.19581 3.06949,0.2534c0.4385,0.42618 0.11484,1.08273 -0.19837,1.61257c-0.4907,-0.17278 -0.97096,-0.16126 -1.30506,0.14974c-0.63687,0.58744 -0.50114,1.93509 0.29233,2.98326c0.80391,1.04817 1.97324,1.41676 2.61011,0.82932c0.62643,-0.57592 0.50114,-1.84294 -0.26101,-2.87959c0.67863,-0.61047 1.3677,-1.48587 2.12985,-2.11938c2.4535,-2.41886 5.01141,-4.80316 7.0473,-7.67124c0.55334,-0.89843 1.24241,-2.03875 1.72267,-3.06389c1.35726,-0.39162 2.2969,0.94451 3.13213,1.8775c0.91876,1.07121 1.92104,1.86598 2.93376,2.72986c1.11713,1.39372 0.5429,3.45551 0.78303,5.14871c0.0522,0.19581 0.08352,0.41466 0.13573,0.61047c-0.89788,0.21885 -1.53474,0.8178 -1.53474,1.55498c0,0.79477 0.76215,1.48587 1.79576,1.64713c0.14617,0.02304 0.30277,0.03456 0.45938,0.04607c1.24241,0 2.24469,-0.74869 2.24469,-1.65865c0.01044,-0.62199 -0.45938,-1.15184 -1.13801,-1.4398c-0.33409,-1.09425 -1.00228,-2.17697 -0.75171,-3.35185c0.25057,-0.78325 1.20065,-0.24189 1.70179,-0.03456c0.96052,0.55288 2.04633,1.05969 2.99641,1.54346c0.75171,0.59896 0.20881,1.6932 -0.03132,2.48797c-0.9292,-0.02304 -1.70179,0.4377 -1.8584,1.15184c-0.0522,0.21885 -0.04176,0.42618 0.03132,0.64503c0.06264,0.23037 0.18793,0.44922 0.35497,0.65655c0.33409,0.39162 0.86656,0.73718 1.4721,0.89843c1.21109,0.32251 2.3491,-0.16126 2.54747,-1.04817c0.16705,-0.76021 -0.41762,-1.58954 -1.33638,-2.01572c0.53246,-0.42618 0.91876,-1.07121 1.10669,-1.76231c0.82479,0.10367 1.59739,-0.19581 2.38042,-0.47225c0.06264,0.10367 0.09396,0.21885 0.16705,0.28796c0.07308,0.09215 0.16705,0.16126 0.26101,0.21885c0.17749,0.1267 0.37586,0.21885 0.58466,0.21885c0.82479,0 1.50342,-1.15184 1.50342,-2.52252s-0.67863,-2.48797 -1.50342,-2.48797c-0.73083,0 -1.32594,0.85236 -1.4721,1.98116c0,0.04607 0.01044,0.10367 0,0.14974c-0.63687,0.26492 -1.14845,1.03665 -1.8584,0.89843c-2.41174,-1.34765 -4.88613,-2.60315 -7.17258,-4.18117c-1.30506,-0.99058 -2.52659,-2.31519 -3.75856,-3.27122c-0.52202,-0.27644 -0.877,-0.66807 -1.07537,-1.2555c-0.53246,-1.01362 -1.88972,-1.61257 -1.99412,-2.99478c-0.09396,-3.72044 1.12757,-7.29113 1.79576,-10.9079c0.44894,-1.65865 1.60783,-2.92567 2.61011,-4.20421c1.64959,-1.8775 3.60195,-3.61677 6.00325,-4.06599c1.43034,-0.24189 2.85024,-1.62409 4.3119,-0.82932c3.3305,1.27854 6.6088,2.81048 10.14811,3.23666c2.7876,0.34555 5.65872,0.63351 8.44632,0.10367c0.36542,0.27644 0.36542,1.27854 0.55334,1.84294c0.61599,3.10996 1.20065,6.23144 1.53474,9.38748c-0.88744,1.29006 -2.15073,2.39582 -3.25742,3.31729c-1.43034,1.45132 -2.87112,2.9487 -4.6982,3.74347c-0.52202,0.21885 -1.06492,0.24189 -1.60783,0.13822c0,0 0.01044,-0.03456 0,-0.03456c0.14617,-0.90995 -0.08352,-1.75079 -0.64731,-2.05027c-0.75171,-0.39162 -1.77487,0.27644 -2.31778,1.50891c-0.5429,1.24398 -0.3863,2.59163 0.35497,2.99478c0.65775,0.34555 1.55563,-0.10367 2.12985,-1.04817c0.4907,0.13822 0.93964,0.40314 1.23197,0.79477c-0.59511,0.32251 -1.00228,0.86388 -0.97096,1.4398c0.03132,0.90995 1.06492,1.61257 2.30734,1.54346c1.25285,-0.05759 2.22381,-0.8754 2.19249,-1.79687c-0.04176,-0.8178 -0.86656,-1.42828 -1.93148,-1.50891c0.34453,-0.65655 0.63687,-1.33613 1.27373,-1.72776c2.05677,-1.65865 4.08221,-3.42096 6.00325,-5.21782c0.77259,-0.73718 2.12985,-0.89843 2.71451,0.13822c1.19021,1.83142 0.65775,4.27332 0.22969,6.30055l0,0.06911c-0.41762,0.11518 -0.79347,0.29948 -1.08581,0.54136c-0.1044,0.09215 -0.20881,0.19581 -0.29233,0.28796c-0.33409,0.39162 -0.48026,0.85236 -0.3863,1.30158c0.17749,0.88691 1.29461,1.40524 2.50571,1.11728c1.22153,-0.29948 2.07765,-1.26702 1.90016,-2.16545c-0.12529,-0.61047 -0.70995,-1.03665 -1.44078,-1.15184c0.04176,-0.16126 0.08352,-0.34555 0.13573,-0.50681c0.40718,-2.11938 0.66819,-4.63039 -0.65775,-6.43877c-0.4385,-0.84084 -1.44078,-1.50891 -2.05677,-2.26912c-1.11713,-2.23456 -1.3155,-4.88379 -1.62871,-7.38328c-0.1044,-1.10576 0.22969,-2.22305 0.09396,-3.34033c3.36182,-0.49529 6.51483,1.20943 9.65741,2.23456c0.06264,0.14974 0,0.51833 0.04176,0.8178c-0.62643,-0.13822 -1.20065,0 -1.50342,0.4377c-0.50114,0.72566 -0.11484,2.01572 0.877,2.84504s2.20293,0.90995 2.71451,0.17278c0.50114,-0.72566 0.1044,-1.96964 -0.88744,-2.79897c-0.04176,-0.04607 -0.08352,-0.08063 -0.12529,-0.11518c0.25057,-0.08063 0.4907,-0.23037 0.61599,-0.42618c0.31321,-0.44922 -0.07308,-1.02514 0.52202,-1.15184c0.22969,-0.19581 0.48026,-0.48377 0.61599,-0.82932c0.73083,0.80629 1.67047,1.09425 2.25514,0.61047c0.66819,-0.55288 0.61599,-1.88901 -0.12529,-2.98326c-0.75171,-1.10576 -1.92104,-1.5665 -2.57879,-1.01362c-0.5429,0.44922 -0.59511,1.40524 -0.19837,2.33823c-0.24013,0.08063 -0.48026,0.17278 -0.65775,0.28796c-0.70995,0.41466 -1.60783,0.39162 -2.24469,-0.13822c-2.00456,-1.04817 -4.28058,-1.14032 -6.32691,-1.94661c-0.52202,-0.26492 -1.04404,-0.72566 -0.26101,-1.08273c2.66231,-2.78745 5.10538,-5.8283 7.78857,-8.60423c0.39674,-0.41466 0.74127,-0.86388 1.08581,-1.29006c0.82479,0.82932 1.87928,1.04817 2.44306,0.47225c0.60555,-0.63351 0.39674,-1.95812 -0.45938,-2.96022c-0.85612,-0.99058 -2.03589,-1.27854 -2.64143,-0.64503c-0.37586,0.39162 -0.44894,1.04817 -0.22969,1.72776c-2.55791,2.87959 -4.82348,6.07018 -7.538,8.78852c-1.45122,1.73927 -3.2261,3.36337 -5.44991,3.59373c-3.41402,0.52985 -6.82805,-0.38011 -10.21075,-0.86388c-2.71451,-0.52985 -5.39771,-1.57802 -7.56932,-3.49007c-1.0336,-1.09425 -1.87928,-2.53404 -1.98368,-4.18117c-0.20881,-1.61257 0.41762,-3.16755 0.29233,-4.78013c0.01044,-1.0021 0.06264,-2.16545 0.877,-2.77593c1.57651,-2.16545 4.08221,-3.04085 6.10766,-4.60735c0.91876,-0.74869 1.93148,-1.77383 2.87112,-2.66074c1.12757,-1.05969 2.14029,-2.36127 3.09037,-3.55918c0.79347,-0.24189 1.49298,0.50681 2.12985,0.93299c1.32594,0.90995 2.41174,2.2576 3.97781,2.66074c2.19249,0.93299 4.60423,1.38221 6.91157,0.72566c0.51158,-0.14974 1.0336,-0.35707 1.53474,-0.57592c0.44894,1.18639 1.37814,1.90053 2.11941,1.61257c0.78303,-0.29948 1.06492,-1.61257 0.65775,-2.91415c-0.41762,-1.29006 -1.40946,-2.10786 -2.19249,-1.79687c-0.51158,0.19581 -0.78303,0.84084 -0.81435,1.61257c-1.02316,0.16126 -1.95236,0.71414 -2.96509,0.90995c-0.5429,-0.8754 0.04176,-2.0042 -0.09396,-2.99478c1.01272,-0.02304 1.8584,-0.57592 1.95236,-1.37069c0.1044,-0.89843 -0.81435,-1.80839 -2.05677,-1.96964c-1.23197,-0.17278 -2.33866,0.44922 -2.44306,1.35917c-0.08352,0.73718 0.52202,1.42828 1.39902,1.76231c-0.34453,0.88691 -0.06264,2.36127 -1.07537,2.67226c-1.11713,0.2534 -2.21337,-0.33403 -3.13213,-1.01362c-1.34682,-1.02514 -2.75628,-1.96964 -4.2075,-2.76441c-1.11713,-0.82932 -0.76215,-2.60315 -0.68907,-3.89321c0.1044,-1.48587 0.4385,-3.32881 1.82708,-3.88169c0.11484,1.18639 0.72039,2.08483 1.4721,2.08483c0.82479,0 1.50342,-1.10576 1.50342,-2.48797c0,-1.37069 -0.67863,-2.47645 -1.50342,-2.47645c-0.77259,0 -1.37814,0.95603 -1.4721,2.18849c-0.13573,-0.16126 -0.33409,-0.28796 -0.52202,-0.2534c-0.42806,-0.13822 -1.35726,0.86388 -0.97096,-0.06911l0.03132,-0.13822c0.70995,-0.27644 1.20065,-0.86388 1.20065,-1.52043c0,-0.90995 -0.96052,-1.64713 -2.15073,-1.64713c-0.59511,0 -1.10669,0.19581 -1.50342,0.49529c-0.18793,0.14974 -0.37586,0.311 -0.4907,0.50681c-0.1044,0.19581 -0.15661,0.41466 -0.15661,0.64503c0,0.8754 0.877,1.58954 1.98368,1.65865c-0.07308,0.27644 -0.13573,0.5644 -0.21925,0.79477c-0.79347,2.71834 -0.15661,5.86285 -1.76443,8.28171c-1.61827,2.51101 -3.7168,4.71102 -6.13898,6.28903c-3.07993,2.14242 -6.28514,4.21573 -9.78269,5.36756c-1.62871,0.28796 -3.2783,-1.0021 -3.52887,-2.81048c-0.3863,-1.26702 -1.62871,-2.01572 -2.05677,-3.30577c-0.4385,-3.35185 -0.9292,-6.68066 -1.16933,-10.04402c-0.37586,-2.15394 -1.0336,-4.2618 -1.3677,-6.40422c0.27145,-1.75079 1.43034,-3.24818 2.79804,-4.06599c0.75171,-0.51833 1.43034,0.18429 1.93148,0.74869c0.57422,0.70262 1.4721,0.8754 1.92104,1.72776c0.16705,0.26492 0.16705,0.71414 0.26101,1.04817c-0.93964,0.41466 -1.56607,1.24398 -1.39902,2.01572c0.18793,0.88691 1.32594,1.35917 2.54747,1.03665c1.21109,-0.311 2.04633,-1.30158 1.8584,-2.18849c-0.14617,-0.6911 -0.877,-1.14032 -1.76443,-1.15184c0.06264,-0.16126 0.13573,-0.32251 0.29233,-0.40314c0.50114,-0.6911 1.48254,-0.90995 2.02545,-1.54346c0.95008,0.82932 2.11941,0.94451 2.64143,0.2534c0.52202,-0.71414 0.17749,-1.96964 -0.78303,-2.84504s-2.18205,-0.99058 -2.70407,-0.28796c-0.13573,0.17278 -0.20881,0.38011 -0.22969,0.61047c-0.03132,0.23037 -0.01044,0.49529 0.06264,0.76021c0.02088,0.06911 0.04176,0.13822 0.06264,0.21885c-0.74127,0.59896 -1.58695,1.16336 -2.50571,0.71414c-0.78303,-0.35707 -1.23197,-1.15184 -1.76443,-1.72776c-0.93964,-0.70262 -1.84796,-1.5665 -2.38042,-2.66074c-0.36542,-0.70262 0.26101,-1.22095 0.84568,-1.22095c0.77259,-0.17278 1.60783,-0.34555 2.31778,-0.76021c0.69951,0.90995 1.66003,1.29006 2.28646,0.82932c0.67863,-0.51833 0.68907,-1.85446 0,-2.99478c-0.61599,-0.99058 -1.56607,-1.52043 -2.25514,-1.29006c-0.1044,0.03456 -0.17749,0.08063 -0.26101,0.13822c-0.08352,0.06911 -0.16705,0.17278 -0.22969,0.2534c-0.20881,0.28796 -0.31321,0.66807 -0.29233,1.11728c-1.13801,0.34555 -2.02545,1.55498 -3.2261,1.62409c0.56378,-0.88691 0.64731,-1.86598 0.15661,-2.41886c-0.58466,-0.64503 -1.75399,-0.41466 -2.64143,0.54136c-0.33409,0.36859 -0.57422,0.78325 -0.72039,1.18639c-0.04176,0.13822 -0.1044,0.26492 -0.12529,0.40314c-0.1044,0.52985 0,1.03665 0.29233,1.37069c0.4385,0.49529 1.24241,0.42618 1.99412,-0.04607c0.28189,1.20943 1.17977,2.36127 0.67863,3.60525c-0.91876,1.33613 -2.05677,2.58012 -3.3305,3.52462c-1.78532,0.41466 -3.2783,-1.07121 -4.65644,-2.08483c-2.43262,-1.72776 -5.31418,-2.58012 -7.6424,-4.50368c-0.48026,-0.47225 -0.99184,-0.90995 -1.16933,-1.64713c-0.04176,-0.13822 -0.08352,-0.29948 -0.13573,-0.4377c0.91876,-0.52985 1.45122,-1.4398 1.21109,-2.20001c-0.20881,-0.64503 -0.91876,-0.99058 -1.76443,-0.93299z" fill="#ffd42a" id="path3663"/>
   <path stroke="#532e83" fill="#503282" stroke-width="0.57448" fill-rule="evenodd" d="m58.20545,45.10679c0,3.37488 -3.13213,7.07228 -6.76541,7.07228c-3.64371,0 -6.59836,-2.72986 -6.59836,-6.10474s3.13213,-7.07228 6.76541,-7.07228c1.82708,0 3.47667,0.67958 4.66688,1.78535s1.93148,2.63771 1.93148,4.31939z" opacity="0.77778" id="path4695"/>
   <path stroke="null" fill="url(#radialGradient2723)" filter="url(#filter15084)" fill-rule="evenodd" d="m54.99075,50.20225c0,0.59339 -2.35548,1.75395 -4.61069,1.75395c-2.25604,0 -3.73514,-2.06583 -3.73514,-2.65923c0,-0.59342 1.24643,1.18816 3.50164,1.18816s4.84419,-0.8763 4.84419,-0.28288z" opacity="0.77061" id="path4697"/>
   <path stroke="null" fill="url(#radialGradient2721)" filter="url(#filter15084)" fill-rule="evenodd" d="m59.85006,47.42704c0.4355,0.41665 -0.36684,2.85725 -1.95102,4.41329s-4.1406,1.12597 -4.57629,0.70913s1.74793,-0.02539 3.3321,-1.58143s2.75951,-3.95782 3.19521,-3.54098z" opacity="0.77061" id="path4699"/>
   <path stroke="null" fill="url(#radialGradient2723)" filter="url(#filter15084)" fill-rule="evenodd" d="m54.99075,50.20225c0,0.59339 -2.35548,1.75395 -4.61069,1.75395c-2.25604,0 -3.73514,-2.06583 -3.73514,-2.65923c0,-0.59342 1.24643,1.18816 3.50164,1.18816s4.84419,-0.8763 4.84419,-0.28288z" opacity="0.77061" id="path4701"/>
   <path stroke="null" fill="url(#radialGradient2723)" filter="url(#filter15084)" fill-rule="evenodd" d="m54.99075,50.20225c0,0.59339 -2.35548,1.75395 -4.61069,1.75395c-2.25604,0 -3.73514,-2.06583 -3.73514,-2.65923c0,-0.59342 1.24643,1.18816 3.50164,1.18816s4.84419,-0.8763 4.84419,-0.28288z" opacity="0.77061" id="path4703"/>
   <path stroke="null" fill="#ffd5d5" fill-opacity="0.20635" fill-rule="evenodd" d="m58.6335,45.16438c0,3.73195 -3.3305,7.8325 -7.2039,7.8325s-7.01598,-3.02933 -7.01598,-6.77281c0,-3.73195 3.3305,-7.8325 7.2039,-7.8325c1.93148,0 3.69592,0.76021 4.95921,1.98116c1.27373,1.22095 2.05677,2.91415 2.05677,4.79164z" opacity="0.806" id="path4705"/>
   <path stroke="null" d="m44.52847,8.19039c-0.01044,2.9487 2.16117,0.26492 3.81076,0.8178c2.63099,1.11728 4.94877,2.08483 6.69232,3.34033c3.2783,2.53404 5.2933,3.59373 6.59836,8.51208c0.42806,2.91415 0.99184,6.93406 0.61599,9.97491c-0.11484,1.34765 -1.84796,3.63981 -2.70407,4.67646c-1.26329,1.64713 -3.4349,2.11938 -5.38727,2.09634c-1.8584,-0.06911 -3.92561,0.52985 -5.75268,0.1267c-2.20293,-0.50681 -7.21434,-1.1288 -9.15627,-2.34975c-3.47667,-2.08483 -2.47438,-1.78535 -3.8212,-6.85343c-2.25514,-0.93299 -2.87112,-7.00317 -3.85252,-8.9037c-0.61599,-0.33403 -1.29461,0.48377 -1.06492,1.09425c0.06264,1.77383 1.78532,4.03143 0.52202,5.42516c-0.79347,0.85236 -4.04045,0.40314 -4.60423,-0.63351c-0.40718,-0.5644 -1.08581,-1.2555 -1.82708,-0.8754c-0.79347,0.32251 -1.34682,1.5665 -0.65775,2.2576c1.27373,0.8178 3.24698,1.65865 4.646,2.15394c0.96052,0.26492 2.4535,-0.50681 3.42446,-0.17278s1.8584,2.0042 2.4535,2.87959c0.55334,2.68378 1.08581,6.91103 -1.84796,7.14139c-1.14845,1.29006 -3.2261,2.66074 -4.87569,2.07331c-1.87928,0.80629 -2.38042,-4.1351 -4.05089,-2.09634c-0.24013,-0.311 -0.96052,-0.04607 -0.60555,0.34555c0.75171,0.65655 2.68319,2.31519 2.20293,3.32881c-0.18793,0.46074 -1.93148,0.46074 -2.46394,0.29948c-0.5429,0.17278 -0.25057,2.46493 0.28189,2.34975c3.53931,-0.1267 5.53343,-1.29006 8.06002,-2.33823c3.06949,-1.11728 4.646,-3.58221 7.41271,-4.05447c2.63099,-0.32251 7.42315,0.85236 10.06458,1.8199c1.02316,0.06911 2.06721,0.59896 2.53703,1.57802c0.93964,1.52043 0.75171,3.39792 0.67863,5.11416c-0.21925,2.41886 -0.40718,4.98746 -1.78532,7.04925c-1.29461,1.84294 -3.48711,2.59163 -5.49167,3.32881c-4.44763,1.63561 -9.26067,2.10786 -13.94843,1.55498c-1.38858,-0.14974 -2.81892,-0.26492 -4.11353,-0.82932c-1.94192,-1.04817 -3.29918,-2.89111 -5.09493,-4.14662c-1.86884,-1.52043 -3.90472,-2.83352 -6.10766,-3.78955c-0.24013,-0.28796 -0.80391,-0.58744 -1.07537,-0.20733c-0.1044,0.58744 -0.04176,2.02723 0.35497,2.28064c2.62055,1.95812 6.24338,3.12148 7.54844,6.25448c0.58466,0.99058 -0.20881,2.5686 -1.37814,2.84504c-1.9628,0.57592 -4.03001,0.311 -6.04501,0.4377c-0.64731,-0.01152 -1.3155,0.1267 -1.94192,0c-0.46982,0.14974 -1.24241,2.66074 -0.67863,2.51101c4.62511,0.41466 11.54713,-0.28796 12.81042,-2.98326c2.75628,-1.15184 5.50211,-0.47225 6.68188,0.2534c0.83524,1.47435 -1.12757,3.09844 -4.54159,6.47333c-0.69951,1.40524 -2.17161,2.23456 -1.51386,3.54766c0.18793,0.44922 0.57422,0.94451 1.07537,0.62199c0.70995,-0.40314 1.04404,-1.23247 1.59739,-1.80839c2.41174,-3.02933 4.91745,-6.11626 8.23751,-8.14349c3.01729,-1.70472 6.50439,-1.55498 9.74093,-2.60315c2.14029,-0.58744 4.2597,-1.78535 6.46263,-2.05027c1.48254,0.02304 7.70504,-0.08063 8.30015,1.34765c1.16933,2.10786 -0.19837,5.67856 -0.52202,7.59061c-0.66819,6.12778 -0.69951,9.9058 -7.87209,16.87442c-2.22381,2.3843 -3.84208,0.28796 -7.05774,0.33403c-0.39674,0.1267 -1.13801,-0.17278 -1.29461,0.2534c0.02088,0.5644 -0.14617,1.79687 0.27145,1.79687c5.19934,-0.41466 4.51027,0.28796 3.36182,2.33823c-0.57422,1.39372 0.04176,1.09425 0.55334,1.27854c1.35726,-0.23037 2.02545,-1.62409 3.01729,-2.4419c2.76672,-2.70682 7.6946,-7.19898 9.19803,-11.12675c1.93148,-0.47225 2.44306,1.93509 5.98237,4.56128c1.43034,1.93509 -0.11484,4.87227 1.40946,6.73825c0.58466,0.33403 2.28646,0.66807 1.33638,-1.29006c-0.18793,-0.80629 -1.10669,-2.55708 -0.42806,-3.20211c0.70995,-0.36859 2.69363,1.1288 3.93605,1.61257c1.82708,0.71414 -0.22969,2.77593 0.45938,3.04085c0.34453,1.02514 2.03589,-0.27644 2.39086,-1.78535c1.00228,0.14974 1.95236,-0.39162 2.96509,-0.67958c-0.07308,-4.27332 -1.9106,-1.20943 -2.85024,-1.23247c-2.12985,-1.1288 -4.22838,-2.32671 -6.28514,-3.59373c-2.06721,-1.2555 -3.44535,-3.04085 -5.44991,-4.40002c-0.69951,-2.14242 -2.61011,-1.85446 -2.30734,-4.76861c0.22969,-3.39792 1.16933,-6.23144 1.90016,-10.12465c1.01272,-2.15394 2.51615,-4.04295 4.29102,-5.57489c1.24241,-1.10576 2.71451,-2.0042 4.37454,-2.2576c1.26329,-0.24189 2.54747,-1.4398 3.72724,-0.92147c2.30734,0.86388 5.72136,2.43038 8.14354,2.89111c3.17389,0.78325 8.58204,1.15184 10.85806,0.57592c0.53246,1.86598 1.92104,10.26287 1.92104,11.05764c-1.68091,2.33823 -2.64143,2.45341 -3.93605,4.06599c-3.61239,3.32881 -4.65644,3.66284 -6.76541,2.66074c-0.877,3.19059 1.0336,0.73718 2.27602,3.42096c1.81664,-0.26492 1.35726,-1.70472 2.32822,-2.41886c1.4721,-1.08273 4.83392,-4.08902 5.1367,-4.30787c2.51615,-2.83352 3.49755,-1.73927 4.16574,-0.27644c0.75171,2.16545 -0.1044,4.37698 -0.42806,6.93406c0.52202,0.311 1.50342,0.2534 1.90016,-2.6953c0.76215,-4.5728 -0.73083,-6.07018 -2.71451,-7.87857c-1.11713,-1.83142 -1.46166,-5.04505 -1.71223,-7.38328c-0.14617,-1.27854 0.17749,-2.08483 0.04176,-3.36337c2.93376,-0.5644 7.36051,1.53194 9.52168,2.24608c-0.55334,2.26912 2.46394,1.58954 1.98368,-0.05759c0.68907,-0.11518 1.49298,-1.48587 0.99184,-2.1309c-0.72039,-0.94451 -1.88972,1.32461 -3.45579,0.08063c-3.12169,-1.58954 -6.08678,-1.29006 -7.0995,-2.53404c1.68091,-1.52043 4.05089,-4.5152 5.09493,-5.55186c1.75399,-2.18849 3.99869,-3.93928 5.41859,-6.40422c0.27145,-0.8178 -1.08581,-1.46283 -1.49298,-0.67958c-3.57063,3.9508 -5.00097,6.266 -8.10178,9.43355c-1.33638,1.64713 -3.28874,3.43248 -5.43947,3.68588c-2.88156,0.52985 -6.48351,-0.21885 -9.36507,-0.66807c-2.15073,-0.311 -4.2597,-0.97906 -6.19118,-2.01572c-1.27373,-0.74869 -2.55791,-1.63561 -3.3305,-2.96022c-0.96052,-1.58954 -1.14845,-3.60525 -0.73083,-5.41364c0.33409,-1.4398 -0.26101,-3.84714 0.88744,-4.72253c1.50342,-2.14242 4.14485,-3.09844 6.1703,-4.63039c2.50571,-2.40734 3.51843,-3.02933 5.94061,-6.25448c0.93964,-0.50681 4.12397,2.90263 5.04273,3.20211c1.62871,0.58744 3.23654,1.35917 4.98009,1.40524c1.73311,0.1267 3.47667,-0.311 5.02185,-1.08273c0.57422,0.19581 0.4385,-1.58954 -0.18793,-1.54346c-1.21109,-0.03456 -2.56835,0.84084 -3.50799,0.94451c-0.50114,-0.65655 0.55334,-3.60525 -0.4907,-3.6974c-1.97324,-0.16126 0,3.93928 -2.92332,3.16755c-0.9814,0.1267 -3.93605,-2.62619 -4.88613,-2.96022c-1.23197,-0.86388 -2.10897,-0.67958 -2.05677,-3.01781c0.11484,-3.9508 0.79347,-4.90683 1.9106,-5.3906c0.56378,-0.33403 -0.08352,-1.67016 -1.51386,-0.80629c0.31321,-1.49739 -0.31321,-1.16336 -0.96052,-1.05969c-1.25285,3.05237 -0.74127,5.02201 -1.4199,7.86705c-0.40718,1.70472 -1.93148,3.55918 -3.10081,4.89531c-1.57651,1.86598 -3.66459,3.15603 -5.64828,4.52672c-2.46394,1.61257 -5.03229,3.12148 -7.79901,4.08902c-1.59739,0.38011 -3.28874,-0.92147 -3.54975,-2.55708c-0.19837,-1.20943 -1.93148,-2.43038 -2.11941,-3.63981c-0.35497,-3.08692 -0.81435,-5.69008 -1.02316,-8.80004c-0.08352,-1.71624 -0.80391,-4.16965 -1.4721,-7.30265c0.14617,-1.62409 1.59739,-3.60525 3.01729,-4.18117c0.85612,-0.38011 1.40946,0.96754 2.52659,1.64713c2.00456,1.07121 0.22969,2.83352 2.4013,2.28064c0.26101,-2.18849 4.09265,-1.91205 2.43262,-4.20421c-0.85612,-1.19791 -2.25514,3.5131 -5.07405,-0.8178c-0.80391,-0.51833 -2.76672,-2.30368 -2.50571,-3.20211c0.13573,-0.77173 3.14257,-0.33403 4.29102,-2.29216c-1.88972,-3.47855 -4.10309,1.86598 -6.04501,0.21885c-1.17977,1.24398 1.39902,3.76651 0.35497,5.11416c-0.78303,1.22095 -1.9628,2.39582 -3.07993,3.31729c-1.11713,0.38011 -2.39086,-0.29948 -3.48711,-1.15184c-3.04861,-2.62619 -6.80717,-3.3864 -9.26067,-5.83982c-0.89788,-0.5644 -0.60555,-3.04085 -2.12985,-2.21153c-0.57422,0.58744 -0.33409,2.01572 0.24013,2.822c0.15661,0.79477 -0.19837,0.97906 -1.5243,1.46283z" fill="none" filter="url(#filter3615)" id="path3746"/>
   <path stroke="null" fill="url(#radialGradient4348)" filter="url(#filter5024)" d="m15.78906,24.79523a1.30651,2.16205 0 1 1 -2.61066,-1.64584a1.30651,2.16205 0 1 1 2.61066,1.64584z" opacity="0.5" id="path3806"/>
   <path stroke="null" fill="url(#radialGradient4348)" filter="url(#filter5020)" d="m21.4774,20.06618a0.53647,0.88777 0 1 1 -1.07197,-3.09931a0.53647,0.88777 0 1 1 1.07197,3.09931z" opacity="0.5" id="path3808"/>
   <path stroke="null" fill="url(#radialGradient4348)" filter="url(#filter5016)" d="m36.05289,7.36417a1.35436,2.24124 0 1 1 -2.70628,1.44571a1.35436,2.24124 0 1 1 2.70628,-1.44571z" opacity="0.5" id="path3810"/>
   <path stroke="null" fill="url(#radialGradient4348)" filter="url(#filter5012)" d="m37.56433,3.47792a0.50612,0.83754 0 1 1 -1.01132,-3.12403a0.50612,0.83754 0 1 1 1.01132,3.12403z" opacity="0.5" id="path3812"/>
   <path stroke="null" fill="url(#radialGradient4348)" filter="url(#filter5008)" d="m61.52665,1.93402a1.24662,2.06295 0 1 1 -2.49099,1.85792a1.24662,2.06295 0 1 1 2.49099,-1.85792z" opacity="0.5" id="path3814"/>
   <path stroke="null" fill="url(#radialGradient4348)" filter="url(#filter5004)" d="m54.87662,4.28507a1.05613,1.74772 0 1 1 -2.11036,-2.36301a1.05613,1.74772 0 1 1 2.11036,2.36301z" opacity="0.5" id="path3816"/>
   <path stroke="null" fill="url(#radialGradient4348)" filter="url(#filter5000)" d="m65.53494,8.46467a0.95514,1.5806 0 1 1 -1.90857,2.56337a0.95514,1.5806 0 1 1 1.90857,-2.56337z" opacity="0.5" id="path3818"/>
   <path stroke="null" fill="url(#svg_6)" filter="url(#filter4996)" d="m60.58719,13.11059a-0.34193,-0.56584 0 1 1 0.68325,3.23051a-0.34193,-0.56584 0 1 1 -0.68325,-3.23051z" opacity="0.5" id="path3820"/>
   <path stroke="null" fill="url(#radialGradient4348)" filter="url(#filter4992)" d="m84.78681,16.26823a1.50478,2.49016 0 1 1 -3.00685,0a1.50478,2.49016 0 1 1 3.00685,0z" opacity="0.5" id="path3822"/>
   <path stroke="null" fill="url(#radialGradient4348)" filter="url(#filter4988)" d="m81.5621,14.0128a2.14973,1.66011 0 1 1 -4.29558,0a2.14973,1.66011 0 1 1 4.29558,0z" opacity="0.5" id="path3825"/>
   <path stroke="null" fill="url(#radialGradient4348)" filter="url(#filter4984)" d="m90.1301,22.43896a0.18664,0.30885 0 1 1 -0.37294,3.29168a0.18664,0.30885 0 1 1 0.37294,-3.29168z" opacity="0.5" id="path3827"/>
   <path stroke="null" fill="url(#radialGradient4348)" filter="url(#filter4980)" d="m96.30539,28.04831a1.41899,2.34819 0 1 1 -2.83543,1.10406a1.41899,2.34819 0 1 1 2.83543,-1.10406z" opacity="0.5" id="path3829"/>
   <path stroke="null" fill="url(#radialGradient4348)" filter="url(#filter4976)" d="m101.35577,39.08402a1.09143,1.80614 0 1 1 -2.1809,2.28372a1.09143,1.80614 0 1 1 2.1809,-2.28372z" opacity="0.5" id="path3831"/>
   <path stroke="null" fill="url(#radialGradient4348)" filter="url(#filter4972)" d="m102.75339,52.97783a1.20146,1.98822 0 1 1 -2.40076,1.99731a1.20146,1.98822 0 1 1 2.40076,-1.99731z" opacity="0.5" id="path3833"/>
   <path stroke="null" fill="url(#radialGradient4348)" filter="url(#filter4968)" d="m99.02254,57.87473a0.91117,1.50784 0 1 1 -1.82071,2.64a0.91117,1.50784 0 1 1 1.82071,-2.64z" opacity="0.5" id="path3835"/>
   <path stroke="null" fill="url(#svg_5)" filter="url(#filter4964)" d="m91.13295,74.16798a-0.3229,-0.53434 0 1 1 0.64521,3.24003a-0.3229,-0.53434 0 1 1 -0.64521,-3.24003z" opacity="0.5" id="path3837"/>
   <path stroke="null" fill="url(#svg_4)" filter="url(#filter4960)" d="m80.4206,74.61235a-0.06923,-0.11456 0 1 1 0.13833,3.31378a-0.06923,-0.11456 0 1 1 -0.13833,-3.31378z" opacity="0.5" id="path3839"/>
   <path stroke="null" fill="url(#radialGradient4348)" filter="url(#filter4956)" d="m78.17836,73.66373a1.35557,2.24323 0 1 1 -2.70869,-1.44017a1.35557,2.24323 0 1 1 2.70869,1.44017z" opacity="0.5" id="path3841"/>
   <path stroke="null" fill="url(#radialGradient4348)" filter="url(#filter4952)" d="m71.45436,82.19711a1.50478,2.49016 0 1 1 -3.00685,0a1.50478,2.49016 0 1 1 3.00685,0z" opacity="0.5" id="path3843"/>
   <path stroke="null" fill="url(#radialGradient4348)" filter="url(#filter4948)" d="m64.93896,86.03782a0.35266,0.58359 0 1 1 -0.70468,3.22491a0.35266,0.58359 0 1 1 0.70468,-3.22491z" opacity="0.5" id="path3845"/>
   <path stroke="null" fill="url(#radialGradient4348)" filter="url(#filter4944)" d="m59.21568,85.04526a0.00918,0.01518 0 1 1 -0.01833,3.31723a0.00918,0.01518 0 1 1 0.01833,-3.31723z" opacity="0.5" id="path3847"/>
   <path stroke="null" fill="url(#radialGradient4348)" filter="url(#filter4940)" d="m40.58235,87.53547a1.15189,1.90619 0 1 1 -2.30171,2.13451a1.15189,1.90619 0 1 1 2.30171,-2.13451z" opacity="0.5" id="path3849"/>
   <path stroke="null" fill="url(#radialGradient4348)" filter="url(#filter4936)" d="m36.59137,83.99069a1.46653,2.42686 0 1 1 -2.93041,-0.74321a1.46653,2.42686 0 1 1 2.93041,0.74321z" opacity="0.5" id="path3851"/>
   <path stroke="null" fill="url(#radialGradient4348)" filter="url(#filter4932)" d="m16.89872,69.69543a1.11345,1.84257 0 1 1 -2.22489,2.23144a1.11345,1.84257 0 1 1 2.22489,-2.23144z" opacity="0.5" id="path3853"/>
   <path stroke="null" fill="url(#radialGradient4348)" filter="url(#filter4928)" d="m3.52677,62.0388a1.50478,2.49016 0 1 1 -3.00685,0a1.50478,2.49016 0 1 1 3.00685,0z" opacity="0.5" id="path3855"/>
   <path stroke="null" fill="url(#radialGradient4348)" filter="url(#filter4924)" d="m6.1212,50.52612a1.30651,2.16205 0 1 1 -2.61066,-1.64584a1.30651,2.16205 0 1 1 2.61066,1.64584z" opacity="0.5" id="path3857"/>
   <path stroke="null" fill="url(#radialGradient4348)" filter="url(#filter4920)" d="m14.76901,42.57583a1.35436,2.24124 0 1 1 -2.70628,1.44571a1.35436,2.24124 0 1 1 2.70628,-1.44571z" opacity="0.5" id="path3859"/>
   <path stroke="null" fill="url(#radialGradient4348)" filter="url(#filter4916)" d="m15.97553,38.31726a1.05613,1.74772 0 1 1 -2.11036,-2.36301a1.05613,1.74772 0 1 1 2.11036,2.36301z" opacity="0.5" id="path3861"/>
   <path stroke="null" fill="url(#radialGradient4348)" filter="url(#filter4912)" d="m15.78906,24.79523a1.30651,2.16205 0 1 1 -2.61066,-1.64584a1.30651,2.16205 0 1 1 2.61066,1.64584z" opacity="0.5" id="path3865"/>
   <path stroke="null" fill="url(#radialGradient4348)" filter="url(#filter4908)" d="m21.4774,20.06618a0.53647,0.88777 0 1 1 -1.07197,-3.09931a0.53647,0.88777 0 1 1 1.07197,3.09931z" opacity="0.5" id="path3867"/>
   <path stroke="null" fill="url(#radialGradient4348)" filter="url(#filter4904)" d="m36.05289,7.36417a1.35436,2.24124 0 1 1 -2.70628,1.44571a1.35436,2.24124 0 1 1 2.70628,-1.44571z" opacity="0.5" id="path3869"/>
   <path stroke="null" fill="url(#radialGradient4348)" filter="url(#filter4900)" d="m37.56433,3.47792a0.50612,0.83754 0 1 1 -1.01132,-3.12403a0.50612,0.83754 0 1 1 1.01132,3.12403z" opacity="0.5" id="path3871"/>
   <path stroke="null" fill="url(#radialGradient4348)" filter="url(#filter4896)" d="m61.52665,1.93402a1.24662,2.06295 0 1 1 -2.49099,1.85792a1.24662,2.06295 0 1 1 2.49099,-1.85792z" opacity="0.5" id="path3873"/>
   <path stroke="null" fill="url(#radialGradient4348)" filter="url(#filter4892)" d="m54.87662,4.28507a1.05613,1.74772 0 1 1 -2.11036,-2.36301a1.05613,1.74772 0 1 1 2.11036,2.36301z" opacity="0.5" id="path3875"/>
   <path stroke="null" fill="url(#radialGradient4348)" filter="url(#filter4888)" d="m65.53494,8.46467a0.95514,1.5806 0 1 1 -1.90857,2.56337a0.95514,1.5806 0 1 1 1.90857,-2.56337z" opacity="0.5" id="path3877"/>
   <path stroke="null" fill="url(#svg_3)" filter="url(#filter4884)" d="m60.58719,13.11059a-0.34193,-0.56584 0 1 1 0.68325,3.23051a-0.34193,-0.56584 0 1 1 -0.68325,-3.23051z" opacity="0.5" id="path3879"/>
   <path stroke="null" fill="url(#radialGradient4348)" filter="url(#filter4880)" d="m84.78681,16.26823a1.50478,2.49016 0 1 1 -3.00685,0a1.50478,2.49016 0 1 1 3.00685,0z" opacity="0.5" id="path3881"/>
   <path stroke="null" fill="url(#radialGradient4348)" filter="url(#filter4876)" d="m81.5621,14.0128a2.14973,1.66011 0 1 1 -4.29558,0a2.14973,1.66011 0 1 1 4.29558,0z" opacity="0.5" id="path3883"/>
   <path stroke="null" fill="url(#radialGradient4348)" filter="url(#filter4872)" d="m90.1301,22.43896a0.18664,0.30885 0 1 1 -0.37294,3.29168a0.18664,0.30885 0 1 1 0.37294,-3.29168z" opacity="0.5" id="path3885"/>
   <path stroke="null" fill="url(#radialGradient4348)" filter="url(#filter4868)" d="m96.30539,28.04831a1.41899,2.34819 0 1 1 -2.83543,1.10406a1.41899,2.34819 0 1 1 2.83543,-1.10406z" opacity="0.5" id="path3887"/>
   <path stroke="null" fill="url(#radialGradient4348)" filter="url(#filter4864)" d="m101.35577,39.08402a1.09143,1.80614 0 1 1 -2.1809,2.28372a1.09143,1.80614 0 1 1 2.1809,-2.28372z" opacity="0.5" id="path3889"/>
   <path stroke="null" fill="url(#radialGradient4348)" filter="url(#filter4860)" d="m102.75339,52.97783a1.20146,1.98822 0 1 1 -2.40076,1.99731a1.20146,1.98822 0 1 1 2.40076,-1.99731z" opacity="0.5" id="path3891"/>
   <path stroke="null" fill="url(#radialGradient4348)" filter="url(#filter4856)" d="m99.02254,57.87473a0.91117,1.50784 0 1 1 -1.82071,2.64a0.91117,1.50784 0 1 1 1.82071,-2.64z" opacity="0.5" id="path3893"/>
   <path stroke="null" fill="url(#svg_2)" filter="url(#filter4852)" d="m91.13295,74.16798a-0.3229,-0.53434 0 1 1 0.64521,3.24003a-0.3229,-0.53434 0 1 1 -0.64521,-3.24003z" opacity="0.5" id="path3895"/>
   <path stroke="null" fill="url(#svg_1)" filter="url(#filter4848)" d="m80.4206,74.61235a-0.06923,-0.11456 0 1 1 0.13833,3.31378a-0.06923,-0.11456 0 1 1 -0.13833,-3.31378z" opacity="0.5" id="path3897"/>
   <path stroke="null" fill="url(#radialGradient4348)" filter="url(#filter4844)" d="m78.17836,73.66373a1.35557,2.24323 0 1 1 -2.70869,-1.44017a1.35557,2.24323 0 1 1 2.70869,1.44017z" opacity="0.5" id="path3899"/>
   <path stroke="null" fill="url(#radialGradient4348)" filter="url(#filter4840)" d="m71.45436,82.19711a1.50478,2.49016 0 1 1 -3.00685,0a1.50478,2.49016 0 1 1 3.00685,0z" opacity="0.5" id="path3901"/>
   <path stroke="null" fill="url(#radialGradient4348)" filter="url(#filter4836)" d="m64.93896,86.03782a0.35266,0.58359 0 1 1 -0.70468,3.22491a0.35266,0.58359 0 1 1 0.70468,-3.22491z" opacity="0.5" id="path3903"/>
   <path stroke="null" fill="url(#radialGradient4348)" filter="url(#filter4832)" d="m59.21568,85.04526a0.00918,0.01518 0 1 1 -0.01833,3.31723a0.00918,0.01518 0 1 1 0.01833,-3.31723z" opacity="0.5" id="path3905"/>
   <path stroke="null" fill="url(#radialGradient4348)" filter="url(#filter4828)" d="m40.58235,87.53547a1.15189,1.90619 0 1 1 -2.30171,2.13451a1.15189,1.90619 0 1 1 2.30171,-2.13451z" opacity="0.5" id="path3907"/>
   <path stroke="null" fill="url(#radialGradient4348)" filter="url(#filter4824)" d="m36.59137,83.99069a1.46653,2.42686 0 1 1 -2.93041,-0.74321a1.46653,2.42686 0 1 1 2.93041,0.74321z" opacity="0.5" id="path3909"/>
   <path stroke="null" fill="url(#radialGradient4348)" filter="url(#filter4820)" d="m16.89872,69.69543a1.11345,1.84257 0 1 1 -2.22489,2.23144a1.11345,1.84257 0 1 1 2.22489,-2.23144z" opacity="0.5" id="path3911"/>
   <path stroke="null" fill="url(#radialGradient4348)" filter="url(#filter4816)" d="m3.52677,62.0388a1.50478,2.49016 0 1 1 -3.00685,0a1.50478,2.49016 0 1 1 3.00685,0z" opacity="0.5" id="path3913"/>
   <path stroke="null" fill="url(#radialGradient4348)" filter="url(#filter4812)" d="m6.1212,50.52612a1.30651,2.16205 0 1 1 -2.61066,-1.64584a1.30651,2.16205 0 1 1 2.61066,1.64584z" opacity="0.5" id="path3915"/>
   <path stroke="null" fill="url(#radialGradient4348)" filter="url(#filter4808)" d="m14.76901,42.57583a1.35436,2.24124 0 1 1 -2.70628,1.44571a1.35436,2.24124 0 1 1 2.70628,-1.44571z" opacity="0.5" id="path3917"/>
   <path stroke="null" fill="url(#radialGradient4348)" filter="url(#filter4804)" d="m15.97553,38.31726a1.05613,1.74772 0 1 1 -2.11036,-2.36301a1.05613,1.74772 0 1 1 2.11036,2.36301z" opacity="0.5" id="path3919"/>
  </g>
 </g>
</svg>