<?xml version="1.0" encoding="UTF-8" standalone="no"?>
<svg
   xmlns:dc="http://purl.org/dc/elements/1.1/"
   xmlns:cc="http://creativecommons.org/ns#"
   xmlns:rdf="http://www.w3.org/1999/02/22-rdf-syntax-ns#"
   xmlns:svg="http://www.w3.org/2000/svg"
   xmlns="http://www.w3.org/2000/svg"
   xmlns:sodipodi="http://sodipodi.sourceforge.net/DTD/sodipodi-0.dtd"
   xmlns:inkscape="http://www.inkscape.org/namespaces/inkscape"
   id="svg3825"
   viewBox="0 0 256 256"
   version="1.1"
   inkscape:version="0.91 r13725"
   sodipodi:docname="chemistry-ideogram-colour.svg">
  <defs
     id="defs16180" />
  <sodipodi:namedview
     pagecolor="#ffffff"
     bordercolor="#666666"
     borderopacity="1"
     objecttolerance="10"
     gridtolerance="10"
     guidetolerance="10"
     inkscape:pageopacity="0"
     inkscape:pageshadow="2"
     inkscape:window-width="1916"
     inkscape:window-height="1035"
     id="namedview16178"
     showgrid="false"
     inkscape:zoom="1.2232947"
     inkscape:cx="166.00255"
     inkscape:cy="90.342446"
     inkscape:window-x="4"
     inkscape:window-y="1"
     inkscape:window-maximized="1"
     inkscape:current-layer="layer1" />
  <g
     id="layer1"
     transform="translate(-203.43 -332.93)">
    <g
       id="g16726">
      <path
         d="m 282.09139,439.7043 c -0.12147,-0.005 -0.22253,0.0222 -0.34376,0.0312 -1.0228,0.12037 -1.9766,0.76707 -2.4376,1.6875 l -10.125,19.563 -37.127,72.189 c -0.48375,0.94254 -0.45489,2.156 0.0937,3.0626 0.54865,0.90653 1.5965,1.4907 2.6564,1.5 l 74.316,0 16.876,-0.0312 33.095,-57.22 -10,-19.5 -10.125,-19.563 c -0.32589,-0.65607 -0.88941,-1.1794 -1.5626,-1.4688 -0.38148,-0.15374 -0.80754,-0.2236 -1.2188,-0.21875 l -54.096,-0.0312 z m 35.689,8.9376 c 1.477,10e-6 2.8212,0.40644 4.0314,1.0625 2.6625,1.4434 4.5002,4.2206 4.5002,7.4689 0,4.7243 -3.8366,8.6251 -8.5629,8.6251 -4.7243,0 -8.5629,-3.8695 -8.5629,-8.5939 0,-4.7247 3.8698,-8.5626 8.5941,-8.5626 z m -23.97,25.25 c 1.1441,0 2.216,0.26992 3.1564,0.78126 2.0687,1.125 3.4689,3.3292 3.4689,5.8438 0,3.6574 -2.9955,6.5938 -6.6565,6.5938 -3.657,0 -6.6253,-2.9365 -6.6253,-6.5938 -10e-6,-3.6577 2.9995,-6.6251 6.6565,-6.6251 z m 22.911,27.0001 c 1.286,0 2.5114,0.33102 3.5626,0.90626 2.3126,1.2655 3.8439,3.7334 3.8439,6.5626 0,4.1148 -3.2914,7.4376 -7.4066,7.4376 -4.1152,0 -7.4691,-3.3228 -7.4691,-7.4376 1e-5,-4.1152 3.3539,-7.4689 7.4691,-7.4689 z m -15.157,19.3436 c 0.79972,0 1.5415,0.21016 2.1563,0.62501 1.0247,0.6914 1.7188,1.8854 1.7188,3.2188 0,2.1338 -1.7426,3.9063 -3.8752,3.9063 -2.1366,0 -3.9064,-1.7725 -3.9064,-3.9063 0,-2.1334 1.7698,-3.8438 3.9064,-3.8438 z"
         style="color:#000000;text-indent:0;text-transform:none;block-progression:tb;fill:#1bb431;fill-opacity:1"
         id="path16724"
         inkscape:connector-curvature="0"
         sodipodi:nodetypes="ccccccccccccccccsssssssccssscccssssccccssscc" />
      <path
         sodipodi:nodetypes="cccccccccccccccsssssssssssssss"
         inkscape:connector-curvature="0"
         id="path16722"
         style="color:#000000;text-indent:0;text-transform:none;block-progression:tb;fill:#5d4bc2;fill-opacity:1"
         d="m 409.97218,480.01699 -12.876,0.125 c -4.3217,0.0139 -8.7003,0.0902 -13.001,0.0625 -1.1388,-0.0271 -2.2975,0.62597 -2.8439,1.625 l -41.314,71.564 c -3.9131,6.7751 -2.0677,15.46 4.5002,19.25 6.5639,3.7897 14.966,0.9628 18.876,-5.8126 l 41.346,-71.532 c 0.0478,-0.0932 0.0868,-0.18375 0.12501,-0.28125 l 0.37501,-0.68751 6.5003,-11.25 c 0.54592,-0.92726 0.18079,-2.2725 -0.75003,-2.7813 -0.0667,-0.0313 -0.11763,-0.0702 -0.18751,-0.0937 -0.23695,-0.11158 -0.48753,-0.177 -0.75003,-0.1875 z m -32.22,25.5626 c 3.2832,0 5.9378,2.6545 5.9378,5.9376 0,3.2831 -2.6546,5.9376 -5.9378,5.9376 -3.2832,0 -5.9378,-2.6545 -5.9378,-5.9376 0,-3.2831 2.6546,-5.9376 5.9378,-5.9376 z m -14.256,36.126 c 2.6296,0 4.7502,2.1518 4.7502,4.7813 0,2.6295 -2.1206,4.7501 -4.7502,4.7501 -2.6296,0 -4.7502,-2.1206 -4.7502,-4.7501 0,-2.6295 2.1206,-4.7813 4.7502,-4.7813 z m -13.563,16.281 c 1.8005,0 3.2501,1.4809 3.2501,3.2813 0,1.8004 -1.4497,3.25 -3.2501,3.25 -1.8004,0 -3.2501,-1.4496 -3.2501,-3.25 0,-1.8004 1.4497,-3.2813 3.2501,-3.2813 z" />
      <path
         sodipodi:nodetypes="cccccccccccccccccccccccccccccccccccccccccccccccccccccccsccccccccccccc"
         inkscape:connector-curvature="0"
         d="m 277.58,332.93 c -0.11274,10e-4 -0.23179,0.0174 -0.34376,0.0312 -0.0895,0.005 -0.16123,0.0188 -0.25001,0.0312 l -9.5629,0 c -0.0983,-10e-4 -0.21451,-0.008 -0.31251,0 -1.5408,0.13584 -2.8488,1.5789 -2.8439,3.125 l 0.0312,24.282 c -0.0102,1.6435 1.4809,3.1598 3.1251,3.1563 l 7.0316,-0.0312 0,48.938 -19.032,36.969 -51.658,100.53 c -0.47472,0.93748 -0.44785,2.1306 0.0937,3.0313 0.54162,0.90072 1.5741,1.4791 2.6251,1.5 l 103.44,0.0312 8.9066,-0.0312 c 0.46113,-2.122 1.1523,-4.2119 2.0626,-6.2501 l -11,0.0312 -98.285,-0.0312 49.346,-95.97 19.376,-37.688 c 0.23408,-0.43007 0.39271,-0.91682 0.40627,-1.4063 l -0.0312,-49.657 58.409,0 0,49.657 c -0.002,0.49085 0.12253,0.99925 0.34376,1.4375 l 19.376,37.626 8.1566,15.813 3.6877,-6.3751 -6.2815,-12.25 -19.032,-36.969 0,-48.938 7.0316,0 c 1.6303,0.002 3.1153,-1.4954 3.1251,-3.125 l 0,-24.282 c 0.002,-1.1479 -0.69493,-2.2614 -1.7188,-2.7813 -0.43723,-0.22696 -0.91369,-0.3409 -1.4063,-0.34376 l -9.9067,0 c -0.0816,-0.027 -0.16647,-0.0423 -0.25001,-0.0625 l -64.659,0 z m 137.82,66.501 c -0.98948,0.0816 -1.9318,0.6774 -2.4376,1.5313 l -85.535,148.1 c -7.3469,12.725 -2.9781,28.935 9.7504,36.282 12.728,7.3472 29.057,3.069 36.408,-9.6564 l 85.472,-148.13 c 0.79553,-1.4064 0.26745,-3.398 -1.125,-4.2188 l -40.74,-23.5 c -0.0875,-0.0566 -0.15724,-0.10873 -0.25001,-0.15626 -0.47896,-0.20263 -1.0138,-0.30145 -1.5313,-0.25 z m 1.4063,7.3751 35.283,20.344 -83.91,145.41 c -5.6736,9.8232 -18.049,13.11 -27.876,7.4376 -9.8248,-5.6712 -13.111,-17.99 -7.4378,-27.813 l 83.941,-145.38 z m -10.337,124.3753 -3.7189,6.4376 5.5002,10.656 -11.688,0 -3.5627,6.2501 20.376,-0.0312 c 1.0599,-0.006 2.1051,-0.56402 2.6564,-1.4688 0.5513,-0.90475 0.5748,-2.1184 0.0938,-3.0626 l -9.6567,-18.782 z"
         style="color:#000000;text-indent:0;text-transform:none;block-progression:tb"
         id="path4875-48-2-1" />
    </g>
  </g>
  <metadata
     id="metadata16176">
    <rdf:RDF>
      <cc:Work>
        <dc:format>image/svg+xml</dc:format>
        <dc:type
           rdf:resource="http://purl.org/dc/dcmitype/StillImage" />
        <cc:license
           rdf:resource="http://creativecommons.org/licenses/publicdomain/" />
        <dc:publisher>
          <cc:Agent
             rdf:about="http://openclipart.org/">
            <dc:title>Openclipart</dc:title>
          </cc:Agent>
        </dc:publisher>
        <dc:title>Chemistry Ideogram</dc:title>
        <dc:date>2013-10-21T20:09:33</dc:date>
        <dc:description>This is a modified version.</dc:description>
        <dc:source>https://openclipart.org/detail/185284/chemistry-ideogram-by-libberry-185284</dc:source>
        <dc:creator>
          <cc:Agent>
            <dc:title>libberry</dc:title>
          </cc:Agent>
        </dc:creator>
        <dc:subject>
          <rdf:Bag>
            <rdf:li>chemistry</rdf:li>
            <rdf:li>experiment</rdf:li>
            <rdf:li>flask</rdf:li>
            <rdf:li>test tube</rdf:li>
          </rdf:Bag>
        </dc:subject>
      </cc:Work>
      <cc:License
         rdf:about="http://creativecommons.org/licenses/publicdomain/">
        <cc:permits
           rdf:resource="http://creativecommons.org/ns#Reproduction" />
        <cc:permits
           rdf:resource="http://creativecommons.org/ns#Distribution" />
        <cc:permits
           rdf:resource="http://creativecommons.org/ns#DerivativeWorks" />
      </cc:License>
    </rdf:RDF>
  </metadata>
</svg>
